<svg width="411" height="815" fill="none" xmlns="http://www.w3.org/2000/svg"><mask id="a" maskUnits="userSpaceOnUse" x="9.609" y="-29.547" width="409.865" height="475.626" fill="#000"><path fill="#fff" d="M9.609-29.547h409.865v475.626H9.609z"/><path fill-rule="evenodd" clip-rule="evenodd" d="M168.817 62.178l-2.893 11.316c.192 1.145 4.889 3.362 4.068 16.459-.369 5.853-.608 4.322-2.947 8.14-2.572 4.221.002 4.899-.549 9.434-4.621 1.466-3.158.333-6.687-.716-.323 5.386-2.745 10.593-1.888 13.155 2.111-7.858 7.513-2.583 10.11-.544 3.598 2.797 1.471-.679 4.563 2.994 3.281 4.591-2.092 5.802.947 15.016 3.924 11.882 14.54 1.745 3.391 25.415-2.178 4.629-5.308 8.259-11.805 6.126-2.5-6.566 2.441-7.264-4.828-13.977-5.018-4.694-5.224-10.565-8.389-13.021-5.599-4.312-5.132 1.261-11.23-8.102-2.44-3.79-8.296-5.868-13.352-4.114 3.298 7.207 8.422 2.301 8.023 15.057-.381 10.7-4.949 8.961-6.357 14.979.59 4.115 10.397 2.228 5.336 12.473-2.284 4.657 1.669 4.737-.076 9.706-.88 2.458-5.703 6.998-7.426 10.138-4.857 8.879-5.727 1.591-9.516 8.076-4.85 8.479-14.202 5.686-27.416 13.785-4.056 2.511-8.535 4.509-9.274 8.98-1.338 7.765.244 8.139-9.87 9.311 9.714 25.829-7.313 35.006 4.145 41.622 20.977 12.156 8.385 6.414 26.181 5.634 4.229-.165 2.351.908 6.901-.824 6.46-2.472 14.575.596 19.795 4.553 5.773 4.322 2.082 7.134.429 12.021 2.718 2.064 8.879 4.857 13.159 5.306 4.95-4.916 3.657-12.718 14.723-2.464 5.368-2.293 4.948-6.625 11.241-6.317 3.234.159 9.074 4.52 10.775 6.4 4.121 4.537 2.022 9.885 4.229 14.935 1.973 4.599 6.498 5.324 9.189 8.99 3.551 4.746 2.034 10.565 6.349 13.91 5.383 4.142 7.334-.483 13.831-1.541 8.666-1.467 5.199 4.305 10.99 5.716 7.681 1.873 5.019-.832 11.616 4.864 4.823 4.178 7.215.346 13.937.767 6.254.376 6.889 4.023 11.996 2.882 13.819-3.076 11.028 4.794 15.496 8.497 3.655 3.009 12.803 7.167 17.939 6.987 22.947-.906 16.165-4.103 26.119-10.758 9.412-6.34 9.865-12.729 16.976-1.074 2.416 3.911 3.763 3.835 6.336 5.995 7.212-1.363 3.7-3.841 12.626-.934 7.303 2.374 4.876 4.164 9.754 6.845 4.237.289 6.601-2.794 11.553-.475 3.122 1.443 4.745 4.313 8.363 5.907l5.247-8.699c5.306-6.777.482-6.282 1.808-11.538 1.447-6.085 3.353-.67 4.654-6.66 3.177-14.297-14.689-7.402.135-32.456 4.713-7.929 1.065-8.148-.339-17.002-.615-3.994-.568-6.799-2.502-10.611-1.596 1.909-1.706 4.901-5.585 4.459-3.237-.386-2.527-2.627-7.017-3.646-10.531-2.306-7.811-7.251-5.956-12.022 1.69-4.327-3.641-12.527-6.599-16.122-2.971-3.648-12.78-2.615-13.786-8.499-.796-4.459 3.144-2.723 1.454-7.968-1.042-3.253-3.628-4.611-3.205-9.625.398-4.892 5.775-8.214-5.681-13.121-2.824-1.18-4.628-1.323-5.881-5.147-.381-1.209-2.651-8.406-2.697-8.792-.501-3.57 1.338-4.575-.349-9.593-1.519-4.607-3.103-4.353-3.483-10.234 3.824-4.443 5.461-2.375 6.791-7.404.992-3.741 2.14-6.898.348-11.033-3.725-8.801-.547-3.955.237-9.749.464-3.372-1.576-10.346-3.022-12.979-2.094-2.287-4.017-.747-6.555-3.2l-1.509-1.59c-1.711-1.707-7.02 2.507-8.849 2.485-4.166-.024-4.301-3.292-6.704-5.668-2.402-2.376-9.803-1.077-15.13-9.05-6.162-9.175 2.588-14.368 5.637-20.427 4.109-8.052 3.192-4.673 10.744-9.66-.088-8.408 1.032-20.389-7.625-23.14-3.369-1.091-7.66-2.22-8.641-7.37-1.052-5.416 3.292-6.637 8.217-9.097-.984-14.094 1.252-8.938-8.316-14.238-3.679-2.034-3.249-4.257-5.303-8.094-3.184-.4-5.623-1-8.869.496 2.366.962 6.119.298 6.914 3.903.563 2.527-1.569 6.688-3.284 7.945-5.724 4.154-11.32-3.12-14.553-6.47-5.585 2.122-7.571 7.042-6.189 13.053.45 2.102 3.43 3.867 5.569 4.832 4.384 1.902 2.762.742 5.909 5.254 17.134-1.97 6.823 2.502 14.837 9.87 2.264 2.071 6.528 3.948 5.04 7.538-2.239 4.19-8.519-.11-11.029-2.458-7.311-6.872-2.515-4.283-11.651-4.57-3.97-2.696-1.267-3.877-6.588-4.388-8.464-.752-13.95.889-12.071-19.955.941-10.736 7.436-25.41-.823-36.245.077 7.729 4.675 11.282.379 17.79-3.008 4.509-10.921 7.085-12.741 11.561-2.347 5.7-.042 9.412-4.491 15.561-9.316 12.866.595 2.86 3.599 36.185 1.071 12.077-2.828 9.646-3.589 16.801-.361 3.117 0 5.527-.425 8.832-.64 4.843-1.898 5.465-2.543 8.373-.818 3.752 1.074 5.922 1.544 10.013.408 3.651-.408 5.921.412 9.405 13.362.75 16.909-9.83 30.053-2.241 9.855 5.735 4.189 5.429 10.963 7.318 10.327 2.817 7.764 26.636 6.713 28.456-2.204 3.895-8.37 6.402-2.343 12.308 5.782 5.63 15.706 3.54 20.242 11.327 1.375 2.367.554.365.744 2.137.251 2.212.256.957-.334 2.369-4.899 3.193-7.995-.707-10.83-2.568-7.99-5.152-5.054 4.317-4.997 7.72-2.153 1.318-3.04.986-4.677 2.108-2.6 1.779-.921 3.153-4.57 2.079-7.42-3.026-.637-10.883-2.577-17.485-3.198-2.79-3.967-2.47-7.123-3.618-3.114-9.706 3.823-4.443 3.612-20.967-.089-6.073 3-1.772-2.485-8.849-5.063-6.563-2.289-5.141-3.875-12.123-4.957-.211-14.825 1.237-19.693 3.909-4.272 2.341-4.286 11.86-4.693 15.444-.543 4.989 5.343 8.882 4.464 17.721-.753 7.609-2.482 8.812-7.861 13.615-9.286 8.3-4.026 21.762-17.826 25.972-4.795 1.456-12.039 6.531-12.767 10.828-1.394 8.407 2.553 12.933 1.914 17.777-8.602 4.47-12.345-9.284-14.768-16.84-4.516-5.798-19.291-1.611-26.593-6.321-4.197-2.693-3.558-5.2-4.443-10.204-5.193.821-7.397 1.526-10.552-1.104-.116-5.325 6.908-7.606 11.689-8.26 5.675-.723 6.579 2.225 13.425 2.043 5.189-.194 2.847.206 6.435.84 5.195.887 3.193-.628 7.393-1.753 4.891-1.311 8.435 3.836 1.661 7.474l1.994 4.252c2.341-5.299 1.682-4.781 4.849-9.333 5.281-7.511 2.086-2.211 4.203-10.47 3.237-2.805 3.052-.305 4.643-4.15 1.283-3.079-.397-2.97 2.931-5.857 3.882-3.376 6.461-4.807 6.593-10.483.227-11.058-1.211-4.519 3.704-12.331 1.91-3.076 1.974-8.791 1.306-13.626-1.47-10.375-13.476-6.702-8.721-23.189 8.036-27.849-.512-28.066 5.536-39.942 1.203-2.317 3.853-24.109 3.145-26.54-1.413-4.635-6.643-5.228-7.904-10.36-1.546-6.195 1.982-8.337 4.367-11.768 2.23-3.161 11.333-24.688 11.582-29.711.11-2.992.509-4.695.516-7.432-2.461-1.106-4.301-.955-7.486-2.21-5.537-2.163-1.529-3.579-8.119-3.294-6.658.245-10.697-1.008-15.508-4.505-4.183 6.078-4.707 9.864-7.863 15.097-5.18 8.738-5.973 24.277-11.181 32.91-3.566 6.253-8.868 7.731-17.366 10.464z"/></mask><path fill-rule="evenodd" clip-rule="evenodd" d="M168.817 62.178l-2.893 11.316c.192 1.145 4.889 3.362 4.068 16.459-.369 5.853-.608 4.322-2.947 8.14-2.572 4.221.002 4.899-.549 9.434-4.621 1.466-3.158.333-6.687-.716-.323 5.386-2.745 10.593-1.888 13.155 2.111-7.858 7.513-2.583 10.11-.544 3.598 2.797 1.471-.679 4.563 2.994 3.281 4.591-2.092 5.802.947 15.016 3.924 11.882 14.54 1.745 3.391 25.415-2.178 4.629-5.308 8.259-11.805 6.126-2.5-6.566 2.441-7.264-4.828-13.977-5.018-4.694-5.224-10.565-8.389-13.021-5.599-4.312-5.132 1.261-11.23-8.102-2.44-3.79-8.296-5.868-13.352-4.114 3.298 7.207 8.422 2.301 8.023 15.057-.381 10.7-4.949 8.961-6.357 14.979.59 4.115 10.397 2.228 5.336 12.473-2.284 4.657 1.669 4.737-.076 9.706-.88 2.458-5.703 6.998-7.426 10.138-4.857 8.879-5.727 1.591-9.516 8.076-4.85 8.479-14.202 5.686-27.416 13.785-4.056 2.511-8.535 4.509-9.274 8.98-1.338 7.765.244 8.139-9.87 9.311 9.714 25.829-7.313 35.006 4.145 41.622 20.977 12.156 8.385 6.414 26.181 5.634 4.229-.165 2.351.908 6.901-.824 6.46-2.472 14.575.596 19.795 4.553 5.773 4.322 2.082 7.134.429 12.021 2.718 2.064 8.879 4.857 13.159 5.306 4.95-4.916 3.657-12.718 14.723-2.464 5.368-2.293 4.948-6.625 11.241-6.317 3.234.159 9.074 4.52 10.775 6.4 4.121 4.537 2.022 9.885 4.229 14.935 1.973 4.599 6.498 5.324 9.189 8.99 3.551 4.746 2.034 10.565 6.349 13.91 5.383 4.142 7.334-.483 13.831-1.541 8.666-1.467 5.199 4.305 10.99 5.716 7.681 1.873 5.019-.832 11.616 4.864 4.823 4.178 7.215.346 13.937.767 6.254.376 6.889 4.023 11.996 2.882 13.819-3.076 11.028 4.794 15.496 8.497 3.655 3.009 12.803 7.167 17.939 6.987 22.947-.906 16.165-4.103 26.119-10.758 9.412-6.34 9.865-12.729 16.976-1.074 2.416 3.911 3.763 3.835 6.336 5.995 7.212-1.363 3.7-3.841 12.626-.934 7.303 2.374 4.876 4.164 9.754 6.845 4.237.289 6.601-2.794 11.553-.475 3.122 1.443 4.745 4.313 8.363 5.907l5.247-8.699c5.306-6.777.482-6.282 1.808-11.538 1.447-6.085 3.353-.67 4.654-6.66 3.177-14.297-14.689-7.402.135-32.456 4.713-7.929 1.065-8.148-.339-17.002-.615-3.994-.568-6.799-2.502-10.611-1.596 1.909-1.706 4.901-5.585 4.459-3.237-.386-2.527-2.627-7.017-3.646-10.531-2.306-7.811-7.251-5.956-12.022 1.69-4.327-3.641-12.527-6.599-16.122-2.971-3.648-12.78-2.615-13.786-8.499-.796-4.459 3.144-2.723 1.454-7.968-1.042-3.253-3.628-4.611-3.205-9.625.398-4.892 5.775-8.214-5.681-13.121-2.824-1.18-4.628-1.323-5.881-5.147-.381-1.209-2.651-8.406-2.697-8.792-.501-3.57 1.338-4.575-.349-9.593-1.519-4.607-3.103-4.353-3.483-10.234 3.824-4.443 5.461-2.375 6.791-7.404.992-3.741 2.14-6.898.348-11.033-3.725-8.801-.547-3.955.237-9.749.464-3.372-1.576-10.346-3.022-12.979-2.094-2.287-4.017-.747-6.555-3.2l-1.509-1.59c-1.711-1.707-7.02 2.507-8.849 2.485-4.166-.024-4.301-3.292-6.704-5.668-2.402-2.376-9.803-1.077-15.13-9.05-6.162-9.175 2.588-14.368 5.637-20.427 4.109-8.052 3.192-4.673 10.744-9.66-.088-8.408 1.032-20.389-7.625-23.14-3.369-1.091-7.66-2.22-8.641-7.37-1.052-5.416 3.292-6.637 8.217-9.097-.984-14.094 1.252-8.938-8.316-14.238-3.679-2.034-3.249-4.257-5.303-8.094-3.184-.4-5.623-1-8.869.496 2.366.962 6.119.298 6.914 3.903.563 2.527-1.569 6.688-3.284 7.945-5.724 4.154-11.32-3.12-14.553-6.47-5.585 2.122-7.571 7.042-6.189 13.053.45 2.102 3.43 3.867 5.569 4.832 4.384 1.902 2.762.742 5.909 5.254 17.134-1.97 6.823 2.502 14.837 9.87 2.264 2.071 6.528 3.948 5.04 7.538-2.239 4.19-8.519-.11-11.029-2.458-7.311-6.872-2.515-4.283-11.651-4.57-3.97-2.696-1.267-3.877-6.588-4.388-8.464-.752-13.95.889-12.071-19.955.941-10.736 7.436-25.41-.823-36.245.077 7.729 4.675 11.282.379 17.79-3.008 4.509-10.921 7.085-12.741 11.561-2.347 5.7-.042 9.412-4.491 15.561-9.316 12.866.595 2.86 3.599 36.185 1.071 12.077-2.828 9.646-3.589 16.801-.361 3.117 0 5.527-.425 8.832-.64 4.843-1.898 5.465-2.543 8.373-.818 3.752 1.074 5.922 1.544 10.013.408 3.651-.408 5.921.412 9.405 13.362.75 16.909-9.83 30.053-2.241 9.855 5.735 4.189 5.429 10.963 7.318 10.327 2.817 7.764 26.636 6.713 28.456-2.204 3.895-8.37 6.402-2.343 12.308 5.782 5.63 15.706 3.54 20.242 11.327 1.375 2.367.554.365.744 2.137.251 2.212.256.957-.334 2.369-4.899 3.193-7.995-.707-10.83-2.568-7.99-5.152-5.054 4.317-4.997 7.72-2.153 1.318-3.04.986-4.677 2.108-2.6 1.779-.921 3.153-4.57 2.079-7.42-3.026-.637-10.883-2.577-17.485-3.198-2.79-3.967-2.47-7.123-3.618-3.114-9.706 3.823-4.443 3.612-20.967-.089-6.073 3-1.772-2.485-8.849-5.063-6.563-2.289-5.141-3.875-12.123-4.957-.211-14.825 1.237-19.693 3.909-4.272 2.341-4.286 11.86-4.693 15.444-.543 4.989 5.343 8.882 4.464 17.721-.753 7.609-2.482 8.812-7.861 13.615-9.286 8.3-4.026 21.762-17.826 25.972-4.795 1.456-12.039 6.531-12.767 10.828-1.394 8.407 2.553 12.933 1.914 17.777-8.602 4.47-12.345-9.284-14.768-16.84-4.516-5.798-19.291-1.611-26.593-6.321-4.197-2.693-3.558-5.2-4.443-10.204-5.193.821-7.397 1.526-10.552-1.104-.116-5.325 6.908-7.606 11.689-8.26 5.675-.723 6.579 2.225 13.425 2.043 5.189-.194 2.847.206 6.435.84 5.195.887 3.193-.628 7.393-1.753 4.891-1.311 8.435 3.836 1.661 7.474l1.994 4.252c2.341-5.299 1.682-4.781 4.849-9.333 5.281-7.511 2.086-2.211 4.203-10.47 3.237-2.805 3.052-.305 4.643-4.15 1.283-3.079-.397-2.97 2.931-5.857 3.882-3.376 6.461-4.807 6.593-10.483.227-11.058-1.211-4.519 3.704-12.331 1.91-3.076 1.974-8.791 1.306-13.626-1.47-10.375-13.476-6.702-8.721-23.189 8.036-27.849-.512-28.066 5.536-39.942 1.203-2.317 3.853-24.109 3.145-26.54-1.413-4.635-6.643-5.228-7.904-10.36-1.546-6.195 1.982-8.337 4.367-11.768 2.23-3.161 11.333-24.688 11.582-29.711.11-2.992.509-4.695.516-7.432-2.461-1.106-4.301-.955-7.486-2.21-5.537-2.163-1.529-3.579-8.119-3.294-6.658.245-10.697-1.008-15.508-4.505-4.183 6.078-4.707 9.864-7.863 15.097-5.18 8.738-5.973 24.277-11.181 32.91-3.566 6.253-8.868 7.731-17.366 10.464z" fill="#1E2D44"/><path clip-rule="evenodd" d="M168.817 62.178l-2.893 11.316c.192 1.145 4.889 3.362 4.068 16.459-.369 5.853-.608 4.322-2.947 8.14-2.572 4.221.002 4.899-.549 9.434-4.621 1.466-3.158.333-6.687-.716-.323 5.386-2.745 10.593-1.888 13.155 2.111-7.858 7.513-2.583 10.11-.544 3.598 2.797 1.471-.679 4.563 2.994 3.281 4.591-2.092 5.802.947 15.016 3.924 11.882 14.54 1.745 3.391 25.415-2.178 4.629-5.308 8.259-11.805 6.126-2.5-6.566 2.441-7.264-4.828-13.977-5.018-4.694-5.224-10.565-8.389-13.021-5.599-4.312-5.132 1.261-11.23-8.102-2.44-3.79-8.296-5.868-13.352-4.114 3.298 7.207 8.422 2.301 8.023 15.057-.381 10.7-4.949 8.961-6.357 14.979.59 4.115 10.397 2.228 5.336 12.473-2.284 4.657 1.669 4.737-.076 9.706-.88 2.458-5.703 6.998-7.426 10.138-4.857 8.879-5.727 1.591-9.516 8.076-4.85 8.479-14.202 5.686-27.416 13.785-4.056 2.511-8.535 4.509-9.274 8.98-1.338 7.765.244 8.139-9.87 9.311 9.714 25.829-7.313 35.006 4.145 41.622 20.977 12.156 8.385 6.414 26.181 5.634 4.229-.165 2.351.908 6.901-.824 6.46-2.472 14.575.596 19.795 4.553 5.773 4.322 2.082 7.134.429 12.021 2.718 2.064 8.879 4.857 13.159 5.306 4.95-4.916 3.657-12.718 14.723-2.464 5.368-2.293 4.948-6.625 11.241-6.317 3.234.159 9.074 4.52 10.775 6.4 4.121 4.537 2.022 9.885 4.229 14.935 1.973 4.599 6.498 5.324 9.189 8.99 3.551 4.746 2.034 10.565 6.349 13.91 5.383 4.142 7.334-.483 13.831-1.541 8.666-1.467 5.199 4.305 10.99 5.716 7.681 1.873 5.019-.832 11.616 4.864 4.823 4.178 7.215.346 13.937.767 6.254.376 6.889 4.023 11.996 2.882 13.819-3.076 11.028 4.794 15.496 8.497 3.655 3.009 12.803 7.167 17.939 6.987 22.947-.906 16.165-4.103 26.119-10.758 9.412-6.34 9.865-12.729 16.976-1.074 2.416 3.911 3.763 3.835 6.336 5.995 7.212-1.363 3.7-3.841 12.626-.934 7.303 2.374 4.876 4.164 9.754 6.845 4.237.289 6.601-2.794 11.553-.475 3.122 1.443 4.745 4.313 8.363 5.907l5.247-8.699c5.306-6.777.482-6.282 1.808-11.538 1.447-6.085 3.353-.67 4.654-6.66 3.177-14.297-14.689-7.402.135-32.456 4.713-7.929 1.065-8.148-.339-17.002-.615-3.994-.568-6.799-2.502-10.611-1.596 1.909-1.706 4.901-5.585 4.459-3.237-.386-2.527-2.627-7.017-3.646-10.531-2.306-7.811-7.251-5.956-12.022 1.69-4.327-3.641-12.527-6.599-16.122-2.971-3.648-12.78-2.615-13.786-8.499-.796-4.459 3.144-2.723 1.454-7.968-1.042-3.253-3.628-4.611-3.205-9.625.398-4.892 5.775-8.214-5.681-13.121-2.824-1.18-4.628-1.323-5.881-5.147-.381-1.209-2.651-8.406-2.697-8.792-.501-3.57 1.338-4.575-.349-9.593-1.519-4.607-3.103-4.353-3.483-10.234 3.824-4.443 5.461-2.375 6.791-7.404.992-3.741 2.14-6.898.348-11.033-3.725-8.801-.547-3.955.237-9.749.464-3.372-1.576-10.346-3.022-12.979-2.094-2.287-4.017-.747-6.555-3.2l-1.509-1.59c-1.711-1.707-7.02 2.507-8.849 2.485-4.166-.024-4.301-3.292-6.704-5.668-2.402-2.376-9.803-1.077-15.13-9.05-6.162-9.175 2.588-14.368 5.637-20.427 4.109-8.052 3.192-4.673 10.744-9.66-.088-8.408 1.032-20.389-7.625-23.14-3.369-1.091-7.66-2.22-8.641-7.37-1.052-5.416 3.292-6.637 8.217-9.097-.984-14.094 1.252-8.938-8.316-14.238-3.679-2.034-3.249-4.257-5.303-8.094-3.184-.4-5.623-1-8.869.496 2.366.962 6.119.298 6.914 3.903.563 2.527-1.569 6.688-3.284 7.945-5.724 4.154-11.32-3.12-14.553-6.47-5.585 2.122-7.571 7.042-6.189 13.053.45 2.102 3.43 3.867 5.569 4.832 4.384 1.902 2.762.742 5.909 5.254 17.134-1.97 6.823 2.502 14.837 9.87 2.264 2.071 6.528 3.948 5.04 7.538-2.239 4.19-8.519-.11-11.029-2.458-7.311-6.872-2.515-4.283-11.651-4.57-3.97-2.696-1.267-3.877-6.588-4.388-8.464-.752-13.95.889-12.071-19.955.941-10.736 7.436-25.41-.823-36.245.077 7.729 4.675 11.282.379 17.79-3.008 4.509-10.921 7.085-12.741 11.561-2.347 5.7-.042 9.412-4.491 15.561-9.316 12.866.595 2.86 3.599 36.185 1.071 12.077-2.828 9.646-3.589 16.801-.361 3.117 0 5.527-.425 8.832-.64 4.843-1.898 5.465-2.543 8.373-.818 3.752 1.074 5.922 1.544 10.013.408 3.651-.408 5.921.412 9.405 13.362.75 16.909-9.83 30.053-2.241 9.855 5.735 4.189 5.429 10.963 7.318 10.327 2.817 7.764 26.636 6.713 28.456-2.204 3.895-8.37 6.402-2.343 12.308 5.782 5.63 15.706 3.54 20.242 11.327 1.375 2.367.554.365.744 2.137.251 2.212.256.957-.334 2.369-4.899 3.193-7.995-.707-10.83-2.568-7.99-5.152-5.054 4.317-4.997 7.72-2.153 1.318-3.04.986-4.677 2.108-2.6 1.779-.921 3.153-4.57 2.079-7.42-3.026-.637-10.883-2.577-17.485-3.198-2.79-3.967-2.47-7.123-3.618-3.114-9.706 3.823-4.443 3.612-20.967-.089-6.073 3-1.772-2.485-8.849-5.063-6.563-2.289-5.141-3.875-12.123-4.957-.211-14.825 1.237-19.693 3.909-4.272 2.341-4.286 11.86-4.693 15.444-.543 4.989 5.343 8.882 4.464 17.721-.753 7.609-2.482 8.812-7.861 13.615-9.286 8.3-4.026 21.762-17.826 25.972-4.795 1.456-12.039 6.531-12.767 10.828-1.394 8.407 2.553 12.933 1.914 17.777-8.602 4.47-12.345-9.284-14.768-16.84-4.516-5.798-19.291-1.611-26.593-6.321-4.197-2.693-3.558-5.2-4.443-10.204-5.193.821-7.397 1.526-10.552-1.104-.116-5.325 6.908-7.606 11.689-8.26 5.675-.723 6.579 2.225 13.425 2.043 5.189-.194 2.847.206 6.435.84 5.195.887 3.193-.628 7.393-1.753 4.891-1.311 8.435 3.836 1.661 7.474l1.994 4.252c2.341-5.299 1.682-4.781 4.849-9.333 5.281-7.511 2.086-2.211 4.203-10.47 3.237-2.805 3.052-.305 4.643-4.15 1.283-3.079-.397-2.97 2.931-5.857 3.882-3.376 6.461-4.807 6.593-10.483.227-11.058-1.211-4.519 3.704-12.331 1.91-3.076 1.974-8.791 1.306-13.626-1.47-10.375-13.476-6.702-8.721-23.189 8.036-27.849-.512-28.066 5.536-39.942 1.203-2.317 3.853-24.109 3.145-26.54-1.413-4.635-6.643-5.228-7.904-10.36-1.546-6.195 1.982-8.337 4.367-11.768 2.23-3.161 11.333-24.688 11.582-29.711.11-2.992.509-4.695.516-7.432-2.461-1.106-4.301-.955-7.486-2.21-5.537-2.163-1.529-3.579-8.119-3.294-6.658.245-10.697-1.008-15.508-4.505-4.183 6.078-4.707 9.864-7.863 15.097-5.18 8.738-5.973 24.277-11.181 32.91-3.566 6.253-8.868 7.731-17.366 10.464z" stroke="#1E2D44" stroke-width="5.017" mask="url(#a)"/><path d="M199.84 465.698c-1.182-.581-2.233-.818-3.085-1.009l-.031-.007c-.884-.2-1.47-.342-2.022-.673-1.053-.632-2.323-2.188-3.912-7.588l-.001-.005c-1.703-5.7-3.996-9.483-6.756-12.009-2.767-2.532-5.898-3.704-9.086-4.363-1.587-.328-3.201-.532-4.791-.709-.392-.044-.78-.086-1.167-.127-1.201-.13-2.383-.258-3.568-.428-3.113-.447-6.068-1.164-8.787-2.838-.708-.441-1.41-.916-2.141-1.41-.267-.181-.539-.365-.815-.55-1.016-.681-2.083-1.37-3.193-1.955-2.224-1.17-4.733-1.98-7.537-1.428l-.937.185-.072.952c-.441 5.881-.885 9.208-2.539 11.77-1.636 2.533-4.586 4.499-10.673 7.154h-.001c-1.945.85-4.239 1.326-6.65 1.826-.533.111-1.072.222-1.614.34-2.849.616-5.866 1.399-7.92 3.189-1.571 1.263-2.638 1.927-3.439 2.27-.757.323-1.293.368-1.85.325a11.828 11.828 0 01-.944-.133c-1.2-.201-2.941-.491-5.61-.032l-.806.139-45.955 77.555m145.902-70.441c2.134 1.044 3.09 2.722 3.931 4.201.124.217.246.431.368.637.954 1.608 2.162 3.287 5.248 4.721 7.413 3.43 10.788 4.493 13.793 5.028 1.163.207 2.269.335 3.567.485.417.048.854.099 1.319.155 1.895.23 4.173.544 7.283 1.168l1.599.321-.72 1.463c-.256.52-.544 1.154-.865 1.857-.733 1.608-1.633 3.585-2.697 5.428-1.542 2.67-3.6 5.4-6.429 6.806-6.076 3.029-9.339 3.257-12.202 2.496-.678-.181-1.31-.41-1.912-.638l-.425-.163a36.484 36.484 0 00-1.378-.508 13.823 13.823 0 00-4.414-.777c-1.702-.026-2.574.397-3.175.874-.331.262-.617.569-.94.94l-.145.169c-.274.316-.595.689-.95 1.02-.94.876-2.149 1.506-4.064 1.448-1.803-.055-4.202-.717-7.617-2.211l-.002-.001c-3.954-1.736-6.268-2.191-8.568-2.354-.754-.053-1.566-.074-2.466-.098-1.779-.046-3.904-.101-6.619-.432l-.643-.078-.308-.569c-.533-.983-.816-1.819-.916-2.621-.1-.796-.006-1.476.093-2.077l.043-.257c.167-.99.346-2.052 0-3.909-1.896-1.963-4.044-3.303-6.134-3.933-.186.054-.455.185-.809.463-.468.367-.995.921-1.553 1.659-1.114 1.473-2.253 3.547-3.222 5.93-1.956 4.807-3.094 10.545-2.197 14.773v.004c.203.969.38 1.79.529 2.48.215.993.371 1.716.46 2.224.073.412.134.841.099 1.214a1.75 1.75 0 01-.239.746c-.177.29-.421.478-.661.593a2.04 2.04 0 01-.527.161c-.083.014-.187.028-.26.038l-.055.007c-.166.023-.32.051-.501.117-.349.127-.973.461-1.863 1.515h0c-.573.679-.833 1.282-.92 1.806-.086.522-.014 1.05.211 1.604.472 1.155 1.581 2.337 3.044 3.458 1.437 1.1 3.078 2.04 4.431 2.753.557.294 1.056.545 1.472.754l.251.126c.225.114.43.218.591.305l.01.005c.111.061.346.188.518.344l.009.008.009.009c1.308 1.236 2.711 2.278 4.068 3.248.204.147.409.292.614.438 1.12.795 2.218 1.576 3.104 2.361 1.045.925 1.986 2.014 2.312 3.382.341 1.432-.052 2.888-1.062 4.394l-.005.008-.005.007c-.503.726-1.212 1.219-1.936 1.592-.72.371-1.551.67-2.371.954l-.407.141c-1.569.539-3.204 1.102-4.758 2.087-1.652 1.048-3.215 2.581-4.351 5.1-1.147 2.542-1.888 6.155-1.764 11.395.059 2.479-.329 4.245-1.063 5.614-.731 1.366-1.743 2.211-2.635 2.916l-.248.195c-.807.635-1.484 1.166-2.062 1.956-.612.835-1.153 2.027-1.393 4.011v.004l-.406 3.576-.014.12-.036.115a8.038 8.038 0 01-.801 1.797c-.137.229-.236.381-.318.507a4.746 4.746 0 00-.281.47c-.226.438-.47 1.151-.354 3.425l.076 1.498-1.489-.191c-8.812-1.13-13.948-4.192-17.402-6.993a47.096 47.096 0 01-2.256-1.968 79.302 79.302 0 01-.443-.409c-.478-.441-.897-.829-1.297-1.171-.962-.823-1.55-1.138-2.029-1.19-2.601.904-3.805 1.952-4.95 3.126-.177.181-.354.368-.537.56-1.094 1.153-2.37 2.498-4.664 3.82l-1.568.904-.296-1.785c-.988-5.955-2.181-9.183-3.413-10.979-.6-.876-1.203-1.4-1.795-1.741-.6-.346-1.25-.54-2.002-.681-.379-.07-.77-.125-1.195-.183l-.126-.017a37.21 37.21 0 01-1.2-.175c-.925-.156-1.93-.392-2.964-.878-2.108-.993-4.091-2.911-5.942-6.698-.654-1.33-1.078-2.082-1.394-2.524-.281-.393-.407-.441-.45-.458l-.005-.001a1.977 1.977 0 00-.329-.084l-.113-.022a12.361 12.361 0 01-.617-.133c-.626-.154-1.394-.422-2.416-.999l-.01-.006c-1.473-.85-2.18-1.7-2.725-2.357l-.17-.203c-.27-.32-.49-.554-.779-.763-.282-.204-.675-.419-1.304-.624-.013-.002-.047-.009-.112-.019a14.18 14.18 0 00-.474-.065c-.405-.05-.95-.111-1.6-.181l-.787-.084a332.24 332.24 0 01-3.897-.432c-1.702-.202-3.447-.433-4.862-.687a20.92 20.92 0 01-1.883-.41 6.865 6.865 0 01-.746-.247 2.768 2.768 0 01-.7-.391l-.096-.078-.079-.095c-1.79-2.141-2.255-4.17-2.632-5.819l-.034-.149c-.38-1.651-.69-2.8-1.962-3.871-.902-.745-1.624-.929-2.573-1.172-.201-.052-.413-.106-.639-.168-.645-.179-1.362-.428-2.116-.921-.752-.492-1.483-1.189-2.227-2.202m146.913-71.184l.001.001-.553 1.125.551-1.127.001.001zM52.927 536.882l1.011-.743m-1.011.743s0 0 0 0l1.011-.743m-1.011.743c-1.26-1.717-1.972-3.276-2.108-4.79-.138-1.55.342-2.881 1.123-4.088.758-1.171 1.844-2.291 2.993-3.434l.563-.558c.895-.885 1.841-1.821 2.805-2.885m-4.365 15.012c-3.752-5.109-1.373-7.462 2.436-11.229 1.018-1.007 2.14-2.116 3.272-3.405m-1.343-.378c.037.186.072.38.105.582l1.238-.204m-1.343-.378c-.385-1.927-.964-3.046-1.491-4.058l-.03-.058c-.6-1.153-1.211-2.327-1.18-4.237v-.025l.002-.024.449-8.06m2.25 16.462c.133-.148.267-.297.4-.45l.943.828m0 0l-3.593-16.84m0 0v.041l1.254-.009m-1.254-.032l.803 8.129.451-8.097m-1.254-.032l.002-.038 1.252.07m-1.254-.032c-.008-2.942 1.508-5.161 3.628-6.879 2.097-1.7 4.893-3.004 7.7-4.156 1.035-.425 2.064-.826 3.075-1.221 1.805-.705 3.551-1.387 5.166-2.136 2.524-1.17 4.402-2.369 5.388-3.754v-.002c1.43-2.002 1.334-4.008.516-6.422-.404-1.191-.963-2.419-1.574-3.76l-.062-.135c-.624-1.371-1.291-2.847-1.81-4.395l-.555-1.651 1.742-.002c2.178-.003 3.607.094 4.675.196.384.036.7.071.975.101.528.058.906.099 1.321.107 1.152.022 2.444-.233 7.18-1.675l.366 1.2m-36.477 34.616c-.042-5.788 6.877-8.491 13.55-11.097 4.667-1.824 9.215-3.6 11.175-6.354l11.752-17.165m16.748 113.113l-.626-1.087c.136-.079.268-.157.396-.235.078.426.155.866.23 1.322zm0 0l1.238-.206a61.56 61.56 0 00-.088-.517c-.35.24-.731.481-1.15.723zm34.365 4.067l-1.253.064-.011-.243c.412.064.833.124 1.264.179zm0 0l.159-1.244-.19-.025c-.003.373.007.793.031 1.269zm90.206-103.938c-.442-.088-.866-.171-1.275-.247l.149-.306 1.126.553zm0 0c-.176.357-.36.75-.552 1.169l.305.061.247-1.23zM93.784 470.081l-.365-1.2.365 1.2zm-14.515 1.325l1.189-.398c.046.137.093.274.142.41a68.282 68.282 0 00-1.331-.012zm0 0l.001 1.255.456.001a27.121 27.121 0 01-.457-1.256z" fill="#1E2D44" stroke="#1E2D44" stroke-width="2.509"/><path fill-rule="evenodd" clip-rule="evenodd" d="M43.71 246.782c-2.673-3.386-1.695-3.135-2.657-7.151-3.738 1.572-12.871 21.283-12.92 21.524-1.316 5.936 3.204 8.77-1.495 13.562-6.915 7.152-4.301-.955-7.279 10.896-1.15 4.638-4.388 6.589-6.564 10.59-3.548 6.534.895 7.167.677 14.006l-3.37 13.153c-1.728 5.249-6.15 7.459-6.311 11.32l6.996 1.658c2.926 6.452 1.859 9.701 6.848 13.435 9.247 6.867 21.786 12.623 28.64 26.512 4.397 8.964-.433 7.523.799 14.885 2.56 15.723.585 9.415.93 15.59.364 5.828 5.476 4.914 7.422 11.116 2.189 7.106-1.766 8.507-4.26 12.594 2.054 4.691 4.892 5.925 8.5 7.693 5.008 2.533 4.62 4.061 7.381 9.475 16.909 1.224 5.73 9.689 12.682 21.387 3.915 6.529 11.408 2.812 18.577.435.347-3.17-.501-4.424.242-7.814 7.1-4.124 7.061 1.47 13.018-3.089 6.326-4.886 8.328-2.517 15.716-5.351 18.225-7.048 9.906-11.087 14.813-20.207 3.499-3.103 11.413 1.557 14.44 3.708 12.702 9.132 14.232-1.534 27.848 9.518 5.088 4.106 6.669 6.816 9.011 14.279 3.327 10.504 6.725 2.984 11.111 9.786 6.223 9.614 14.908 11.617 25.966 12.699 10.711 1.062 6.987-.504 15.089-5.353-.439-8.657.158-10.469 7.497-15.398 21.162-14.16 10.859-9.234 11.55-23.664l4.897-16.81c5.413-6.806 23.562-5.629 30.468-5.372 8.055.292 6.986 7.359 18.903 3.14 10.563-3.742 6.396-8.665 17.593-.897 3.85 2.672 4.94.785 9.4.843 4.271-.005 5.359 1.926 9.754 1.318 1.304-8.953 4.001-9.733 13.688-14.835 4.988-2.647 10.888 1.299 19.17 4.777 3.915-5.379 2.718-9.844 9.471-13.135 2.424-1.162 13.24-4.175 12.195-12.327-19.791-7.517-24.847.618-22.162-19.132-18.714-14.129-12.942-1.945-21.176-6.519-2.075-1.153-3.823-4.274-5.874-5.548-11.328-6.765-13.548 10.467-26.242-12.454-14.108 7.312-9.681 14.901-28.141 17.454-6.313.894-12.506 1.812-17.212-.231-1.036-.463-12.636-6.756-13.222-7.454-3.28-3.736-.101-4.417-4.358-6.695-2.99-1.592-5.623-.146-9.206.302-6.221.812-4.338-4.707-16.12-2.746-11.25 1.818-7.624-1.661-14.183-5.088-3.448-1.811-4.971-.264-8.209-1.504-2.997-1.191-3.503-3.506-5.502-5.648-10.857 1.371-12.757 7.464-20.59-.294-3.951-3.899-2.351-6.436-4.285-11.102-1.419-3.381-4.551-4.65-7.22-6.954-8.073-6.953-1.421-14.661-8.854-20.076-13.665-9.957-9.934 3.117-18.078 2.279-4.572-1.965-3.188-3.817-7.925-4.485-3.754 3-1.875 9.163-10.426 6.383-17.516-5.62-12.272-8.164-9.962-15.278-2.254-2.245-7.146-4.98-10.25-6.143-8.409-3.102-5.898.954-12.743 1.136-11.876.333-16.75 4.26-25.638-2.759-2.53-2-8.238-4.801-9.807-6.831-3.863-5.061-.893-8.649.211-12.819 2.844-11.075 2.417-15.861-1.812-27.604-17.047 7.188-11.45 22.554-27.45 21.314z" fill="#1E2D44" stroke="#A1ABB1" stroke-width=".418"/><circle cx="124.631" cy="397.667" r="14.634" fill="#A1ABB1"/><circle cx="124.631" cy="397.667" r="2.091" fill="#B1163D"/><circle cx="168.116" cy="414.392" r="14.634" fill="#A1ABB1"/><circle cx="168.116" cy="414.392" r="2.091" fill="#B1163D"/><circle cx="201.565" cy="340.802" r="14.634" fill="#A1ABB1"/><circle cx="201.565" cy="340.802" r="2.091" fill="#B1163D"/><circle cx="247.559" cy="310.698" r="14.634" fill="#A1ABB1"/><circle cx="247.558" cy="310.698" r="2.091" fill="#B1163D"/><circle cx="260.103" cy="231.254" r="14.634" fill="#A1ABB1"/><circle cx="260.102" cy="231.254" r="2.091" fill="#B1163D"/><circle cx="258.43" cy="400.176" r="14.634" fill="#A1ABB1"/><circle cx="258.429" cy="400.175" r="2.091" fill="#B1163D"/><path d="M267.632 315.917v-9.366h1.257v3.806h4.817v-3.806h1.258v9.366h-1.258v-4.402h-4.817v4.402h-1.257zm12.595.2c-.678 0-1.283-.158-1.813-.475a3.461 3.461 0 01-1.251-1.264 3.413 3.413 0 01-.455-1.739 3.442 3.442 0 01.997-2.442c.316-.326.689-.58 1.117-.763a3.535 3.535 0 011.405-.274c.682 0 1.289.158 1.819.475.531.317.948.738 1.251 1.264.304.527.455 1.106.455 1.74a3.459 3.459 0 01-.997 2.442 3.539 3.539 0 01-1.117.762 3.55 3.55 0 01-1.411.274zm0-1.11c.441 0 .831-.096 1.17-.288.344-.196.614-.47.81-.823.196-.356.294-.776.294-1.257 0-.486-.098-.906-.294-1.258a2.015 2.015 0 00-.803-.823 2.37 2.37 0 00-1.177-.288c-.442 0-.834.096-1.178.288a2.073 2.073 0 00-.803.823c-.191.352-.287.772-.287 1.258 0 .481.096.901.287 1.257.197.353.466.627.81.823.343.192.734.288 1.171.288zm4.631.91l2.602-3.312.234.816c-.562.005-1.032-.075-1.411-.24-.379-.165-.667-.397-.863-.696a1.946 1.946 0 01-.288-1.064c0-.433.112-.803.335-1.11.227-.308.544-.542.95-.703.41-.165.887-.247 1.431-.247h2.703v6.556h-1.198v-5.58h-1.398c-.522 0-.914.087-1.177.261-.263.174-.395.44-.395.796 0 .353.123.623.368.81.245.183.607.274 1.084.274h1.706v.943h-1.298l-1.947 2.496h-1.438zm10.981.2c-.553 0-1.05-.093-1.491-.281a3.041 3.041 0 01-1.131-.822 3.767 3.767 0 01-.709-1.325c-.161-.522-.241-1.117-.241-1.786 0-.732.054-1.39.161-1.974.107-.584.281-1.09.521-1.518.241-.433.558-.788.95-1.064.397-.281.883-.482 1.459-.602l3.137-.662.214 1.097-3.05.622c-.544.12-.97.312-1.278.575a2.258 2.258 0 00-.676.984c-.142.397-.236.86-.281 1.391a3.223 3.223 0 011.071-.997c.437-.254.95-.381 1.539-.381.633 0 1.188.152 1.665.455.482.299.859.7 1.131 1.204.272.5.408 1.053.408 1.659 0 .468-.08.91-.241 1.325-.16.415-.392.78-.696 1.097a3.31 3.31 0 01-1.077.736 3.473 3.473 0 01-1.385.267zm-.033-1.11a2.24 2.24 0 001.124-.281c.33-.192.589-.459.776-.803.187-.343.281-.749.281-1.217 0-.473-.094-.881-.281-1.225a1.995 1.995 0 00-.776-.796 2.217 2.217 0 00-1.124-.281c-.424 0-.801.094-1.131.281-.33.188-.588.453-.776.796-.187.344-.281.752-.281 1.225 0 .468.094.874.281 1.217.188.344.446.611.776.803.33.187.707.281 1.131.281zm5.042 3.72v-9.366h1.131v.983a3.181 3.181 0 011.023-.85c.415-.223.937-.334 1.566-.334.651 0 1.224.154 1.719.462a3.15 3.15 0 011.158 1.244c.281.526.421 1.117.421 1.773 0 .477-.08.927-.241 1.351a3.378 3.378 0 01-.675 1.111 3.246 3.246 0 01-1.051.749 3.278 3.278 0 01-1.344.267c-.554 0-1.037-.102-1.452-.307a3.165 3.165 0 01-1.03-.823v3.74h-1.225zm3.499-3.72c.442 0 .832-.096 1.171-.288.343-.196.611-.47.803-.823.196-.356.294-.776.294-1.257 0-.486-.098-.906-.294-1.258a2.015 2.015 0 00-.803-.823 2.334 2.334 0 00-1.171-.288 2.37 2.37 0 00-1.177.288 2.066 2.066 0 00-.803.823c-.196.352-.294.772-.294 1.258 0 .481.098.901.294 1.257.196.353.464.627.803.823a2.37 2.37 0 001.177.288zm5.06.91v-6.556h1.231v5.579h1.378c.531 0 .927-.098 1.191-.294.267-.201.401-.502.401-.903 0-.393-.125-.694-.375-.904-.245-.209-.611-.314-1.097-.314h-1.692v-.97h1.779c.83 0 1.481.189 1.954.569.477.374.715.914.715 1.619 0 .459-.115.851-.347 1.177a2.229 2.229 0 01-.97.743c-.415.169-.899.254-1.452.254h-2.716zm10.065.2c-.691 0-1.304-.151-1.84-.454a3.321 3.321 0 01-1.257-1.238c-.304-.526-.455-1.122-.455-1.786 0-.504.089-.968.267-1.392.183-.424.44-.791.77-1.104.33-.312.715-.553 1.157-.722a3.977 3.977 0 011.458-.261c.429 0 .823.056 1.185.167a3.26 3.26 0 011.003.515l-.629.95a1.973 1.973 0 00-.702-.388 2.678 2.678 0 00-.85-.134c-.49 0-.916.094-1.278.281a1.952 1.952 0 00-.829.803c-.196.353-.295.776-.295 1.271 0 .745.214 1.329.643 1.753.432.419 1.017.629 1.752.629.339 0 .656-.06.95-.181.295-.125.536-.285.723-.481l.635.936c-.343.259-.72.464-1.13.616-.41.147-.836.22-1.278.22zm8.233-.2l-2.215-3.499 1.987-3.057h1.325l-1.981 2.997 2.369 3.559h-1.485zm-4.396 0v-6.556h1.231v2.582h1.96v1.044h-1.96v2.93h-1.231zm-43.133-79.444v-9.366h1.257v3.807h4.817v-3.807h1.258v9.366h-1.258v-4.402h-4.817v4.402h-1.257zm12.595.201c-.678 0-1.283-.158-1.813-.475a3.469 3.469 0 01-1.251-1.264 3.417 3.417 0 01-.455-1.74 3.456 3.456 0 01.996-2.442c.317-.325.69-.579 1.118-.762a3.535 3.535 0 011.405-.274c.682 0 1.288.158 1.819.475.531.316.948.738 1.251 1.264.304.526.455 1.106.455 1.739a3.442 3.442 0 01-.997 2.442 3.558 3.558 0 01-1.117.763 3.554 3.554 0 01-1.411.274zm0-1.11c.441 0 .831-.096 1.17-.288.344-.196.614-.471.81-.823.196-.357.294-.776.294-1.258 0-.486-.098-.905-.294-1.257a2.015 2.015 0 00-.803-.823 2.37 2.37 0 00-1.177-.288c-.442 0-.834.096-1.178.288a2.073 2.073 0 00-.803.823c-.191.352-.287.771-.287 1.257 0 .482.096.901.287 1.258.197.352.466.627.81.823.343.192.733.288 1.171.288zm5.072.909v-6.556h3.011c.731 0 1.32.143 1.766.428.45.286.676.71.676 1.271 0 .25-.058.475-.174.676a1.545 1.545 0 01-.495.515 2.344 2.344 0 01-.756.308l-.02-.268c.557.09.983.286 1.277.589.299.299.449.674.449 1.124 0 .397-.105.738-.315 1.024-.205.285-.499.506-.883.662-.383.152-.841.227-1.371.227h-3.165zm1.198-.956h1.799c.482 0 .855-.081 1.118-.241a.79.79 0 00.401-.723c0-.321-.132-.559-.395-.715-.263-.161-.637-.241-1.124-.241h-1.986v-.93h1.833c.454 0 .807-.069 1.057-.208.249-.138.374-.368.374-.689 0-.316-.125-.544-.374-.682-.246-.143-.598-.214-1.057-.214h-1.646v4.643zm6.289.956v-6.556h1.231v5.58h1.311c.531 0 .928-.098 1.191-.295.268-.2.402-.501.402-.903 0-.392-.125-.693-.375-.903-.245-.21-.611-.314-1.097-.314h-1.626v-.97h1.713c.829 0 1.481.189 1.953.568.478.375.716.914.716 1.619 0 .46-.116.852-.348 1.178-.232.321-.555.568-.97.742-.415.17-.898.254-1.451.254h-2.65zm6.53 0v-6.556h1.231v6.556h-1.231zm3.362 0v-6.556h1.197v4.71l3.813-4.71h1.057v6.556h-1.197v-4.763l-3.847 4.763h-1.023zm3.03-7.76c-.477 0-.896-.103-1.258-.308a2.153 2.153 0 01-.836-.836 2.348 2.348 0 01-.274-1.224h1.05c-.018.437.094.791.335 1.064.24.267.568.401.983.401.415 0 .74-.134.977-.401.241-.273.35-.627.328-1.064h1.057c.009.455-.087.861-.288 1.217a2.138 2.138 0 01-.836.843 2.467 2.467 0 01-1.238.308zm8.848 7.908l-.528-1.164a4.827 4.827 0 001.351-.562 4.68 4.68 0 001.131-.984c.343-.406.658-.903.943-1.492l2.616-5.312h1.451l-2.856 5.613a12.651 12.651 0 01-.91 1.552 6.98 6.98 0 01-.95 1.131 4.93 4.93 0 01-1.044.763c-.37.196-.771.348-1.204.455zm2.757-3.212l-3.553-6.302h1.539l2.85 5.165-.836 1.137zm4.794 5.874v-9.366h1.131v.984a3.181 3.181 0 011.023-.85c.415-.223.937-.334 1.566-.334.651 0 1.224.153 1.719.461a3.14 3.14 0 011.157 1.244c.281.527.422 1.118.422 1.773 0 .478-.08.928-.241 1.352a3.35 3.35 0 01-.676 1.11 3.202 3.202 0 01-1.05.749c-.401.179-.85.268-1.345.268-.553 0-1.037-.102-1.451-.308a3.166 3.166 0 01-1.031-.823v3.74h-1.224zm3.499-3.719c.442 0 .832-.096 1.171-.288.343-.196.611-.471.803-.823.196-.357.294-.776.294-1.258 0-.486-.098-.905-.294-1.257a2.015 2.015 0 00-.803-.823 2.334 2.334 0 00-1.171-.288c-.442 0-.834.096-1.177.288a2.066 2.066 0 00-.803.823c-.196.352-.295.771-.295 1.257 0 .482.099.901.295 1.258.196.352.464.627.803.823.343.192.735.288 1.177.288zm8.075 1.11c-.696 0-1.309-.145-1.84-.435a3.157 3.157 0 01-1.244-1.211c-.299-.521-.448-1.128-.448-1.819 0-.5.085-.964.254-1.392.174-.428.415-.798.723-1.11a3.352 3.352 0 011.09-.73c.419-.173.874-.26 1.365-.26.531 0 1.003.093 1.418.281.419.187.765.45 1.037.789.277.334.475.729.595 1.184.121.451.145.941.074 1.472h-5.339c-.013.437.076.82.268 1.151.192.325.468.579.83.762.365.183.798.274 1.297.274.366 0 .723-.058 1.071-.173a2.75 2.75 0 00.923-.516l.522.917a3.145 3.145 0 01-.763.448c-.29.121-.593.212-.91.274a4.717 4.717 0 01-.923.094zm-2.248-4.188h4.041c-.018-.553-.189-.983-.515-1.291-.326-.312-.792-.468-1.398-.468-.589 0-1.075.156-1.459.468-.383.308-.606.738-.669 1.291zm6.863 3.987v-6.556h1.231v2.583h3.553v-2.583h1.231v6.556h-1.231v-2.93h-3.553v2.93h-1.231zm8.141 0v-6.556h4.248v1.044h-3.017v5.512h-1.231zm8.607.201c-.678 0-1.282-.158-1.813-.475a3.484 3.484 0 01-1.251-1.264 3.427 3.427 0 01-.455-1.74 3.459 3.459 0 01.997-2.442 3.422 3.422 0 011.117-.762 3.542 3.542 0 011.405-.274c.683 0 1.289.158 1.82.475.531.316.948.738 1.251 1.264.303.526.455 1.106.455 1.739a3.442 3.442 0 01-.997 2.442 3.57 3.57 0 01-1.117.763 3.556 3.556 0 01-1.412.274zm0-1.11c.442 0 .832-.096 1.171-.288.343-.196.613-.471.809-.823.197-.357.295-.776.295-1.258 0-.486-.098-.905-.295-1.257a2.007 2.007 0 00-.802-.823 2.374 2.374 0 00-1.178-.288 2.37 2.37 0 00-1.177.288 2.066 2.066 0 00-.803.823c-.192.352-.288.771-.288 1.257 0 .482.096.901.288 1.258.196.352.466.627.81.823.343.192.733.288 1.17.288zm5.073.909v-6.556h1.198v4.71l3.813-4.71h1.057v6.556h-1.198v-4.763l-3.846 4.763h-1.024zm3.031-7.76c-.478 0-.897-.103-1.258-.308a2.153 2.153 0 01-.836-.836 2.349 2.349 0 01-.275-1.224h1.051c-.018.437.093.791.334 1.064.241.267.569.401.984.401.414 0 .74-.134.976-.401.241-.273.35-.627.328-1.064h1.057c.009.455-.087.861-.288 1.217a2.138 2.138 0 01-.836.843 2.463 2.463 0 01-1.237.308zm-98.025 175.845v-9.366h1.258v3.807h4.816v-3.807h1.258v9.366h-1.258v-4.402h-4.816v4.402h-1.258zm9.658 0v-6.556h1.197v4.71l3.814-4.71h1.057v6.556h-1.198v-4.763l-3.847 4.763h-1.023zm11.698 0v-2.93h-1.786v-1.043h1.786v-2.583h1.231v2.583h1.773v1.043h-1.773v2.93h-1.231zm-4.241 0l2.107-3.485-1.806-3.071h1.351l1.786 3.058-2.02 3.498h-1.418zm8.248 0l-1.987-3.498 1.833-3.058h1.305l-1.806 2.997 2.127 3.559h-1.472zm2.862 0v-6.556h1.231v2.583h3.552v-2.583h1.231v6.556h-1.231v-2.93h-3.552v2.93h-1.231zm11.091.201c-.696 0-1.309-.145-1.84-.435a3.144 3.144 0 01-1.244-1.211c-.299-.521-.449-1.128-.449-1.819 0-.5.085-.964.255-1.392.174-.428.414-.798.722-1.11a3.356 3.356 0 011.091-.73 3.522 3.522 0 011.364-.261 3.42 3.42 0 011.419.281c.419.188.764.451 1.037.79.276.334.475.729.595 1.184.12.45.145.941.074 1.472h-5.339c-.013.437.076.82.268 1.15.191.326.468.58.829.763.366.183.798.274 1.298.274a3.36 3.36 0 001.07-.174c.348-.115.656-.287.924-.515l.521.917a3.157 3.157 0 01-.762.448c-.29.121-.593.212-.91.274a4.725 4.725 0 01-.923.094zm-2.248-4.188h4.041c-.018-.553-.19-.983-.516-1.291-.325-.312-.791-.468-1.398-.468-.588 0-1.075.156-1.458.468-.384.308-.607.738-.669 1.291zm6.863 3.987v-6.556h3.01c.732 0 1.32.143 1.766.428.451.286.676.709.676 1.271 0 .25-.058.475-.174.676a1.545 1.545 0 01-.495.515 2.344 2.344 0 01-.756.308l-.02-.268c.558.09.984.286 1.278.589.299.299.448.674.448 1.124 0 .397-.105.738-.314 1.024-.205.285-.5.506-.883.662-.384.152-.841.227-1.372.227h-3.164zm1.197-.956h1.8c.482 0 .854-.081 1.117-.241a.79.79 0 00.402-.723c0-.321-.132-.559-.395-.715-.263-.161-.638-.241-1.124-.241h-1.987v-.93h1.833c.455 0 .807-.069 1.057-.208.25-.138.375-.368.375-.689 0-.316-.125-.544-.375-.682-.245-.143-.598-.214-1.057-.214h-1.646v4.643zm9.08 1.157c-.661 0-1.245-.154-1.753-.462a3.243 3.243 0 01-1.191-1.244 3.661 3.661 0 01-.428-1.773c0-.49.082-.947.247-1.371.165-.424.397-.792.696-1.104a3.11 3.11 0 011.064-.736 3.424 3.424 0 011.365-.268c.66 0 1.208.139 1.645.415.437.277.779.629 1.024 1.057l-.181.268v-1.539h1.124v6.556h-1.124v-1.538l.181.261a3.067 3.067 0 01-1.024 1.063c-.437.277-.985.415-1.645.415zm.133-1.11a2.32 2.32 0 001.164-.288c.339-.196.605-.471.796-.823.197-.357.295-.776.295-1.258 0-.486-.098-.905-.295-1.257a2.012 2.012 0 00-.796-.823 2.32 2.32 0 00-1.164-.288 2.32 2.32 0 00-1.164.288 2.066 2.066 0 00-.803.823c-.196.352-.294.771-.294 1.257 0 .482.098.901.294 1.258.197.352.464.627.803.823a2.32 2.32 0 001.164.288zm5.609 3.719v-9.366h1.131v.984a3.181 3.181 0 011.023-.85c.415-.223.937-.335 1.566-.335.651 0 1.224.154 1.719.462a3.14 3.14 0 011.157 1.244c.281.527.422 1.118.422 1.773 0 .477-.08.928-.241 1.352a3.35 3.35 0 01-.676 1.11 3.202 3.202 0 01-1.05.749c-.401.179-.85.268-1.345.268-.553 0-1.037-.103-1.451-.308a3.166 3.166 0 01-1.031-.823v3.74h-1.224zm3.499-3.719c.441 0 .832-.096 1.171-.288.343-.196.611-.471.802-.823.197-.357.295-.776.295-1.258 0-.486-.098-.905-.295-1.257a2 2 0 00-.802-.823 2.337 2.337 0 00-1.171-.288c-.442 0-.834.096-1.177.288a2.06 2.06 0 00-.803.823c-.197.352-.295.771-.295 1.257 0 .482.098.901.295 1.258.196.352.464.627.803.823.343.192.735.288 1.177.288zm6.578.909v-5.512h-2.248v-1.044h5.734v1.044h-2.255v5.512h-1.231zm7.821.201c-.678 0-1.282-.158-1.813-.475a3.469 3.469 0 01-1.251-1.264 3.427 3.427 0 01-.455-1.74 3.459 3.459 0 01.997-2.442 3.412 3.412 0 011.117-.762 3.536 3.536 0 011.405-.275c.682 0 1.289.159 1.82.475.53.317.947.739 1.251 1.265.303.526.455 1.106.455 1.739a3.442 3.442 0 01-.997 2.442 3.57 3.57 0 01-1.117.763 3.56 3.56 0 01-1.412.274zm0-1.11c.441 0 .832-.096 1.171-.288.343-.196.613-.471.809-.823.196-.357.295-.776.295-1.258 0-.486-.099-.905-.295-1.257a2.003 2.003 0 00-.803-.823 2.37 2.37 0 00-1.177-.288c-.442 0-.834.096-1.178.288a2.064 2.064 0 00-.802.823c-.192.352-.288.771-.288 1.257 0 .482.096.901.288 1.258.196.352.466.627.809.823a2.36 2.36 0 001.171.288zm5.073.909v-6.556h3.01c.732 0 1.32.143 1.766.428.451.286.676.709.676 1.271 0 .25-.058.475-.174.676a1.545 1.545 0 01-.495.515 2.344 2.344 0 01-.756.308l-.02-.268c.557.09.983.286 1.278.589.299.299.448.674.448 1.124 0 .397-.105.738-.314 1.024-.206.285-.5.506-.884.662-.383.152-.84.227-1.371.227h-3.164zm1.197-.956h1.8c.481 0 .854-.081 1.117-.241a.789.789 0 00.401-.723c0-.321-.131-.559-.394-.715-.263-.161-.638-.241-1.124-.241h-1.987v-.93h1.833c.455 0 .807-.069 1.057-.208.25-.138.375-.368.375-.689 0-.316-.125-.544-.375-.682-.245-.143-.598-.214-1.057-.214h-1.646v4.643zm9.26 1.157c-.691 0-1.305-.152-1.84-.455a3.314 3.314 0 01-1.257-1.238c-.304-.526-.455-1.121-.455-1.786 0-.504.089-.968.267-1.391.183-.424.44-.792.77-1.104.33-.312.715-.553 1.157-.723a3.977 3.977 0 011.458-.261c.429 0 .823.056 1.184.168.362.111.696.283 1.004.515l-.629.95a1.973 1.973 0 00-.702-.388 2.678 2.678 0 00-.85-.134c-.491 0-.916.094-1.278.281a1.94 1.94 0 00-.829.803c-.197.352-.295.776-.295 1.271 0 .745.214 1.329.643 1.753.432.419 1.016.629 1.752.629.339 0 .656-.061.95-.181.295-.125.536-.286.723-.482l.635.937c-.343.258-.72.464-1.13.615a3.763 3.763 0 01-1.278.221zm8.233-.201l-2.215-3.498 1.987-3.058h1.325l-1.981 2.997 2.369 3.559h-1.485zm-4.396 0v-6.556h1.231v2.583h1.96v1.043h-1.96v2.93h-1.231zM.02 382.816l3.084-4.81-2.91-4.556h1.499l2.321 3.646 2.496-3.646h1.445l-3.084 4.596 3.184 4.77H6.55l-2.59-3.887-2.481 3.887H.02zm12.043.201c-.66 0-1.244-.154-1.752-.462a3.25 3.25 0 01-1.191-1.244 3.656 3.656 0 01-.428-1.773c0-.491.082-.948.247-1.371.165-.424.397-.792.696-1.104a3.115 3.115 0 011.064-.736c.414-.178.87-.268 1.364-.268.66 0 1.209.139 1.646.415.437.277.778.629 1.024 1.057l-.181.268v-1.539h1.124v6.556h-1.124v-1.539l.18.261a3.061 3.061 0 01-1.023 1.064c-.437.277-.986.415-1.646.415zm.134-1.111a2.33 2.33 0 001.164-.287 2.08 2.08 0 00.796-.823c.197-.357.295-.776.295-1.258 0-.486-.098-.905-.295-1.258a2.02 2.02 0 00-.796-.822 2.32 2.32 0 00-1.164-.288 2.32 2.32 0 00-1.164.288 2.064 2.064 0 00-.803.822c-.196.353-.294.772-.294 1.258 0 .482.098.901.294 1.258.197.352.464.626.803.823a2.33 2.33 0 001.164.287zm5.609.91v-6.556h1.23v2.582h3.553v-2.582h1.231v6.556h-1.23v-2.93h-3.553v2.93h-1.231zm9.659 0v-5.512h-2.248v-1.044h5.733v1.044h-2.254v5.512h-1.231zm4.884 0v-6.556h1.23v5.579h1.312c.53 0 .928-.098 1.19-.294.268-.201.402-.502.402-.903 0-.393-.125-.694-.374-.903-.246-.21-.611-.315-1.098-.315h-1.625v-.97h1.712c.83 0 1.481.19 1.954.569.477.375.716.914.716 1.619 0 .459-.116.852-.348 1.177a2.224 2.224 0 01-.97.743c-.415.169-.899.254-1.452.254h-2.65zm6.53 0v-6.556h1.23v6.556h-1.23zm3.134-3.224v-1.071h3.505v1.071h-3.505zm5.595 3.224v-9.366h1.225l3.906 6.322h-.481l3.773-6.322h1.19v9.366h-1.23l.013-7.653.248.08-3.345 5.466h-.97l-3.386-5.466.194-.08.014 7.653h-1.15zm14.735.201c-.66 0-1.245-.154-1.753-.462a3.25 3.25 0 01-1.191-1.244 3.657 3.657 0 01-.428-1.773c0-.491.082-.948.247-1.371.165-.424.397-.792.696-1.104a3.115 3.115 0 011.064-.736c.414-.178.87-.268 1.364-.268.66 0 1.21.139 1.646.415.437.277.778.629 1.024 1.057l-.18.268v-1.539h1.123v6.556h-1.124v-1.539l.18.261a3.062 3.062 0 01-1.023 1.064c-.437.277-.985.415-1.645.415zm.133-1.111a2.33 2.33 0 001.164-.287c.34-.197.605-.471.796-.823.197-.357.295-.776.295-1.258 0-.486-.098-.905-.294-1.258a2.021 2.021 0 00-.797-.822 2.32 2.32 0 00-1.164-.288 2.32 2.32 0 00-1.164.288 2.064 2.064 0 00-.802.822c-.197.353-.295.772-.295 1.258 0 .482.098.901.294 1.258.197.352.464.626.803.823a2.33 2.33 0 001.164.287zm5.61.91v-6.556h1.23v2.582h3.552v-2.582H74.1v6.556h-1.23v-2.93h-3.553v2.93h-1.23zm11.11.201c-.692 0-1.305-.152-1.84-.455a3.317 3.317 0 01-1.258-1.238c-.303-.526-.455-1.121-.455-1.786 0-.504.09-.968.268-1.391a3.3 3.3 0 01.77-1.104c.33-.312.715-.553 1.157-.723a3.978 3.978 0 011.458-.261c.428 0 .823.056 1.184.168.361.111.696.283 1.004.515l-.63.95a1.952 1.952 0 00-.702-.388 2.647 2.647 0 00-.85-.134c-.49 0-.916.094-1.277.281-.357.183-.633.45-.83.803-.196.352-.294.776-.294 1.271 0 .745.214 1.329.642 1.752.433.42 1.017.629 1.753.629.34 0 .656-.06.95-.18.294-.125.535-.286.723-.482l.635.937c-.343.258-.72.463-1.13.615a3.76 3.76 0 01-1.278.221zm3.837-.201v-6.556h1.198v4.71l3.813-4.71H89.1v6.556h-1.198v-4.763l-3.847 4.763h-1.023zm8.192 0v-6.556h1.198v4.71l3.813-4.71h1.057v6.556h-1.197v-4.763l-3.847 4.763h-1.023zm3.031-7.76c-.477 0-.896-.103-1.258-.308a2.154 2.154 0 01-.836-.836 2.353 2.353 0 01-.274-1.224h1.05c-.018.437.094.791.335 1.063.24.268.568.402.983.402.415 0 .74-.134.977-.402.24-.272.35-.626.328-1.063h1.057a2.34 2.34 0 01-.288 1.217 2.139 2.139 0 01-.836.843 2.463 2.463 0 01-1.238.308zm8.132 7.961c-.691 0-1.304-.152-1.839-.455a3.319 3.319 0 01-1.258-1.238c-.303-.526-.455-1.121-.455-1.786 0-.504.09-.968.268-1.391a3.3 3.3 0 01.769-1.104c.33-.312.716-.553 1.157-.723a3.983 3.983 0 011.459-.261c.428 0 .823.056 1.184.168.361.111.696.283 1.003.515l-.628.95a1.954 1.954 0 00-.703-.388 2.646 2.646 0 00-.85-.134c-.49 0-.916.094-1.277.281-.357.183-.634.45-.83.803-.196.352-.294.776-.294 1.271 0 .745.214 1.329.642 1.752.433.42 1.017.629 1.753.629.339 0 .655-.06.95-.18.294-.125.535-.286.722-.482l.636.937c-.344.258-.72.463-1.131.615-.41.147-.836.221-1.278.221zm8.233-.201l-2.214-3.499 1.987-3.057h1.324l-1.98 2.997 2.368 3.559h-1.485zm-4.395 0v-6.556h1.231v2.582h1.96v1.044h-1.96v2.93h-1.231zm-22.568 60.21v-9.366h1.258v3.806h4.817v-3.806h1.257v9.366h-1.257v-4.402h-4.817v4.402h-1.258zm12.608.2c-.695 0-1.309-.145-1.84-.435a3.15 3.15 0 01-1.244-1.21c-.299-.522-.448-1.129-.448-1.82 0-.5.085-.963.254-1.392.174-.428.415-.798.723-1.11a3.372 3.372 0 011.09-.729c.42-.174.874-.261 1.365-.261.53 0 1.004.093 1.418.281.42.187.765.45 1.037.789.277.335.475.729.596 1.184.12.451.145.941.073 1.472h-5.338c-.014.437.076.821.267 1.151.192.325.469.58.83.762.365.183.798.275 1.298.275.365 0 .722-.058 1.07-.174.348-.116.656-.288.923-.515l.522.916a3.124 3.124 0 01-.763.448c-.29.121-.593.212-.91.275a4.801 4.801 0 01-.923.093zm-2.248-4.188h4.041c-.018-.553-.19-.983-.515-1.291-.325-.312-.791-.468-1.398-.468-.589 0-1.075.156-1.459.468-.383.308-.606.738-.668 1.291zm10.254 6.797v-12.443h1.231v12.443h-1.231zm.609-2.635c-.888 0-1.673-.13-2.355-.388-.678-.264-1.209-.652-1.593-1.164-.379-.513-.568-1.147-.568-1.9 0-.759.192-1.394.575-1.907.384-.513.917-.899 1.599-1.157.682-.259 1.47-.388 2.362-.388.896 0 1.683.129 2.361.388.683.258 1.213.644 1.592 1.157.384.513.576 1.148.576 1.907 0 .566-.112 1.065-.335 1.498a2.973 2.973 0 01-.936 1.077c-.406.29-.888.509-1.445.656a7.128 7.128 0 01-1.833.221zm.02-1.044c.677 0 1.262-.089 1.752-.268.491-.178.868-.446 1.131-.802.263-.357.395-.803.395-1.338 0-.54-.136-.988-.408-1.345-.268-.357-.649-.625-1.144-.803-.495-.178-1.077-.268-1.746-.268s-1.249.09-1.74.268c-.486.178-.865.446-1.137.803-.268.357-.402.805-.402 1.345 0 .535.134.981.402 1.338.272.356.653.624 1.144.802.495.179 1.079.268 1.753.268zm7.586.87v-5.513h-2.248v-1.044h5.734v1.044h-2.255v5.513h-1.231zm7.834.2c-.695 0-1.309-.145-1.839-.435a3.15 3.15 0 01-1.245-1.21c-.298-.522-.448-1.129-.448-1.82 0-.5.085-.963.254-1.392.174-.428.415-.798.723-1.11a3.376 3.376 0 011.09-.729c.42-.174.874-.261 1.365-.261.531 0 1.004.093 1.418.281.42.187.765.45 1.037.789.277.335.475.729.596 1.184.12.451.145.941.073 1.472h-5.338c-.014.437.076.821.267 1.151.192.325.469.58.83.762.366.183.798.275 1.298.275.365 0 .722-.058 1.07-.174.348-.116.656-.288.923-.515l.522.916a3.113 3.113 0 01-.763.448 4.81 4.81 0 01-1.833.368zm-2.247-4.188h4.04c-.017-.553-.189-.983-.515-1.291-.325-.312-.791-.468-1.398-.468-.589 0-1.075.156-1.458.468-.384.308-.607.738-.669 1.291zm6.863 3.988v-6.557h1.231l-.014 2.583h2.261v1.043h-2.261l.014 2.931h-1.231zm6.275.2c-.678 0-1.282-.158-1.813-.475a3.461 3.461 0 01-1.251-1.264 3.413 3.413 0 01-.455-1.739 3.438 3.438 0 01.997-2.442c.316-.326.689-.58 1.117-.763a3.535 3.535 0 011.405-.274c.682 0 1.289.158 1.819.475.531.316.948.738 1.251 1.264.304.526.455 1.106.455 1.74a3.457 3.457 0 01-.996 2.441 3.54 3.54 0 01-1.118.763 3.55 3.55 0 01-1.411.274zm0-1.11a2.33 2.33 0 001.17-.288c.344-.196.614-.47.81-.823.196-.357.294-.776.294-1.257 0-.487-.098-.906-.294-1.258a2.05 2.05 0 00-.81-.823 2.33 2.33 0 00-1.17-.288c-.442 0-.834.096-1.178.288a2.064 2.064 0 00-.802.823c-.192.352-.288.771-.288 1.258 0 .481.096.9.288 1.257.196.353.466.627.809.823.343.192.734.288 1.171.288zm5.066.91v-6.557h4.248v1.044h-3.017v5.513h-1.231zm8.461.2c-.66 0-1.245-.154-1.753-.461a3.252 3.252 0 01-1.191-1.245 3.66 3.66 0 01-.428-1.772c0-.491.082-.948.247-1.372.165-.424.397-.792.696-1.104a3.134 3.134 0 011.064-.736c.415-.178.87-.267 1.365-.267.66 0 1.208.138 1.645.415a3 3 0 011.024 1.057l-.181.267v-1.539h1.124v6.557h-1.124v-1.539l.181.261a3.07 3.07 0 01-1.024 1.064c-.437.276-.985.414-1.645.414zm.133-1.11c.437 0 .826-.096 1.164-.288.339-.196.605-.47.797-.823.196-.357.294-.776.294-1.257 0-.487-.098-.906-.294-1.258a2.026 2.026 0 00-.797-.823 2.318 2.318 0 00-1.164-.288 2.32 2.32 0 00-1.164.288 2.064 2.064 0 00-.802.823c-.197.352-.295.771-.295 1.258 0 .481.098.9.295 1.257.196.353.463.627.802.823a2.32 2.32 0 001.164.288zm5.609.91v-6.557h1.231v2.583h3.553v-2.583h1.23v6.557h-1.23v-2.931h-3.553v2.931h-1.231zm11.111.2c-.691 0-1.305-.151-1.84-.455a3.321 3.321 0 01-1.258-1.237 3.517 3.517 0 01-.455-1.786c0-.504.09-.968.268-1.392.183-.424.439-.792.769-1.104a3.47 3.47 0 011.158-.722 3.977 3.977 0 011.458-.261c.428 0 .823.056 1.184.167.362.112.696.283 1.004.515l-.629.95a1.973 1.973 0 00-.702-.388 2.678 2.678 0 00-.85-.134c-.491 0-.917.094-1.278.281a1.946 1.946 0 00-.829.803c-.197.352-.295.776-.295 1.271 0 .745.214 1.329.642 1.753.433.419 1.017.629 1.753.629.339 0 .656-.06.95-.181.295-.125.535-.285.723-.482l.635.937c-.343.259-.72.464-1.13.616-.411.147-.837.22-1.278.22zm8.232-.2l-2.214-3.499 1.987-3.058h1.325l-1.981 2.998 2.369 3.559h-1.486zm-4.395 0v-6.557h1.231v2.583h1.96v1.043h-1.96v2.931h-1.231zm-29.964-112.893l-3.86-4.978 3.405-4.388h1.539l-3.412 4.375 3.954 4.991h-1.626zm-5.813 0v-9.366h1.257v3.806h1.726v1.158h-1.726v4.402h-1.257zm11.471.201c-.678 0-1.282-.159-1.813-.475a3.472 3.472 0 01-1.251-1.265 3.423 3.423 0 01-.455-1.739 3.442 3.442 0 01.997-2.442c.316-.326.689-.58 1.117-.763a3.535 3.535 0 011.405-.274c.682 0 1.289.158 1.82.475.53.317.947.738 1.251 1.264.303.527.455 1.106.455 1.74 0 .468-.087.912-.261 1.331a3.475 3.475 0 01-3.265 2.148zm0-1.111c.441 0 .832-.096 1.171-.288.343-.196.613-.47.809-.823.196-.356.295-.776.295-1.257 0-.486-.099-.906-.295-1.258a2.01 2.01 0 00-.803-.823 2.37 2.37 0 00-1.177-.288c-.442 0-.834.096-1.178.288a2.07 2.07 0 00-.802.823c-.192.352-.288.772-.288 1.258 0 .481.096.901.288 1.257.196.353.466.627.809.823a2.36 2.36 0 001.171.288zm5.073.91v-6.556h4.248v1.043h-3.017v5.513h-1.231zm8.46.201c-.66 0-1.244-.154-1.753-.462a3.261 3.261 0 01-1.19-1.244 3.656 3.656 0 01-.429-1.773c0-.491.083-.948.248-1.372.165-.423.397-.791.696-1.104a3.114 3.114 0 011.063-.735 3.41 3.41 0 011.365-.268c.66 0 1.209.138 1.646.415.437.276.778.629 1.023 1.057l-.18.267v-1.538h1.124v6.556h-1.124v-1.539l.18.261a3.067 3.067 0 01-1.023 1.064c-.437.276-.986.415-1.646.415zm.134-1.111a2.32 2.32 0 001.164-.288c.339-.196.604-.47.796-.823.196-.356.294-.776.294-1.257 0-.486-.098-.906-.294-1.258a2.024 2.024 0 00-.796-.823 2.32 2.32 0 00-1.164-.288 2.32 2.32 0 00-1.164.288 2.066 2.066 0 00-.803.823c-.196.352-.294.772-.294 1.258 0 .481.098.901.294 1.257.196.353.464.627.803.823a2.32 2.32 0 001.164.288zm5.288 1.01l-.455-1.13c.459-.116.794-.301 1.003-.556.21-.258.344-.622.402-1.09a15.44 15.44 0 00.087-1.827v-2.053h5.171v6.556h-1.231v-5.513h-2.776v1.01c0 .714-.032 1.334-.094 1.86-.058.522-.167.964-.328 1.325a2.272 2.272 0 01-.669.89c-.285.227-.655.403-1.11.528zm8.33-.1v-6.556h1.231v5.579h1.312c.53 0 .927-.098 1.19-.294.268-.201.402-.502.402-.903 0-.393-.125-.694-.375-.904-.245-.209-.611-.314-1.097-.314h-1.626v-.97h1.713c.83 0 1.481.19 1.953.569.478.374.716.914.716 1.619 0 .459-.116.851-.348 1.177a2.223 2.223 0 01-.97.743c-.414.169-.898.254-1.451.254h-2.65zm6.53 0v-6.556h1.231v6.556h-1.231zm3.362 0v-6.556h1.117l3.037 4.321-.535.014 2.903-4.335h1.104v6.556h-1.144l.014-5.051.227.1-2.489 3.573h-.836l-2.589-3.586.221-.1.013 5.064H178.3z" fill="#fff"/><circle cx="207.837" cy="403.938" r="20.906" fill="#B1163D"/><circle cx="207.419" cy="404.356" r="2.091" fill="#fff"/><circle cx="84.909" cy="501.779" r="20.906" fill="#B1163D"/><circle cx="84.491" cy="502.197" r="2.091" fill="#fff"/><path fill="#fff" d="M39.355 544.239h335v130h-335z"/><path d="M70.633 583.239v-9.09h6.156v2.106h-3.528v6.984h-2.628zm8.019.27c-.456 0-.852-.144-1.188-.432-.33-.294-.495-.684-.495-1.17 0-.33.075-.615.225-.855.156-.24.36-.426.612-.558a1.83 1.83 0 01.846-.198c.462 0 .858.147 1.188.441.336.288.504.678.504 1.17 0 .33-.078.615-.234.855-.156.24-.363.423-.621.549a1.776 1.776 0 01-.837.198zm14.104 0c-1.302 0-2.448-.267-3.438-.801a5.785 5.785 0 01-2.313-2.277c-.552-.984-.828-2.139-.828-3.465 0-.966.162-1.851.486-2.655a6.12 6.12 0 011.377-2.088 6.106 6.106 0 012.097-1.368c.81-.324 1.695-.486 2.655-.486 1.02 0 1.884.129 2.592.387a6.387 6.387 0 011.908 1.089l-1.35 2.187a3.526 3.526 0 00-1.305-.81 4.87 4.87 0 00-1.665-.27c-.624 0-1.185.093-1.683.279a3.512 3.512 0 00-1.26.801 3.484 3.484 0 00-.792 1.251c-.18.486-.27 1.035-.27 1.647 0 .84.162 1.557.486 2.151a3.37 3.37 0 001.404 1.359c.612.318 1.341.477 2.187.477a5.65 5.65 0 001.728-.27 5.068 5.068 0 001.611-.864l1.224 2.241a7.172 7.172 0 01-2.088 1.089c-.798.264-1.719.396-2.763.396zm7.673 3.753c-.384 0-.762-.039-1.134-.117a3.827 3.827 0 01-1.053-.387l.567-2.214c.192.108.402.192.63.252.234.06.45.09.648.09.36 0 .657-.078.891-.234.234-.156.408-.411.522-.765l.189-.576-3.546-9.162h2.853l2.178 6.498 2.115-6.498h2.781l-3.816 10.125c-.3.756-.645 1.35-1.035 1.782-.39.438-.819.747-1.287.927a4.032 4.032 0 01-1.503.279zm9.016-.243v-12.87h2.286v1.116a3.839 3.839 0 011.323-.999c.54-.258 1.179-.387 1.917-.387.876 0 1.656.204 2.34.612a4.251 4.251 0 011.611 1.692c.39.726.585 1.563.585 2.511 0 .678-.114 1.308-.342 1.89a4.652 4.652 0 01-.945 1.53c-.408.438-.891.78-1.449 1.026a4.524 4.524 0 01-1.845.369 4.188 4.188 0 01-1.611-.297 3.85 3.85 0 01-1.251-.837v4.644h-2.619zm5.04-5.787c.468 0 .885-.102 1.251-.306.372-.21.66-.504.864-.882.21-.378.315-.828.315-1.35 0-.522-.105-.972-.315-1.35a2.2 2.2 0 00-.864-.873 2.468 2.468 0 00-1.251-.315 2.45 2.45 0 00-1.242.315 2.2 2.2 0 00-.864.873c-.21.378-.315.828-.315 1.35 0 .522.102.972.306 1.35.21.378.498.672.864.882.366.204.783.306 1.251.306zm6.826 2.007v-9.09h6.156v2.106h-3.528v6.984h-2.628zm9.264 4.023c-.384 0-.762-.039-1.134-.117a3.827 3.827 0 01-1.053-.387l.567-2.214c.192.108.402.192.63.252.234.06.45.09.648.09.36 0 .657-.078.891-.234.234-.156.408-.411.522-.765l.189-.576-3.546-9.162h2.853l2.178 6.498 2.115-6.498h2.781l-3.816 10.125c-.3.756-.645 1.35-1.035 1.782-.39.438-.819.747-1.287.927a4.032 4.032 0 01-1.503.279zm11.162-4.023v-6.984h-2.745v-2.106h8.109v2.106h-2.736v6.984h-2.628zm-66.558 31.21a5.397 5.397 0 01-2.051-.385 5.105 5.105 0 01-1.638-1.085 5.04 5.04 0 01-1.085-1.624 5.225 5.225 0 01-.385-2.016c0-.728.128-1.403.385-2.023a5.03 5.03 0 011.085-1.624 4.99 4.99 0 011.638-1.078 5.378 5.378 0 012.051-.385c.733 0 1.412.13 2.037.392a5.029 5.029 0 011.638 1.092c.467.466.828 1.01 1.085 1.631a5.06 5.06 0 01.392 1.995c0 .723-.13 1.395-.392 2.016a4.897 4.897 0 01-1.085 1.624 5.107 5.107 0 01-1.638 1.085 5.326 5.326 0 01-2.037.385zm0-1.484c.495 0 .954-.084 1.379-.252.43-.173.803-.418 1.12-.735.317-.322.565-.705.742-1.148.182-.448.273-.945.273-1.491 0-.733-.156-1.37-.469-1.911a3.252 3.252 0 00-1.26-1.267 3.58 3.58 0 00-1.785-.448 3.67 3.67 0 00-1.386.259c-.425.168-.798.41-1.12.728a3.42 3.42 0 00-.749 1.148 3.98 3.98 0 00-.266 1.491c0 .732.156 1.372.469 1.918.313.541.733.961 1.26 1.26.532.298 1.13.448 1.792.448zm10.368 4.214v-13.02h1.54v13.02h-1.54zm.756-2.758c-.97 0-1.82-.138-2.548-.413-.724-.28-1.286-.691-1.687-1.232-.402-.546-.602-1.214-.602-2.002 0-.794.2-1.461.602-2.002.406-.542.975-.95 1.708-1.225.732-.28 1.586-.42 2.562-.42.984 0 1.838.137 2.562.413.728.275 1.292.683 1.694 1.225.401.541.602 1.211.602 2.009 0 .592-.117 1.117-.35 1.575a3.17 3.17 0 01-1.001 1.141c-.434.308-.95.541-1.547.7a7.993 7.993 0 01-1.995.231zm.028-1.274c.714 0 1.316-.089 1.806-.266.494-.178.87-.441 1.127-.791.256-.35.385-.789.385-1.316 0-.528-.133-.966-.4-1.316-.26-.355-.64-.619-1.14-.791-.495-.178-1.095-.266-1.8-.266-.7 0-1.297.088-1.791.266-.495.172-.873.436-1.134.791-.262.35-.392.788-.392 1.316 0 .527.13.966.392 1.316.266.35.646.613 1.14.791.5.177 1.102.266 1.807.266zm6.407 1.092v-6.93h1.492v4.676l3.758-4.676h1.344v6.93H97.85v-4.732l-3.794 4.732h-1.317zm11.915.21c-.728 0-1.377-.159-1.946-.476a3.58 3.58 0 01-1.344-1.309c-.322-.556-.483-1.186-.483-1.89 0-.532.095-1.02.287-1.463a3.46 3.46 0 01.812-1.169c.35-.332.76-.588 1.232-.77a4.293 4.293 0 011.547-.273c.466 0 .898.063 1.295.189.401.121.77.31 1.106.567l-.742 1.176a2.088 2.088 0 00-.742-.427 2.717 2.717 0 00-.882-.14c-.486 0-.903.091-1.253.273-.35.182-.623.445-.819.791-.192.34-.287.753-.287 1.239 0 .723.21 1.29.63 1.701.424.41 1.001.616 1.729.616.345 0 .672-.063.98-.189a2.35 2.35 0 00.77-.511l.735 1.169c-.369.28-.78.499-1.232.658a4.2 4.2 0 01-1.393.238zm7.472-.21v-6.93h1.491v4.676l3.759-4.676h1.344v6.93h-1.484v-4.732l-3.794 4.732h-1.316zm15.346.21c-.728 0-1.376-.159-1.946-.476a3.594 3.594 0 01-1.344-1.309c-.322-.556-.483-1.186-.483-1.89 0-.532.096-1.02.287-1.463.192-.448.462-.838.812-1.169.35-.332.761-.588 1.232-.77a4.297 4.297 0 011.547-.273c.467 0 .899.063 1.295.189.402.121.77.31 1.106.567l-.742 1.176a2.08 2.08 0 00-.742-.427 2.708 2.708 0 00-.882-.14c-.485 0-.903.091-1.253.273-.35.182-.623.445-.819.791-.191.34-.287.753-.287 1.239 0 .723.21 1.29.63 1.701.425.41 1.001.616 1.729.616.346 0 .672-.063.98-.189.308-.131.565-.301.77-.511l.735 1.169c-.368.28-.779.499-1.232.658a4.196 4.196 0 01-1.393.238zm8.647-.21l-2.296-3.682 2.135-3.248h1.645l-2.121 3.178 2.478 3.752h-1.841zm-4.606 0v-6.93h1.54v2.674h2.086v1.274h-2.086v2.982h-1.54zm7.555.119l-.539-1.386c.476-.122.823-.313 1.043-.574.224-.262.364-.626.42-1.092.06-.467.091-1.069.091-1.806v-2.191h5.635v6.93h-1.54v-5.656h-2.66v.917a15.6 15.6 0 01-.105 1.939c-.066.55-.187 1.019-.364 1.407a2.493 2.493 0 01-.749.952c-.318.242-.728.429-1.232.56zm11.729.091c-.69 0-1.302-.159-1.834-.476a3.475 3.475 0 01-1.246-1.309c-.298-.556-.448-1.186-.448-1.89 0-.528.087-1.015.259-1.463.173-.448.416-.838.728-1.169a3.24 3.24 0 011.12-.77 3.639 3.639 0 011.421-.273c.682 0 1.251.144 1.708.434.462.289.815.662 1.057 1.12l-.217.329v-1.673h1.372v6.93h-1.372v-1.673l.217.329a2.93 2.93 0 01-1.057 1.12c-.457.289-1.026.434-1.708.434zm.203-1.365c.42 0 .796-.094 1.127-.28.332-.192.591-.46.777-.805.192-.346.287-.754.287-1.225 0-.472-.095-.88-.287-1.225a1.947 1.947 0 00-.777-.805 2.251 2.251 0 00-1.127-.28 2.27 2.27 0 00-1.134.28 2.023 2.023 0 00-.777.805c-.191.345-.287.753-.287 1.225 0 .471.096.879.287 1.225.192.345.451.613.777.805.332.186.71.28 1.134.28zm10.894 1.155v-5.656h-2.8v.917c0 .63-.038 1.199-.112 1.708a4.526 4.526 0 01-.399 1.344c-.192.382-.46.7-.805.952-.341.252-.777.436-1.309.553l-.378-1.043c.443-.108.777-.308 1.001-.602.224-.294.373-.682.448-1.162.079-.486.119-1.069.119-1.75v-2.191h5.775v6.93h-1.54zm-5.803 2.1v-3.325l.952.098.238-.147h7.546v3.374h-1.407v-2.1h-5.922v2.1h-1.407zm13.162-1.89c-.728 0-1.376-.159-1.946-.476a3.594 3.594 0 01-1.344-1.309c-.322-.556-.483-1.186-.483-1.89 0-.532.096-1.02.287-1.463.192-.448.462-.838.812-1.169.35-.332.761-.588 1.232-.77a4.297 4.297 0 011.547-.273c.467 0 .899.063 1.295.189.402.121.77.31 1.106.567l-.742 1.176a2.08 2.08 0 00-.742-.427 2.708 2.708 0 00-.882-.14c-.485 0-.903.091-1.253.273-.35.182-.623.445-.819.791-.191.34-.287.753-.287 1.239 0 .723.21 1.29.63 1.701.425.41 1.001.616 1.729.616.346 0 .672-.063.98-.189.308-.131.565-.301.77-.511l.735 1.169c-.368.28-.779.499-1.232.658a4.196 4.196 0 01-1.393.238zm8.647-.21l-2.296-3.682 2.135-3.248h1.645l-2.121 3.178 2.478 3.752h-1.841zm-4.606 0v-6.93h1.54v2.674h2.086v1.274h-2.086v2.982h-1.54zm7.807 0v-6.93h1.491v4.676l3.759-4.676h1.344v6.93h-1.484v-4.732l-3.794 4.732H181.1zm11.9.21c-.747 0-1.402-.152-1.967-.455a3.346 3.346 0 01-1.323-1.288c-.313-.551-.469-1.19-.469-1.918 0-.532.091-1.022.273-1.47a3.475 3.475 0 011.932-1.946 3.852 3.852 0 011.463-.273c.574 0 1.085.102 1.533.308.448.2.819.483 1.113.847.299.364.509.791.63 1.281.126.485.147 1.012.063 1.582h-5.53a1.97 1.97 0 00.273 1.092c.191.308.464.548.819.721.359.172.782.259 1.267.259.392 0 .77-.059 1.134-.175a3.297 3.297 0 001.001-.532l.595 1.106a3.243 3.243 0 01-.812.469 5.467 5.467 0 01-.994.287c-.345.07-.679.105-1.001.105zm-2.191-4.466h3.927c-.014-.523-.182-.934-.504-1.232-.317-.299-.77-.448-1.358-.448-.569 0-1.043.149-1.421.448-.373.298-.588.709-.644 1.232zm10.47 4.256v-6.93h6.545v6.93h-1.54v-5.656h-3.465v5.656h-1.54zm11.839.21c-.723 0-1.37-.166-1.939-.497a3.69 3.69 0 01-1.33-1.337 3.63 3.63 0 01-.483-1.841 3.613 3.613 0 011.057-2.576c.341-.341.74-.609 1.197-.805a3.78 3.78 0 011.505-.294c.723 0 1.367.168 1.932.504a3.604 3.604 0 011.337 1.337c.322.555.483 1.166.483 1.834 0 .49-.093.956-.28 1.4a3.62 3.62 0 01-.777 1.176 3.713 3.713 0 01-2.702 1.099zm0-1.365c.429 0 .81-.094 1.141-.28.336-.192.6-.46.791-.805.191-.346.287-.754.287-1.225 0-.472-.096-.88-.287-1.225a1.985 1.985 0 00-.791-.805 2.28 2.28 0 00-1.141-.28c-.429 0-.812.093-1.148.28a2 2 0 00-.784.805c-.187.345-.28.753-.28 1.225 0 .471.096.879.287 1.225.191.345.453.613.784.805.336.186.716.28 1.141.28zm5.306 1.155v-6.93h1.379l3.108 4.494-.665.014 2.954-4.508h1.365v6.93h-1.4l.021-5.124.287.126-2.478 3.619h-.994l-2.59-3.626.287-.126.021 5.131h-1.295zm13.445.21c-.746 0-1.402-.152-1.967-.455a3.359 3.359 0 01-1.323-1.288c-.312-.551-.469-1.19-.469-1.918 0-.532.091-1.022.273-1.47a3.475 3.475 0 011.932-1.946 3.852 3.852 0 011.463-.273c.574 0 1.085.102 1.533.308.448.2.819.483 1.113.847.299.364.509.791.63 1.281.126.485.147 1.012.063 1.582h-5.53a1.97 1.97 0 00.273 1.092c.192.308.465.548.819.721.36.172.782.259 1.267.259.392 0 .77-.059 1.134-.175a3.286 3.286 0 001.001-.532l.595 1.106a3.225 3.225 0 01-.812.469 5.444 5.444 0 01-.994.287c-.345.07-.679.105-1.001.105zm-2.191-4.466h3.927c-.014-.523-.182-.934-.504-1.232-.317-.299-.77-.448-1.358-.448-.569 0-1.043.149-1.421.448-.373.298-.588.709-.644 1.232zm17.728 6.356v-2.1h-1.134v-1.274h2.548v3.374h-1.414zm-10.689-2.1v-6.93h1.491v5.656h2.926v-5.656h1.491v5.656h2.926v-5.656h1.491v6.93h-10.325zm16.521.21c-.746 0-1.402-.152-1.967-.455a3.359 3.359 0 01-1.323-1.288c-.312-.551-.469-1.19-.469-1.918 0-.532.091-1.022.273-1.47a3.475 3.475 0 011.932-1.946 3.852 3.852 0 011.463-.273c.574 0 1.085.102 1.533.308.448.2.819.483 1.113.847.299.364.509.791.63 1.281.126.485.147 1.012.063 1.582h-5.53a1.97 1.97 0 00.273 1.092c.192.308.465.548.819.721.36.172.782.259 1.267.259.392 0 .77-.059 1.134-.175a3.286 3.286 0 001.001-.532l.595 1.106a3.225 3.225 0 01-.812.469 5.444 5.444 0 01-.994.287c-.345.07-.679.105-1.001.105zm-2.191-4.466h3.927c-.014-.523-.182-.934-.504-1.232-.317-.299-.77-.448-1.358-.448-.569 0-1.043.149-1.421.448-.373.298-.588.709-.644 1.232zm7.039 4.256v-6.93h1.54v2.674h3.472v-2.674h1.54v6.93h-1.54v-2.982h-3.472v2.982h-1.54zm8.695 0v-6.93h1.491v4.676l3.759-4.676h1.344v6.93h-1.484v-4.732l-3.794 4.732h-1.316zm8.254 0l2.66-3.549.336.994c-.574.004-1.064-.08-1.47-.252-.406-.178-.717-.425-.931-.742-.21-.322-.315-.703-.315-1.141 0-.472.119-.873.357-1.204.238-.336.574-.593 1.008-.77.434-.178.942-.266 1.526-.266h2.989v6.93h-1.484v-5.761h-1.351c-.495 0-.871.086-1.127.259-.252.172-.378.431-.378.777 0 .336.116.597.35.784.238.182.581.273 1.029.273h1.673v1.12h-1.218l-1.897 2.548h-1.757zm-201.452 20.21c-.723 0-1.37-.166-1.939-.497a3.692 3.692 0 01-1.33-1.337 3.63 3.63 0 01-.483-1.841 3.613 3.613 0 011.057-2.576c.34-.341.74-.609 1.197-.805a3.78 3.78 0 011.505-.294c.723 0 1.367.168 1.932.504.57.331 1.015.777 1.337 1.337.322.555.483 1.166.483 1.834 0 .49-.093.956-.28 1.4a3.62 3.62 0 01-.777 1.176 3.71 3.71 0 01-2.702 1.099zm0-1.365c.43 0 .81-.094 1.141-.28.336-.192.6-.46.791-.805.191-.346.287-.754.287-1.225 0-.472-.096-.88-.287-1.225a1.987 1.987 0 00-.791-.805 2.281 2.281 0 00-1.141-.28c-.43 0-.812.093-1.148.28a2 2 0 00-.784.805c-.187.345-.28.753-.28 1.225 0 .471.096.879.287 1.225.191.345.453.613.784.805.336.186.716.28 1.141.28zm8.694 1.365c-.584 0-1.11-.101-1.582-.301a3.299 3.299 0 01-1.204-.868 3.975 3.975 0 01-.763-1.393c-.173-.551-.26-1.176-.26-1.876 0-.77.06-1.461.176-2.072.121-.612.31-1.141.567-1.589a3.38 3.38 0 011.029-1.106c.43-.29.95-.497 1.56-.623l3.319-.672.252 1.337-3.227.623c-.541.112-.966.291-1.274.539a2.168 2.168 0 00-.68.945c-.144.382-.24.833-.286 1.351a3.32 3.32 0 011.099-.952c.439-.238.95-.357 1.533-.357.658 0 1.239.156 1.743.469a3.27 3.27 0 011.19 1.239c.285.518.427 1.092.427 1.722 0 .49-.087.952-.26 1.386a3.388 3.388 0 01-.734 1.148 3.514 3.514 0 01-1.148.77c-.444.186-.936.28-1.477.28zm-.035-1.365a2.19 2.19 0 001.085-.266c.322-.182.574-.437.756-.763.182-.332.273-.724.273-1.176 0-.453-.091-.843-.273-1.169a1.883 1.883 0 00-.756-.763 2.142 2.142 0 00-1.085-.273c-.406 0-.77.091-1.092.273a1.895 1.895 0 00-.75.763c-.181.326-.272.716-.272 1.169 0 .452.09.844.273 1.176.182.326.431.581.749.763a2.23 2.23 0 001.092.266zm15.963 3.255v-2.1H97.07v-1.274h2.548v3.374h-1.414zm-10.69-2.1v-6.93h1.492v5.656h2.926v-5.656h1.49v5.656h2.927v-5.656h1.49v6.93H87.517zm16.522.21c-.746 0-1.402-.152-1.967-.455a3.359 3.359 0 01-1.323-1.288c-.312-.551-.469-1.19-.469-1.918 0-.532.091-1.022.273-1.47a3.475 3.475 0 011.932-1.946 3.852 3.852 0 011.463-.273c.574 0 1.085.102 1.533.308.448.2.819.483 1.113.847.299.364.509.791.63 1.281.126.485.147 1.012.063 1.582h-5.53a1.97 1.97 0 00.273 1.092c.192.308.465.548.819.721.36.172.782.259 1.267.259.392 0 .77-.059 1.134-.175a3.286 3.286 0 001.001-.532l.595 1.106a3.225 3.225 0 01-.812.469 5.444 5.444 0 01-.994.287c-.345.07-.679.105-1.001.105zm-2.191-4.466h3.927c-.014-.523-.182-.934-.504-1.232-.317-.299-.77-.448-1.358-.448-.569 0-1.043.149-1.421.448-.373.298-.588.709-.644 1.232zm7.039 4.256v-6.93h1.491v4.676l3.759-4.676h1.344v6.93h-1.484v-4.732l-3.794 4.732h-1.316zm3.297-8.12c-.518 0-.973-.108-1.365-.322a2.29 2.29 0 01-.91-.889c-.215-.378-.315-.812-.301-1.302h1.288c-.019.429.089.777.322 1.043.238.261.56.392.966.392.406 0 .726-.131.959-.392.233-.266.338-.614.315-1.043h1.295c.009.485-.096.917-.315 1.295a2.34 2.34 0 01-.91.896c-.387.214-.835.322-1.344.322zm8.871 8.12v-6.93h6.545v6.93h-1.54v-5.656h-3.465v5.656h-1.54zm8.43.119l-.539-1.386c.476-.122.823-.313 1.043-.574.224-.262.364-.626.42-1.092.06-.467.091-1.069.091-1.806v-2.191h5.635v6.93h-1.54v-5.656h-2.66v.917a15.6 15.6 0 01-.105 1.939c-.066.55-.187 1.019-.364 1.407a2.493 2.493 0 01-.749.952c-.318.242-.728.429-1.232.56zm11.953.091c-.723 0-1.369-.166-1.939-.497a3.697 3.697 0 01-1.33-1.337 3.63 3.63 0 01-.483-1.841 3.613 3.613 0 011.057-2.576c.341-.341.74-.609 1.197-.805a3.783 3.783 0 011.505-.294c.724 0 1.368.168 1.932.504.57.331 1.015.777 1.337 1.337.322.555.483 1.166.483 1.834 0 .49-.093.956-.28 1.4a3.62 3.62 0 01-.777 1.176c-.336.34-.732.609-1.19.805a3.797 3.797 0 01-1.512.294zm0-1.365c.43 0 .81-.094 1.141-.28.336-.192.6-.46.791-.805.192-.346.287-.754.287-1.225 0-.472-.095-.88-.287-1.225a1.985 1.985 0 00-.791-.805 2.278 2.278 0 00-1.141-.28c-.429 0-.812.093-1.148.28a2.007 2.007 0 00-.784.805c-.186.345-.28.753-.28 1.225 0 .471.096.879.287 1.225.192.345.453.613.784.805.336.186.717.28 1.141.28zm15.995 3.255v-2.1h-1.134v-1.274h2.548v3.374h-1.414zm-10.689-2.1v-6.93h1.491v5.656h2.926v-5.656h1.491v5.656h2.926v-5.656h1.491v6.93h-10.325zm16.291.21c-.691 0-1.302-.159-1.834-.476a3.46 3.46 0 01-1.246-1.309c-.299-.556-.448-1.186-.448-1.89 0-.528.086-1.015.259-1.463.172-.448.415-.838.728-1.169a3.231 3.231 0 011.12-.77 3.635 3.635 0 011.421-.273c.681 0 1.25.144 1.708.434.462.289.814.662 1.057 1.12l-.217.329v-1.673h1.372v6.93h-1.372v-1.673l.217.329c-.243.457-.595.83-1.057 1.12-.458.289-1.027.434-1.708.434zm.203-1.365c.42 0 .795-.094 1.127-.28.331-.192.59-.46.777-.805.191-.346.287-.754.287-1.225 0-.472-.096-.88-.287-1.225a1.959 1.959 0 00-.777-.805 2.254 2.254 0 00-1.127-.28c-.425 0-.803.093-1.134.28a2.01 2.01 0 00-.777.805c-.192.345-.287.753-.287 1.225 0 .471.095.879.287 1.225.191.345.45.613.777.805.331.186.709.28 1.134.28zm10.893 1.155v-5.656h-2.8v.917c0 .63-.037 1.199-.112 1.708a4.526 4.526 0 01-.399 1.344c-.191.382-.46.7-.805.952-.341.252-.777.436-1.309.553l-.378-1.043c.443-.108.777-.308 1.001-.602.224-.294.373-.682.448-1.162.079-.486.119-1.069.119-1.75v-2.191h5.775v6.93h-1.54zm-5.803 2.1v-3.325l.952.098.238-.147h7.546v3.374h-1.407v-2.1h-5.922v2.1h-1.407zm10.094-2.1v-6.93h1.54v5.761h1.323c.504 0 .884-.098 1.141-.294.257-.196.385-.488.385-.875 0-.383-.119-.677-.357-.882-.238-.206-.588-.308-1.05-.308h-1.652v-1.155h1.771c.896 0 1.601.2 2.114.602.513.401.77.982.77 1.743 0 .49-.124.91-.371 1.26-.247.345-.595.611-1.043.798-.443.186-.964.28-1.561.28h-3.01zm7.602 0v-6.93h1.54l-.007 2.674h2.345v1.274h-2.345l.007 2.982h-1.54zm6.783.21c-.728 0-1.375-.166-1.939-.497a3.74 3.74 0 01-1.337-1.337 3.63 3.63 0 01-.483-1.841c0-.495.093-.962.28-1.4a3.683 3.683 0 011.974-1.981 3.78 3.78 0 011.505-.294c.728 0 1.374.168 1.939.504a3.622 3.622 0 011.33 1.337c.326.555.49 1.166.49 1.834 0 .49-.094.956-.28 1.4a3.722 3.722 0 01-.784 1.176 3.713 3.713 0 01-2.695 1.099zm0-1.365c.429 0 .809-.094 1.141-.28.331-.192.592-.46.784-.805.191-.346.287-.754.287-1.225 0-.472-.096-.88-.287-1.225a2.007 2.007 0 00-.784-.805 2.284 2.284 0 00-1.141-.28c-.43 0-.812.093-1.148.28a1.994 1.994 0 00-.784.805c-.187.345-.28.753-.28 1.225 0 .471.093.879.28 1.225.191.345.452.613.784.805.336.186.718.28 1.148.28zm12.122 1.365c-.583 0-1.11-.101-1.582-.301a3.308 3.308 0 01-1.204-.868 3.993 3.993 0 01-.763-1.393c-.172-.551-.259-1.176-.259-1.876 0-.77.059-1.461.175-2.072.122-.612.311-1.141.567-1.589a3.395 3.395 0 011.029-1.106c.43-.29.95-.497 1.561-.623l3.318-.672.252 1.337-3.227.623c-.541.112-.966.291-1.274.539a2.171 2.171 0 00-.679.945c-.144.382-.24.833-.287 1.351a3.326 3.326 0 011.099-.952c.439-.238.95-.357 1.533-.357.658 0 1.239.156 1.743.469.509.308.906.721 1.19 1.239.285.518.427 1.092.427 1.722 0 .49-.086.952-.259 1.386a3.388 3.388 0 01-.735 1.148 3.507 3.507 0 01-1.148.77c-.443.186-.935.28-1.477.28zm-.035-1.365c.406 0 .768-.089 1.085-.266.322-.182.574-.437.756-.763.182-.332.273-.724.273-1.176 0-.453-.091-.843-.273-1.169a1.883 1.883 0 00-.756-.763 2.14 2.14 0 00-1.085-.273c-.406 0-.77.091-1.092.273a1.898 1.898 0 00-.749.763c-.182.326-.273.716-.273 1.169 0 .452.091.844.273 1.176.182.326.432.581.749.763a2.23 2.23 0 001.092.266zm8.5 1.365c-.724 0-1.37-.166-1.939-.497a3.69 3.69 0 01-1.33-1.337 3.63 3.63 0 01-.483-1.841 3.613 3.613 0 011.057-2.576 3.76 3.76 0 011.197-.805 3.78 3.78 0 011.505-.294c.723 0 1.367.168 1.932.504a3.604 3.604 0 011.337 1.337c.322.555.483 1.166.483 1.834 0 .49-.094.956-.28 1.4a3.62 3.62 0 01-.777 1.176 3.713 3.713 0 01-2.702 1.099zm0-1.365c.429 0 .809-.094 1.141-.28.336-.192.599-.46.791-.805.191-.346.287-.754.287-1.225 0-.472-.096-.88-.287-1.225a1.991 1.991 0 00-.791-.805 2.284 2.284 0 00-1.141-.28c-.43 0-.812.093-1.148.28a1.994 1.994 0 00-.784.805c-.187.345-.28.753-.28 1.225 0 .471.095.879.287 1.225.191.345.452.613.784.805.336.186.716.28 1.141.28zm5.053 1.274l-.539-1.386c.476-.122.824-.313 1.043-.574.224-.262.364-.626.42-1.092.061-.467.091-1.069.091-1.806v-2.191h5.635v6.93h-1.54v-5.656h-2.66v.917a15.6 15.6 0 01-.105 1.939c-.065.55-.186 1.019-.364 1.407a2.484 2.484 0 01-.749.952c-.317.242-.728.429-1.232.56zm11.961.091c-.746 0-1.402-.152-1.967-.455a3.359 3.359 0 01-1.323-1.288c-.312-.551-.469-1.19-.469-1.918 0-.532.091-1.022.273-1.47a3.475 3.475 0 011.932-1.946 3.852 3.852 0 011.463-.273c.574 0 1.085.102 1.533.308.448.2.819.483 1.113.847.299.364.509.791.63 1.281.126.485.147 1.012.063 1.582h-5.53a1.97 1.97 0 00.273 1.092c.192.308.465.548.819.721.36.172.782.259 1.267.259.392 0 .77-.059 1.134-.175a3.286 3.286 0 001.001-.532l.595 1.106a3.225 3.225 0 01-.812.469 5.444 5.444 0 01-.994.287c-.345.07-.679.105-1.001.105zm-2.191-4.466h3.927c-.014-.523-.182-.934-.504-1.232-.317-.299-.77-.448-1.358-.448-.569 0-1.043.149-1.421.448-.373.298-.588.709-.644 1.232zm10.271 4.466c-.746 0-1.402-.152-1.967-.455a3.359 3.359 0 01-1.323-1.288c-.312-.551-.469-1.19-.469-1.918 0-.532.091-1.022.273-1.47a3.475 3.475 0 011.932-1.946 3.852 3.852 0 011.463-.273c.574 0 1.085.102 1.533.308.448.2.819.483 1.113.847.299.364.509.791.63 1.281.126.485.147 1.012.063 1.582h-5.53a1.97 1.97 0 00.273 1.092c.192.308.465.548.819.721.36.172.782.259 1.267.259.392 0 .77-.059 1.134-.175a3.286 3.286 0 001.001-.532l.595 1.106a3.225 3.225 0 01-.812.469 5.444 5.444 0 01-.994.287c-.345.07-.679.105-1.001.105zm-2.191-4.466h3.927c-.014-.523-.182-.934-.504-1.232-.317-.299-.77-.448-1.358-.448-.569 0-1.043.149-1.421.448-.373.298-.588.709-.644 1.232zm10.233 4.256v-1.12l2.121-1.939a28.936 28.936 0 001.624-1.589c.41-.448.709-.852.896-1.211.186-.36.28-.724.28-1.092 0-.537-.185-.955-.553-1.253-.364-.304-.873-.455-1.526-.455-.434 0-.85.074-1.246.224a2.761 2.761 0 00-1.015.651l-.574-1.141a4.038 4.038 0 011.372-.805 4.763 4.763 0 011.631-.28c.676 0 1.267.121 1.771.364.508.238.903.576 1.183 1.015.284.434.427.942.427 1.526 0 .406-.082.812-.245 1.218-.159.401-.446.854-.861 1.358-.411.504-.994 1.108-1.75 1.813l-1.505 1.386h4.606v1.33h-6.636zm11.127.21c-.602 0-1.18-.087-1.736-.259-.55-.173-1.005-.404-1.365-.693l.504-1.274c.322.28.707.494 1.155.644.448.144.901.217 1.358.217.458 0 .854-.075 1.19-.224.336-.154.595-.374.777-.658.182-.285.273-.63.273-1.036 0-.374-.095-.693-.287-.959a1.81 1.81 0 00-.798-.623 2.87 2.87 0 00-1.148-.217c-.275 0-.56.032-.854.098a4.807 4.807 0 00-.903.301l-.644-.693.504-4.62 5.404-.007v1.372h-4.291l-.294 2.555c.243-.08.483-.14.721-.182.243-.042.483-.063.721-.063.644 0 1.221.123 1.729.371.509.242.91.595 1.204 1.057.299.462.448 1.015.448 1.659 0 .653-.156 1.222-.469 1.708a3.066 3.066 0 01-1.288 1.127c-.55.266-1.187.399-1.911.399zm9.24 0a3.532 3.532 0 01-1.687-.399 3.82 3.82 0 01-1.267-1.106 5.264 5.264 0 01-.791-1.631 6.935 6.935 0 01-.273-1.974c0-.705.091-1.365.273-1.981a5.161 5.161 0 01.791-1.624 3.81 3.81 0 011.267-1.106 3.532 3.532 0 011.687-.399c.625 0 1.185.133 1.68.399.499.266.922.634 1.267 1.106.35.466.616 1.008.798 1.624.187.616.28 1.276.28 1.981 0 .7-.093 1.358-.28 1.974a5.168 5.168 0 01-.798 1.631c-.345.471-.768.84-1.267 1.106-.495.266-1.055.399-1.68.399zm0-1.386a2.06 2.06 0 001.015-.252 2.37 2.37 0 00.784-.742c.224-.322.394-.712.511-1.169.117-.462.175-.983.175-1.561 0-.775-.105-1.44-.315-1.995-.205-.56-.495-.987-.868-1.281a2.005 2.005 0 00-1.302-.448c-.369 0-.707.086-1.015.259a2.297 2.297 0 00-.784.735c-.219.322-.39.711-.511 1.169a6.312 6.312 0 00-.175 1.561c0 .774.103 1.439.308 1.995.21.555.502.982.875 1.281.373.298.807.448 1.302.448zm9.516 1.386a3.529 3.529 0 01-1.687-.399 3.82 3.82 0 01-1.267-1.106 5.242 5.242 0 01-.791-1.631 6.935 6.935 0 01-.273-1.974c0-.705.091-1.365.273-1.981a5.14 5.14 0 01.791-1.624 3.81 3.81 0 011.267-1.106 3.529 3.529 0 011.687-.399c.625 0 1.185.133 1.68.399.499.266.921.634 1.267 1.106.35.466.616 1.008.798 1.624.186.616.28 1.276.28 1.981 0 .7-.094 1.358-.28 1.974a5.168 5.168 0 01-.798 1.631c-.346.471-.768.84-1.267 1.106-.495.266-1.055.399-1.68.399zm0-1.386c.373 0 .711-.084 1.015-.252a2.38 2.38 0 00.784-.742c.224-.322.394-.712.511-1.169.116-.462.175-.983.175-1.561 0-.775-.105-1.44-.315-1.995-.206-.56-.495-.987-.868-1.281a2.005 2.005 0 00-1.302-.448c-.369 0-.707.086-1.015.259a2.288 2.288 0 00-.784.735c-.22.322-.39.711-.511 1.169a6.312 6.312 0 00-.175 1.561c0 .774.102 1.439.308 1.995.21.555.501.982.875 1.281.373.298.807.448 1.302.448zm9.265 1.176v-6.93h1.379l3.108 4.494-.665.014 2.954-4.508h1.365v6.93h-1.4l.021-5.124.287.126-2.478 3.619h-.994l-2.59-3.626.287-.126.021 5.131h-1.295zm9.889-5.054v-.798l1.421-1.246c.43-.383.78-.712 1.05-.987.276-.28.476-.532.602-.756.126-.229.189-.46.189-.693 0-.332-.121-.588-.364-.77-.238-.187-.567-.28-.987-.28-.284 0-.56.051-.826.154a1.833 1.833 0 00-.686.441l-.413-.833c.276-.243.591-.427.945-.553a3.303 3.303 0 011.113-.189c.686 0 1.237.175 1.652.525.42.35.63.812.63 1.386 0 .294-.063.578-.189.854-.126.275-.329.571-.609.889-.275.312-.644.669-1.106 1.071l-.931.826h3.003v.959h-4.494zm7.028 5.264c-.298 0-.557-.096-.777-.287a.96.96 0 01-.322-.749c0-.21.049-.392.147-.546a.967.967 0 01.399-.364c.168-.089.353-.133.553-.133.304 0 .56.095.77.287.215.186.322.438.322.756 0 .205-.049.387-.147.546a.985.985 0 01-.399.357 1.131 1.131 0 01-.546.133z" fill="#1F1F1F"/><path fill="#fff" d="M39.355 684.239h335v130h-335z"/><path d="M70.633 723.239v-9.09h6.156v2.106h-3.528v6.984h-2.628zm8.019.27c-.456 0-.852-.144-1.188-.432-.33-.294-.495-.684-.495-1.17 0-.33.075-.615.225-.855.156-.24.36-.426.612-.558a1.83 1.83 0 01.846-.198c.462 0 .858.147 1.188.441.336.288.504.678.504 1.17 0 .33-.078.615-.234.855-.156.24-.363.423-.621.549a1.776 1.776 0 01-.837.198zm10.576-.27v-10.17h-3.42v-2.43h9.522v2.43h-3.42v10.17h-2.682zm7.14 0v-9.09h2.627l-.009 3.348h2.961v2.106h-2.96l.008 3.636h-2.628zm9.26.27c-.978 0-1.845-.219-2.601-.657a4.899 4.899 0 01-1.773-1.746 4.71 4.71 0 01-.639-2.412c0-.642.123-1.251.369-1.827a4.797 4.797 0 011.035-1.539c.45-.45.981-.804 1.593-1.062a5.138 5.138 0 012.016-.387c.978 0 1.845.219 2.601.657a4.785 4.785 0 011.773 1.755c.426.726.639 1.527.639 2.403 0 .636-.123 1.245-.369 1.827a4.708 4.708 0 01-1.035 1.548c-.45.444-.981.795-1.593 1.053-.606.258-1.278.387-2.016.387zm0-2.277c.468 0 .885-.102 1.251-.306.366-.21.654-.504.864-.882.21-.378.315-.828.315-1.35 0-.522-.105-.972-.315-1.35a2.2 2.2 0 00-.864-.873 2.468 2.468 0 00-1.251-.315c-.468 0-.885.105-1.251.315a2.28 2.28 0 00-.864.873c-.21.378-.315.828-.315 1.35 0 .522.105.972.315 1.35.216.378.507.672.873.882.366.204.78.306 1.242.306zm6.823 2.007v-9.09h2.295l3.816 5.706-1.125.018 3.6-5.724h2.295v9.09h-2.322l.027-6.165.513.207-2.862 4.329h-1.584l-3.024-4.338.495-.198.045 6.165h-2.169zm17.678.27c-.99 0-1.86-.201-2.61-.603a4.39 4.39 0 01-1.755-1.683c-.42-.72-.63-1.563-.63-2.529 0-.702.12-1.347.36-1.935a4.539 4.539 0 011.026-1.521 4.652 4.652 0 011.557-.999 5.26 5.26 0 011.971-.36c.786 0 1.482.138 2.088.414a4.073 4.073 0 011.521 1.161c.402.492.681 1.071.837 1.737.162.666.177 1.389.045 2.169h-6.966c0 .42.108.786.324 1.098.222.312.531.558.927.738.402.174.87.261 1.404.261.528 0 1.032-.072 1.512-.216a4.82 4.82 0 001.359-.657l.873 1.8c-.288.222-.648.42-1.08.594a7.617 7.617 0 01-1.377.387c-.48.096-.942.144-1.386.144zm-2.403-5.958h4.293c-.018-.534-.207-.957-.567-1.269-.354-.312-.843-.468-1.467-.468-.624 0-1.143.156-1.557.468-.408.312-.642.735-.702 1.269zm8.719 5.688v-9.09h2.628v3.348h3.834v-3.348h2.628v9.09h-2.628v-3.636h-3.834v3.636h-2.628zm11.655 0v-9.09h2.628v7.209h1.377c.528 0 .93-.111 1.206-.333.276-.222.414-.54.414-.954 0-.414-.129-.735-.387-.963-.252-.234-.612-.351-1.08-.351h-1.818v-1.863h2.025c1.23 0 2.196.267 2.898.801.708.534 1.062 1.326 1.062 2.376 0 .66-.165 1.227-.495 1.701-.33.468-.798.831-1.404 1.089-.6.252-1.308.378-2.124.378H148.1zm-72.921 31.21a5.397 5.397 0 01-2.051-.385 5.105 5.105 0 01-1.638-1.085 5.04 5.04 0 01-1.085-1.624 5.225 5.225 0 01-.385-2.016c0-.728.128-1.403.385-2.023a5.03 5.03 0 011.085-1.624 4.99 4.99 0 011.638-1.078 5.378 5.378 0 012.051-.385c.733 0 1.412.13 2.037.392a5.029 5.029 0 011.638 1.092c.467.466.828 1.01 1.085 1.631a5.06 5.06 0 01.392 1.995c0 .723-.13 1.395-.392 2.016a4.897 4.897 0 01-1.085 1.624 5.107 5.107 0 01-1.638 1.085 5.326 5.326 0 01-2.037.385zm0-1.484c.495 0 .954-.084 1.379-.252.43-.173.803-.418 1.12-.735.317-.322.565-.705.742-1.148.182-.448.273-.945.273-1.491 0-.733-.156-1.37-.469-1.911a3.252 3.252 0 00-1.26-1.267 3.58 3.58 0 00-1.785-.448 3.67 3.67 0 00-1.386.259c-.425.168-.798.41-1.12.728a3.42 3.42 0 00-.749 1.148 3.98 3.98 0 00-.266 1.491c0 .732.156 1.372.469 1.918.313.541.733.961 1.26 1.26.532.298 1.13.448 1.792.448zm10.368 4.214v-13.02h1.54v13.02h-1.54zm.756-2.758c-.97 0-1.82-.138-2.548-.413-.724-.28-1.286-.691-1.687-1.232-.402-.546-.602-1.214-.602-2.002 0-.794.2-1.461.602-2.002.406-.542.975-.95 1.708-1.225.732-.28 1.586-.42 2.562-.42.984 0 1.838.137 2.562.413.728.275 1.292.683 1.694 1.225.401.541.602 1.211.602 2.009 0 .592-.117 1.117-.35 1.575a3.17 3.17 0 01-1.001 1.141c-.434.308-.95.541-1.547.7a7.993 7.993 0 01-1.995.231zm.028-1.274c.714 0 1.316-.089 1.806-.266.494-.178.87-.441 1.127-.791.256-.35.385-.789.385-1.316 0-.528-.133-.966-.4-1.316-.26-.355-.64-.619-1.14-.791-.495-.178-1.095-.266-1.8-.266-.7 0-1.297.088-1.791.266-.495.172-.873.436-1.134.791-.262.35-.392.788-.392 1.316 0 .527.13.966.392 1.316.266.35.646.613 1.14.791.5.177 1.102.266 1.807.266zm6.407 1.092v-6.93h1.492v4.676l3.758-4.676h1.344v6.93H97.85v-4.732l-3.794 4.732h-1.317zm11.915.21c-.728 0-1.377-.159-1.946-.476a3.58 3.58 0 01-1.344-1.309c-.322-.556-.483-1.186-.483-1.89 0-.532.095-1.02.287-1.463a3.46 3.46 0 01.812-1.169c.35-.332.76-.588 1.232-.77a4.293 4.293 0 011.547-.273c.466 0 .898.063 1.295.189.401.121.77.31 1.106.567l-.742 1.176a2.088 2.088 0 00-.742-.427 2.717 2.717 0 00-.882-.14c-.486 0-.903.091-1.253.273-.35.182-.623.445-.819.791-.192.34-.287.753-.287 1.239 0 .723.21 1.29.63 1.701.424.41 1.001.616 1.729.616.345 0 .672-.063.98-.189a2.35 2.35 0 00.77-.511l.735 1.169c-.369.28-.78.499-1.232.658a4.2 4.2 0 01-1.393.238zm7.472-.21v-6.93h1.491v4.676l3.759-4.676h1.344v6.93h-1.484v-4.732l-3.794 4.732h-1.316zm15.346.21c-.728 0-1.376-.159-1.946-.476a3.594 3.594 0 01-1.344-1.309c-.322-.556-.483-1.186-.483-1.89 0-.532.096-1.02.287-1.463.192-.448.462-.838.812-1.169.35-.332.761-.588 1.232-.77a4.297 4.297 0 011.547-.273c.467 0 .899.063 1.295.189.402.121.77.31 1.106.567l-.742 1.176a2.08 2.08 0 00-.742-.427 2.708 2.708 0 00-.882-.14c-.485 0-.903.091-1.253.273-.35.182-.623.445-.819.791-.191.34-.287.753-.287 1.239 0 .723.21 1.29.63 1.701.425.41 1.001.616 1.729.616.346 0 .672-.063.98-.189.308-.131.565-.301.77-.511l.735 1.169c-.368.28-.779.499-1.232.658a4.196 4.196 0 01-1.393.238zm8.647-.21l-2.296-3.682 2.135-3.248h1.645l-2.121 3.178 2.478 3.752h-1.841zm-4.606 0v-6.93h1.54v2.674h2.086v1.274h-2.086v2.982h-1.54zm7.555.119l-.539-1.386c.476-.122.823-.313 1.043-.574.224-.262.364-.626.42-1.092.06-.467.091-1.069.091-1.806v-2.191h5.635v6.93h-1.54v-5.656h-2.66v.917a15.6 15.6 0 01-.105 1.939c-.066.55-.187 1.019-.364 1.407a2.493 2.493 0 01-.749.952c-.318.242-.728.429-1.232.56zm11.729.091c-.69 0-1.302-.159-1.834-.476a3.475 3.475 0 01-1.246-1.309c-.298-.556-.448-1.186-.448-1.89 0-.528.087-1.015.259-1.463.173-.448.416-.838.728-1.169a3.24 3.24 0 011.12-.77 3.639 3.639 0 011.421-.273c.682 0 1.251.144 1.708.434.462.289.815.662 1.057 1.12l-.217.329v-1.673h1.372v6.93h-1.372v-1.673l.217.329a2.93 2.93 0 01-1.057 1.12c-.457.289-1.026.434-1.708.434zm.203-1.365c.42 0 .796-.094 1.127-.28.332-.192.591-.46.777-.805.192-.346.287-.754.287-1.225 0-.472-.095-.88-.287-1.225a1.947 1.947 0 00-.777-.805 2.251 2.251 0 00-1.127-.28 2.27 2.27 0 00-1.134.28 2.023 2.023 0 00-.777.805c-.191.345-.287.753-.287 1.225 0 .471.096.879.287 1.225.192.345.451.613.777.805.332.186.71.28 1.134.28zm10.894 1.155v-5.656h-2.8v.917c0 .63-.038 1.199-.112 1.708a4.526 4.526 0 01-.399 1.344c-.192.382-.46.7-.805.952-.341.252-.777.436-1.309.553l-.378-1.043c.443-.108.777-.308 1.001-.602.224-.294.373-.682.448-1.162.079-.486.119-1.069.119-1.75v-2.191h5.775v6.93h-1.54zm-5.803 2.1v-3.325l.952.098.238-.147h7.546v3.374h-1.407v-2.1h-5.922v2.1h-1.407zm13.162-1.89c-.728 0-1.376-.159-1.946-.476a3.594 3.594 0 01-1.344-1.309c-.322-.556-.483-1.186-.483-1.89 0-.532.096-1.02.287-1.463.192-.448.462-.838.812-1.169.35-.332.761-.588 1.232-.77a4.297 4.297 0 011.547-.273c.467 0 .899.063 1.295.189.402.121.77.31 1.106.567l-.742 1.176a2.08 2.08 0 00-.742-.427 2.708 2.708 0 00-.882-.14c-.485 0-.903.091-1.253.273-.35.182-.623.445-.819.791-.191.34-.287.753-.287 1.239 0 .723.21 1.29.63 1.701.425.41 1.001.616 1.729.616.346 0 .672-.063.98-.189.308-.131.565-.301.77-.511l.735 1.169c-.368.28-.779.499-1.232.658a4.196 4.196 0 01-1.393.238zm8.647-.21l-2.296-3.682 2.135-3.248h1.645l-2.121 3.178 2.478 3.752h-1.841zm-4.606 0v-6.93h1.54v2.674h2.086v1.274h-2.086v2.982h-1.54zm7.807 0v-6.93h1.491v4.676l3.759-4.676h1.344v6.93h-1.484v-4.732l-3.794 4.732H181.1zm11.9.21c-.747 0-1.402-.152-1.967-.455a3.346 3.346 0 01-1.323-1.288c-.313-.551-.469-1.19-.469-1.918 0-.532.091-1.022.273-1.47a3.475 3.475 0 011.932-1.946 3.852 3.852 0 011.463-.273c.574 0 1.085.102 1.533.308.448.2.819.483 1.113.847.299.364.509.791.63 1.281.126.485.147 1.012.063 1.582h-5.53a1.97 1.97 0 00.273 1.092c.191.308.464.548.819.721.359.172.782.259 1.267.259.392 0 .77-.059 1.134-.175a3.297 3.297 0 001.001-.532l.595 1.106a3.243 3.243 0 01-.812.469 5.467 5.467 0 01-.994.287c-.345.07-.679.105-1.001.105zm-2.191-4.466h3.927c-.014-.523-.182-.934-.504-1.232-.317-.299-.77-.448-1.358-.448-.569 0-1.043.149-1.421.448-.373.298-.588.709-.644 1.232zm10.47 4.256v-6.93h6.545v6.93h-1.54v-5.656h-3.465v5.656h-1.54zm11.839.21c-.723 0-1.37-.166-1.939-.497a3.69 3.69 0 01-1.33-1.337 3.63 3.63 0 01-.483-1.841 3.613 3.613 0 011.057-2.576c.341-.341.74-.609 1.197-.805a3.78 3.78 0 011.505-.294c.723 0 1.367.168 1.932.504a3.604 3.604 0 011.337 1.337c.322.555.483 1.166.483 1.834 0 .49-.093.956-.28 1.4a3.62 3.62 0 01-.777 1.176 3.713 3.713 0 01-2.702 1.099zm0-1.365c.429 0 .81-.094 1.141-.28.336-.192.6-.46.791-.805.191-.346.287-.754.287-1.225 0-.472-.096-.88-.287-1.225a1.985 1.985 0 00-.791-.805 2.28 2.28 0 00-1.141-.28c-.429 0-.812.093-1.148.28a2 2 0 00-.784.805c-.187.345-.28.753-.28 1.225 0 .471.096.879.287 1.225.191.345.453.613.784.805.336.186.716.28 1.141.28zm5.306 1.155v-6.93h1.379l3.108 4.494-.665.014 2.954-4.508h1.365v6.93h-1.4l.021-5.124.287.126-2.478 3.619h-.994l-2.59-3.626.287-.126.021 5.131h-1.295zm13.445.21c-.746 0-1.402-.152-1.967-.455a3.359 3.359 0 01-1.323-1.288c-.312-.551-.469-1.19-.469-1.918 0-.532.091-1.022.273-1.47a3.475 3.475 0 011.932-1.946 3.852 3.852 0 011.463-.273c.574 0 1.085.102 1.533.308.448.2.819.483 1.113.847.299.364.509.791.63 1.281.126.485.147 1.012.063 1.582h-5.53a1.97 1.97 0 00.273 1.092c.192.308.465.548.819.721.36.172.782.259 1.267.259.392 0 .77-.059 1.134-.175a3.286 3.286 0 001.001-.532l.595 1.106a3.225 3.225 0 01-.812.469 5.444 5.444 0 01-.994.287c-.345.07-.679.105-1.001.105zm-2.191-4.466h3.927c-.014-.523-.182-.934-.504-1.232-.317-.299-.77-.448-1.358-.448-.569 0-1.043.149-1.421.448-.373.298-.588.709-.644 1.232zm17.728 6.356v-2.1h-1.134v-1.274h2.548v3.374h-1.414zm-10.689-2.1v-6.93h1.491v5.656h2.926v-5.656h1.491v5.656h2.926v-5.656h1.491v6.93h-10.325zm16.521.21c-.746 0-1.402-.152-1.967-.455a3.359 3.359 0 01-1.323-1.288c-.312-.551-.469-1.19-.469-1.918 0-.532.091-1.022.273-1.47a3.475 3.475 0 011.932-1.946 3.852 3.852 0 011.463-.273c.574 0 1.085.102 1.533.308.448.2.819.483 1.113.847.299.364.509.791.63 1.281.126.485.147 1.012.063 1.582h-5.53a1.97 1.97 0 00.273 1.092c.192.308.465.548.819.721.36.172.782.259 1.267.259.392 0 .77-.059 1.134-.175a3.286 3.286 0 001.001-.532l.595 1.106a3.225 3.225 0 01-.812.469 5.444 5.444 0 01-.994.287c-.345.07-.679.105-1.001.105zm-2.191-4.466h3.927c-.014-.523-.182-.934-.504-1.232-.317-.299-.77-.448-1.358-.448-.569 0-1.043.149-1.421.448-.373.298-.588.709-.644 1.232zm7.039 4.256v-6.93h1.54v2.674h3.472v-2.674h1.54v6.93h-1.54v-2.982h-3.472v2.982h-1.54zm8.695 0v-6.93h1.491v4.676l3.759-4.676h1.344v6.93h-1.484v-4.732l-3.794 4.732h-1.316zm8.254 0l2.66-3.549.336.994c-.574.004-1.064-.08-1.47-.252-.406-.178-.717-.425-.931-.742-.21-.322-.315-.703-.315-1.141 0-.472.119-.873.357-1.204.238-.336.574-.593 1.008-.77.434-.178.942-.266 1.526-.266h2.989v6.93h-1.484v-5.761h-1.351c-.495 0-.871.086-1.127.259-.252.172-.378.431-.378.777 0 .336.116.597.35.784.238.182.581.273 1.029.273h1.673v1.12h-1.218l-1.897 2.548h-1.757zm-201.452 20.21c-.723 0-1.37-.166-1.939-.497a3.692 3.692 0 01-1.33-1.337 3.63 3.63 0 01-.483-1.841 3.613 3.613 0 011.057-2.576c.34-.341.74-.609 1.197-.805a3.78 3.78 0 011.505-.294c.723 0 1.367.168 1.932.504.57.331 1.015.777 1.337 1.337.322.555.483 1.166.483 1.834 0 .49-.093.956-.28 1.4a3.62 3.62 0 01-.777 1.176 3.71 3.71 0 01-2.702 1.099zm0-1.365c.43 0 .81-.094 1.141-.28.336-.192.6-.46.791-.805.191-.346.287-.754.287-1.225 0-.472-.096-.88-.287-1.225a1.987 1.987 0 00-.791-.805 2.281 2.281 0 00-1.141-.28c-.43 0-.812.093-1.148.28a2 2 0 00-.784.805c-.187.345-.28.753-.28 1.225 0 .471.096.879.287 1.225.191.345.453.613.784.805.336.186.716.28 1.141.28zm8.694 1.365c-.584 0-1.11-.101-1.582-.301a3.299 3.299 0 01-1.204-.868 3.975 3.975 0 01-.763-1.393c-.173-.551-.26-1.176-.26-1.876 0-.77.06-1.461.176-2.072.121-.612.31-1.141.567-1.589a3.38 3.38 0 011.029-1.106c.43-.29.95-.497 1.56-.623l3.319-.672.252 1.337-3.227.623c-.541.112-.966.291-1.274.539a2.168 2.168 0 00-.68.945c-.144.382-.24.833-.286 1.351a3.32 3.32 0 011.099-.952c.439-.238.95-.357 1.533-.357.658 0 1.239.156 1.743.469a3.27 3.27 0 011.19 1.239c.285.518.427 1.092.427 1.722 0 .49-.087.952-.26 1.386a3.388 3.388 0 01-.734 1.148 3.514 3.514 0 01-1.148.77c-.444.186-.936.28-1.477.28zm-.035-1.365a2.19 2.19 0 001.085-.266c.322-.182.574-.437.756-.763.182-.332.273-.724.273-1.176 0-.453-.091-.843-.273-1.169a1.883 1.883 0 00-.756-.763 2.142 2.142 0 00-1.085-.273c-.406 0-.77.091-1.092.273a1.895 1.895 0 00-.75.763c-.181.326-.272.716-.272 1.169 0 .452.09.844.273 1.176.182.326.431.581.749.763a2.23 2.23 0 001.092.266zm15.963 3.255v-2.1H97.07v-1.274h2.548v3.374h-1.414zm-10.69-2.1v-6.93h1.492v5.656h2.926v-5.656h1.49v5.656h2.927v-5.656h1.49v6.93H87.517zm16.522.21c-.746 0-1.402-.152-1.967-.455a3.359 3.359 0 01-1.323-1.288c-.312-.551-.469-1.19-.469-1.918 0-.532.091-1.022.273-1.47a3.475 3.475 0 011.932-1.946 3.852 3.852 0 011.463-.273c.574 0 1.085.102 1.533.308.448.2.819.483 1.113.847.299.364.509.791.63 1.281.126.485.147 1.012.063 1.582h-5.53a1.97 1.97 0 00.273 1.092c.192.308.465.548.819.721.36.172.782.259 1.267.259.392 0 .77-.059 1.134-.175a3.286 3.286 0 001.001-.532l.595 1.106a3.225 3.225 0 01-.812.469 5.444 5.444 0 01-.994.287c-.345.07-.679.105-1.001.105zm-2.191-4.466h3.927c-.014-.523-.182-.934-.504-1.232-.317-.299-.77-.448-1.358-.448-.569 0-1.043.149-1.421.448-.373.298-.588.709-.644 1.232zm7.039 4.256v-6.93h1.491v4.676l3.759-4.676h1.344v6.93h-1.484v-4.732l-3.794 4.732h-1.316zm3.297-8.12c-.518 0-.973-.108-1.365-.322a2.29 2.29 0 01-.91-.889c-.215-.378-.315-.812-.301-1.302h1.288c-.019.429.089.777.322 1.043.238.261.56.392.966.392.406 0 .726-.131.959-.392.233-.266.338-.614.315-1.043h1.295c.009.485-.096.917-.315 1.295a2.34 2.34 0 01-.91.896c-.387.214-.835.322-1.344.322zm8.871 8.12v-6.93h6.545v6.93h-1.54v-5.656h-3.465v5.656h-1.54zm8.43.119l-.539-1.386c.476-.122.823-.313 1.043-.574.224-.262.364-.626.42-1.092.06-.467.091-1.069.091-1.806v-2.191h5.635v6.93h-1.54v-5.656h-2.66v.917a15.6 15.6 0 01-.105 1.939c-.066.55-.187 1.019-.364 1.407a2.493 2.493 0 01-.749.952c-.318.242-.728.429-1.232.56zm11.953.091c-.723 0-1.369-.166-1.939-.497a3.697 3.697 0 01-1.33-1.337 3.63 3.63 0 01-.483-1.841 3.613 3.613 0 011.057-2.576c.341-.341.74-.609 1.197-.805a3.783 3.783 0 011.505-.294c.724 0 1.368.168 1.932.504.57.331 1.015.777 1.337 1.337.322.555.483 1.166.483 1.834 0 .49-.093.956-.28 1.4a3.62 3.62 0 01-.777 1.176c-.336.34-.732.609-1.19.805a3.797 3.797 0 01-1.512.294zm0-1.365c.43 0 .81-.094 1.141-.28.336-.192.6-.46.791-.805.192-.346.287-.754.287-1.225 0-.472-.095-.88-.287-1.225a1.985 1.985 0 00-.791-.805 2.278 2.278 0 00-1.141-.28c-.429 0-.812.093-1.148.28a2.007 2.007 0 00-.784.805c-.186.345-.28.753-.28 1.225 0 .471.096.879.287 1.225.192.345.453.613.784.805.336.186.717.28 1.141.28zm15.995 3.255v-2.1h-1.134v-1.274h2.548v3.374h-1.414zm-10.689-2.1v-6.93h1.491v5.656h2.926v-5.656h1.491v5.656h2.926v-5.656h1.491v6.93h-10.325zm16.291.21c-.691 0-1.302-.159-1.834-.476a3.46 3.46 0 01-1.246-1.309c-.299-.556-.448-1.186-.448-1.89 0-.528.086-1.015.259-1.463.172-.448.415-.838.728-1.169a3.231 3.231 0 011.12-.77 3.635 3.635 0 011.421-.273c.681 0 1.25.144 1.708.434.462.289.814.662 1.057 1.12l-.217.329v-1.673h1.372v6.93h-1.372v-1.673l.217.329c-.243.457-.595.83-1.057 1.12-.458.289-1.027.434-1.708.434zm.203-1.365c.42 0 .795-.094 1.127-.28.331-.192.59-.46.777-.805.191-.346.287-.754.287-1.225 0-.472-.096-.88-.287-1.225a1.959 1.959 0 00-.777-.805 2.254 2.254 0 00-1.127-.28c-.425 0-.803.093-1.134.28a2.01 2.01 0 00-.777.805c-.192.345-.287.753-.287 1.225 0 .471.095.879.287 1.225.191.345.45.613.777.805.331.186.709.28 1.134.28zm10.893 1.155v-5.656h-2.8v.917c0 .63-.037 1.199-.112 1.708a4.526 4.526 0 01-.399 1.344c-.191.382-.46.7-.805.952-.341.252-.777.436-1.309.553l-.378-1.043c.443-.108.777-.308 1.001-.602.224-.294.373-.682.448-1.162.079-.486.119-1.069.119-1.75v-2.191h5.775v6.93h-1.54zm-5.803 2.1v-3.325l.952.098.238-.147h7.546v3.374h-1.407v-2.1h-5.922v2.1h-1.407zm10.094-2.1v-6.93h1.54v5.761h1.323c.504 0 .884-.098 1.141-.294.257-.196.385-.488.385-.875 0-.383-.119-.677-.357-.882-.238-.206-.588-.308-1.05-.308h-1.652v-1.155h1.771c.896 0 1.601.2 2.114.602.513.401.77.982.77 1.743 0 .49-.124.91-.371 1.26-.247.345-.595.611-1.043.798-.443.186-.964.28-1.561.28h-3.01zm7.602 0v-6.93h1.54l-.007 2.674h2.345v1.274h-2.345l.007 2.982h-1.54zm6.783.21c-.728 0-1.375-.166-1.939-.497a3.74 3.74 0 01-1.337-1.337 3.63 3.63 0 01-.483-1.841c0-.495.093-.962.28-1.4a3.683 3.683 0 011.974-1.981 3.78 3.78 0 011.505-.294c.728 0 1.374.168 1.939.504a3.622 3.622 0 011.33 1.337c.326.555.49 1.166.49 1.834 0 .49-.094.956-.28 1.4a3.722 3.722 0 01-.784 1.176 3.713 3.713 0 01-2.695 1.099zm0-1.365c.429 0 .809-.094 1.141-.28.331-.192.592-.46.784-.805.191-.346.287-.754.287-1.225 0-.472-.096-.88-.287-1.225a2.007 2.007 0 00-.784-.805 2.284 2.284 0 00-1.141-.28c-.43 0-.812.093-1.148.28a1.994 1.994 0 00-.784.805c-.187.345-.28.753-.28 1.225 0 .471.093.879.28 1.225.191.345.452.613.784.805.336.186.718.28 1.148.28zm12.122 1.365c-.583 0-1.11-.101-1.582-.301a3.308 3.308 0 01-1.204-.868 3.993 3.993 0 01-.763-1.393c-.172-.551-.259-1.176-.259-1.876 0-.77.059-1.461.175-2.072.122-.612.311-1.141.567-1.589a3.395 3.395 0 011.029-1.106c.43-.29.95-.497 1.561-.623l3.318-.672.252 1.337-3.227.623c-.541.112-.966.291-1.274.539a2.171 2.171 0 00-.679.945c-.144.382-.24.833-.287 1.351a3.326 3.326 0 011.099-.952c.439-.238.95-.357 1.533-.357.658 0 1.239.156 1.743.469.509.308.906.721 1.19 1.239.285.518.427 1.092.427 1.722 0 .49-.086.952-.259 1.386a3.388 3.388 0 01-.735 1.148 3.507 3.507 0 01-1.148.77c-.443.186-.935.28-1.477.28zm-.035-1.365c.406 0 .768-.089 1.085-.266.322-.182.574-.437.756-.763.182-.332.273-.724.273-1.176 0-.453-.091-.843-.273-1.169a1.883 1.883 0 00-.756-.763 2.14 2.14 0 00-1.085-.273c-.406 0-.77.091-1.092.273a1.898 1.898 0 00-.749.763c-.182.326-.273.716-.273 1.169 0 .452.091.844.273 1.176.182.326.432.581.749.763a2.23 2.23 0 001.092.266zm8.5 1.365c-.724 0-1.37-.166-1.939-.497a3.69 3.69 0 01-1.33-1.337 3.63 3.63 0 01-.483-1.841 3.613 3.613 0 011.057-2.576 3.76 3.76 0 011.197-.805 3.78 3.78 0 011.505-.294c.723 0 1.367.168 1.932.504a3.604 3.604 0 011.337 1.337c.322.555.483 1.166.483 1.834 0 .49-.094.956-.28 1.4a3.62 3.62 0 01-.777 1.176 3.713 3.713 0 01-2.702 1.099zm0-1.365c.429 0 .809-.094 1.141-.28.336-.192.599-.46.791-.805.191-.346.287-.754.287-1.225 0-.472-.096-.88-.287-1.225a1.991 1.991 0 00-.791-.805 2.284 2.284 0 00-1.141-.28c-.43 0-.812.093-1.148.28a1.994 1.994 0 00-.784.805c-.187.345-.28.753-.28 1.225 0 .471.095.879.287 1.225.191.345.452.613.784.805.336.186.716.28 1.141.28zm5.053 1.274l-.539-1.386c.476-.122.824-.313 1.043-.574.224-.262.364-.626.42-1.092.061-.467.091-1.069.091-1.806v-2.191h5.635v6.93h-1.54v-5.656h-2.66v.917a15.6 15.6 0 01-.105 1.939c-.065.55-.186 1.019-.364 1.407a2.484 2.484 0 01-.749.952c-.317.242-.728.429-1.232.56zm11.961.091c-.746 0-1.402-.152-1.967-.455a3.359 3.359 0 01-1.323-1.288c-.312-.551-.469-1.19-.469-1.918 0-.532.091-1.022.273-1.47a3.475 3.475 0 011.932-1.946 3.852 3.852 0 011.463-.273c.574 0 1.085.102 1.533.308.448.2.819.483 1.113.847.299.364.509.791.63 1.281.126.485.147 1.012.063 1.582h-5.53a1.97 1.97 0 00.273 1.092c.192.308.465.548.819.721.36.172.782.259 1.267.259.392 0 .77-.059 1.134-.175a3.286 3.286 0 001.001-.532l.595 1.106a3.225 3.225 0 01-.812.469 5.444 5.444 0 01-.994.287c-.345.07-.679.105-1.001.105zm-2.191-4.466h3.927c-.014-.523-.182-.934-.504-1.232-.317-.299-.77-.448-1.358-.448-.569 0-1.043.149-1.421.448-.373.298-.588.709-.644 1.232zm10.271 4.466c-.746 0-1.402-.152-1.967-.455a3.359 3.359 0 01-1.323-1.288c-.312-.551-.469-1.19-.469-1.918 0-.532.091-1.022.273-1.47a3.475 3.475 0 011.932-1.946 3.852 3.852 0 011.463-.273c.574 0 1.085.102 1.533.308.448.2.819.483 1.113.847.299.364.509.791.63 1.281.126.485.147 1.012.063 1.582h-5.53a1.97 1.97 0 00.273 1.092c.192.308.465.548.819.721.36.172.782.259 1.267.259.392 0 .77-.059 1.134-.175a3.286 3.286 0 001.001-.532l.595 1.106a3.225 3.225 0 01-.812.469 5.444 5.444 0 01-.994.287c-.345.07-.679.105-1.001.105zm-2.191-4.466h3.927c-.014-.523-.182-.934-.504-1.232-.317-.299-.77-.448-1.358-.448-.569 0-1.043.149-1.421.448-.373.298-.588.709-.644 1.232zm10.233 4.256v-1.12l2.121-1.939a28.936 28.936 0 001.624-1.589c.41-.448.709-.852.896-1.211.186-.36.28-.724.28-1.092 0-.537-.185-.955-.553-1.253-.364-.304-.873-.455-1.526-.455-.434 0-.85.074-1.246.224a2.761 2.761 0 00-1.015.651l-.574-1.141a4.038 4.038 0 011.372-.805 4.763 4.763 0 011.631-.28c.676 0 1.267.121 1.771.364.508.238.903.576 1.183 1.015.284.434.427.942.427 1.526 0 .406-.082.812-.245 1.218-.159.401-.446.854-.861 1.358-.411.504-.994 1.108-1.75 1.813l-1.505 1.386h4.606v1.33h-6.636zm11.127.21c-.602 0-1.18-.087-1.736-.259-.55-.173-1.005-.404-1.365-.693l.504-1.274c.322.28.707.494 1.155.644.448.144.901.217 1.358.217.458 0 .854-.075 1.19-.224.336-.154.595-.374.777-.658.182-.285.273-.63.273-1.036 0-.374-.095-.693-.287-.959a1.81 1.81 0 00-.798-.623 2.87 2.87 0 00-1.148-.217c-.275 0-.56.032-.854.098a4.807 4.807 0 00-.903.301l-.644-.693.504-4.62 5.404-.007v1.372h-4.291l-.294 2.555c.243-.08.483-.14.721-.182.243-.042.483-.063.721-.063.644 0 1.221.123 1.729.371.509.242.91.595 1.204 1.057.299.462.448 1.015.448 1.659 0 .653-.156 1.222-.469 1.708a3.066 3.066 0 01-1.288 1.127c-.55.266-1.187.399-1.911.399zm9.24 0a3.532 3.532 0 01-1.687-.399 3.82 3.82 0 01-1.267-1.106 5.264 5.264 0 01-.791-1.631 6.935 6.935 0 01-.273-1.974c0-.705.091-1.365.273-1.981a5.161 5.161 0 01.791-1.624 3.81 3.81 0 011.267-1.106 3.532 3.532 0 011.687-.399c.625 0 1.185.133 1.68.399.499.266.922.634 1.267 1.106.35.466.616 1.008.798 1.624.187.616.28 1.276.28 1.981 0 .7-.093 1.358-.28 1.974a5.168 5.168 0 01-.798 1.631c-.345.471-.768.84-1.267 1.106-.495.266-1.055.399-1.68.399zm0-1.386a2.06 2.06 0 001.015-.252 2.37 2.37 0 00.784-.742c.224-.322.394-.712.511-1.169.117-.462.175-.983.175-1.561 0-.775-.105-1.44-.315-1.995-.205-.56-.495-.987-.868-1.281a2.005 2.005 0 00-1.302-.448c-.369 0-.707.086-1.015.259a2.297 2.297 0 00-.784.735c-.219.322-.39.711-.511 1.169a6.312 6.312 0 00-.175 1.561c0 .774.103 1.439.308 1.995.21.555.502.982.875 1.281.373.298.807.448 1.302.448zm9.516 1.386a3.529 3.529 0 01-1.687-.399 3.82 3.82 0 01-1.267-1.106 5.242 5.242 0 01-.791-1.631 6.935 6.935 0 01-.273-1.974c0-.705.091-1.365.273-1.981a5.14 5.14 0 01.791-1.624 3.81 3.81 0 011.267-1.106 3.529 3.529 0 011.687-.399c.625 0 1.185.133 1.68.399.499.266.921.634 1.267 1.106.35.466.616 1.008.798 1.624.186.616.28 1.276.28 1.981 0 .7-.094 1.358-.28 1.974a5.168 5.168 0 01-.798 1.631c-.346.471-.768.84-1.267 1.106-.495.266-1.055.399-1.68.399zm0-1.386c.373 0 .711-.084 1.015-.252a2.38 2.38 0 00.784-.742c.224-.322.394-.712.511-1.169.116-.462.175-.983.175-1.561 0-.775-.105-1.44-.315-1.995-.206-.56-.495-.987-.868-1.281a2.005 2.005 0 00-1.302-.448c-.369 0-.707.086-1.015.259a2.288 2.288 0 00-.784.735c-.22.322-.39.711-.511 1.169a6.312 6.312 0 00-.175 1.561c0 .774.102 1.439.308 1.995.21.555.501.982.875 1.281.373.298.807.448 1.302.448zm9.265 1.176v-6.93h1.379l3.108 4.494-.665.014 2.954-4.508h1.365v6.93h-1.4l.021-5.124.287.126-2.478 3.619h-.994l-2.59-3.626.287-.126.021 5.131h-1.295zm9.889-5.054v-.798l1.421-1.246c.43-.383.78-.712 1.05-.987.276-.28.476-.532.602-.756.126-.229.189-.46.189-.693 0-.332-.121-.588-.364-.77-.238-.187-.567-.28-.987-.28-.284 0-.56.051-.826.154a1.833 1.833 0 00-.686.441l-.413-.833c.276-.243.591-.427.945-.553a3.303 3.303 0 011.113-.189c.686 0 1.237.175 1.652.525.42.35.63.812.63 1.386 0 .294-.063.578-.189.854-.126.275-.329.571-.609.889-.275.312-.644.669-1.106 1.071l-.931.826h3.003v.959h-4.494zm7.028 5.264c-.298 0-.557-.096-.777-.287a.96.96 0 01-.322-.749c0-.21.049-.392.147-.546a.967.967 0 01.399-.364c.168-.089.353-.133.553-.133.304 0 .56.095.77.287.215.186.322.438.322.756 0 .205-.049.387-.147.546a.985.985 0 01-.399.357 1.131 1.131 0 01-.546.133z" fill="#1F1F1F"/></svg>