<svg width="161" height="35" viewBox="0 0 161 35" fill="none" xmlns="http://www.w3.org/2000/svg">
<path d="M0 34.8981L6.02874 4.65634H0.490141L1.42141 0H17.6941L16.7628 4.65634H11.2242L5.1955 34.8981H0Z" fill="white"/>
<path d="M9.51333 34.8981L16.4733 0H24.3646C27.1094 0 28.7269 0.539154 30.0012 1.81352C31.1776 2.98986 31.6187 4.70535 31.6187 6.56789C31.6187 7.79324 31.5207 9.06761 31.2266 10.6361C29.5111 19.2135 26.2271 21.2721 20.9336 21.2721H17.4046L14.7088 34.8981H9.51333ZM18.3359 16.6158H21.1787C23.8745 16.6158 25.1488 15.0473 26.0311 10.6361C26.2271 9.65578 26.4232 8.47944 26.4232 7.59719C26.4232 5.63662 25.639 4.65634 23.4333 4.65634H20.7376L18.3359 16.6158Z" fill="white"/>
<path d="M25.8641 34.8981L32.8241 0H41.0095C46.058 0 48.0675 2.54873 48.0675 6.32282C48.0675 7.45015 47.9205 8.77353 47.6264 10.293C46.4011 16.3707 44.7346 18.2333 41.8918 19.5076L43.7543 34.8981H38.5588L36.9903 20.4389H33.9515L31.0596 34.8981H25.8641ZM34.8337 15.9296H37.9706C40.5194 15.9296 41.7447 13.822 42.4309 10.293C42.627 9.26367 42.774 8.28338 42.774 7.49916C42.774 5.73465 42.1368 4.65634 40.0292 4.65634H37.0884L34.8337 15.9296Z" fill="white"/>
<path d="M52.6189 21.1741L56.2361 3.02907H52.913L53.4717 0.235268H63.2354L62.6766 3.02907H59.3534L55.7362 21.1741H52.6189Z" fill="white"/>
<path d="M60.0914 21.1741L64.2674 0.235268H74.4133L70.2373 21.1741H67.12L70.7373 3.02907H66.8259L63.2087 21.1741H60.0914Z" fill="white"/>
<path d="M72.3557 21.1741L76.5317 0.235268H81.2664C82.9133 0.235268 83.8838 0.558761 84.6484 1.32338C85.3542 2.02918 85.6189 3.05848 85.6189 4.176C85.6189 4.91121 85.5601 5.67584 85.3836 6.61691C84.3543 11.7634 82.3839 12.9985 79.2078 12.9985H77.0904L75.473 21.1741H72.3557ZM77.6492 10.2047H79.3549C80.9723 10.2047 81.737 9.26367 82.2663 6.61691C82.3839 6.02874 82.5016 5.32293 82.5016 4.79358C82.5016 3.61724 82.031 3.02907 80.7077 3.02907H79.0902L77.6492 10.2047Z" fill="white"/>
<path d="M84.9305 14.0867L85.4893 11.2929H91.1063L90.5476 14.0867H84.9305Z" fill="white"/>
<path d="M91.5295 16.8511C91.5295 15.5865 91.853 13.5573 92.4118 10.7047C93.7057 4.35245 94.3233 2.7644 95.6467 1.47042C96.6466 0.470535 97.8229 0 99.5286 0C101.058 0 102.264 0.470535 102.999 1.3822C103.558 2.088 103.881 3.23493 103.881 4.32305C103.881 4.76417 103.881 5.14648 103.793 5.67584H100.676C100.764 5.23471 100.764 4.88181 100.764 4.4995C100.764 3.55842 100.44 2.79381 99.2934 2.79381C98.6464 2.79381 98.1758 2.99966 97.7935 3.41138C96.9701 4.26423 96.5878 5.52879 95.5291 10.7047C94.9997 13.3809 94.6468 15.5571 94.6468 16.8216C94.6468 17.9686 95.0879 18.6156 96.1467 18.6156C96.8819 18.6156 97.3818 18.3215 97.7641 17.8509C98.2347 17.2922 98.5287 16.6158 98.7346 15.7041H101.881C101.44 17.8215 100.793 19.1449 99.5874 20.2036C98.6758 20.9976 97.6171 21.4094 95.8526 21.4094C94.0292 21.4094 92.9117 20.7918 92.2353 19.7331C91.706 18.8802 91.5295 18.1156 91.5295 16.8511Z" fill="white"/>
<path d="M102.112 21.1741L106.288 0.235268H114.64L114.081 3.02907H108.847L107.612 9.23426H112.111L111.552 11.9987H107.053L105.788 18.3803H111.023L110.464 21.1741H102.112Z" fill="white"/>
<path d="M111.964 21.1741L116.14 0.235268H120.875C122.522 0.235268 123.492 0.558761 124.257 1.32338C124.963 2.02918 125.227 3.05848 125.227 4.176C125.227 4.91121 125.168 5.67584 124.992 6.61691C123.963 11.7634 121.992 12.9985 118.816 12.9985H116.699L115.081 21.1741H111.964ZM117.258 10.2047H118.963C120.581 10.2047 121.345 9.26367 121.875 6.61691C121.992 6.02874 122.11 5.32293 122.11 4.79358C122.11 3.61724 121.639 3.02907 120.316 3.02907H118.699L117.258 10.2047Z" fill="white"/>
<path d="M123.539 21.1741L127.715 0.235268H132.362C134.038 0.235268 135.126 0.558761 135.861 1.49983C136.391 2.17623 136.626 3.02907 136.626 3.99955C136.626 4.4995 136.567 5.14648 136.391 5.96992C136.067 7.58739 135.802 8.58727 134.744 9.52835C134.391 9.85184 134.008 10.0871 133.567 10.2636C133.95 10.4106 134.303 10.7341 134.508 11.0282C134.979 11.6752 135.097 12.2045 135.097 12.9985C135.097 13.6161 135.038 14.3219 134.861 15.1748C134.332 17.8215 133.714 19.0567 132.744 19.9684C131.685 20.9094 130.538 21.1741 128.509 21.1741H123.539ZM127.215 18.3803H128.744C130.538 18.3803 131.273 17.5274 131.773 15.0571C131.891 14.4396 131.95 13.9396 131.95 13.4985C131.95 12.1751 131.362 11.5869 130.038 11.5869H128.568L127.215 18.3803ZM129.097 8.94018H130.421C132.067 8.94018 132.862 8.05792 133.273 6.02874C133.391 5.52879 133.45 5.05826 133.45 4.67595C133.45 3.58783 133.038 3.02907 131.685 3.02907H130.274L129.097 8.94018Z" fill="white"/>
<path d="M135.487 21.1741L139.663 0.235268H142.781L140.252 12.8221L147.368 0.235268H150.015L145.839 21.1741H142.722L145.222 8.61668L138.222 21.1741H135.487Z" fill="white"/>
<path d="M148.629 16.8511C148.629 15.5865 148.953 13.5573 149.511 10.7047C150.805 4.35245 151.423 2.7644 152.746 1.47042C153.746 0.470535 154.922 0 156.628 0C158.157 0 159.363 0.470535 160.098 1.3822C160.657 2.088 160.981 3.23493 160.981 4.32305C160.981 4.76417 160.981 5.14648 160.892 5.67584H157.775C157.863 5.23471 157.863 4.88181 157.863 4.4995C157.863 3.55842 157.54 2.79381 156.393 2.79381C155.746 2.79381 155.275 2.99966 154.893 3.41138C154.07 4.26423 153.687 5.52879 152.629 10.7047C152.099 13.3809 151.746 15.5571 151.746 16.8216C151.746 17.9686 152.187 18.6156 153.246 18.6156C153.981 18.6156 154.481 18.3215 154.864 17.8509C155.334 17.2922 155.628 16.6158 155.834 15.7041H158.981C158.54 17.8215 157.893 19.1449 156.687 20.2036C155.775 20.9976 154.717 21.4094 152.952 21.4094C151.129 21.4094 150.011 20.7918 149.335 19.7331C148.805 18.8802 148.629 18.1156 148.629 16.8511Z" fill="white"/>
<path d="M50.1379 34.898L51.9475 25.8245H53.2984L52.5337 29.6859H54.2159L54.9933 25.8245H56.3441L54.5345 34.898H53.1837L53.9865 30.8838H52.2916L51.4888 34.898H50.1379Z" fill="white"/>
<path d="M55.7073 34.898L57.5169 25.8245H61.1361L60.894 27.0352H58.6256L58.0904 29.7241H60.0402L59.798 30.922H57.8483L57.3003 33.6874H59.5687L59.3265 34.898H55.7073Z" fill="white"/>
<path d="M62.4896 34.9618L62.7063 33.8913C61.2408 33.8276 60.6036 32.9865 60.6036 31.8268C60.6036 31.3298 60.6928 30.7436 60.8202 30.0937C61.3555 27.443 61.9417 26.3853 64.2228 26.2961L64.4012 25.4167H65.7265L65.5481 26.2961C67.0009 26.3598 67.6508 27.2009 67.6508 28.3478C67.6508 28.8575 67.5616 29.4437 67.4342 30.0937C66.9117 32.7061 66.3255 33.7893 64.0316 33.8913L63.815 34.9618H62.4896ZM61.9672 31.5847C61.9672 32.3111 62.1965 32.6424 62.9739 32.6806L64.0061 27.5067C62.9994 27.5449 62.5534 28.1949 62.1711 30.0937C62.0564 30.7054 61.9672 31.2024 61.9672 31.5847ZM64.2355 32.6806C65.2423 32.6424 65.701 31.9797 66.0834 30.0937C66.198 29.482 66.2873 28.985 66.2873 28.5899C66.2873 27.8763 66.0451 27.5322 65.2678 27.5067L64.2355 32.6806Z" fill="white"/>
<path d="M68.1758 34.898L69.7433 27.0352H68.3032L68.5454 25.8245H72.7763L72.5341 27.0352H71.0941L69.5266 34.898H68.1758Z" fill="white"/>
<path d="M71.6688 34.898L73.4784 25.8245H77.0976L76.8554 27.0352H74.5871L74.0518 29.7241H76.0016L75.7595 30.922H73.8097L73.2617 33.6874H75.5301L75.288 34.898H71.6688Z" fill="white"/>
<path d="M76.4859 33.0247C76.4859 32.4767 76.6261 31.5974 76.8682 30.3613C77.4289 27.6087 77.6965 26.9205 78.27 26.3598C78.7033 25.9265 79.213 25.7226 79.9522 25.7226C80.6148 25.7226 81.1373 25.9265 81.4559 26.3215C81.698 26.6274 81.8382 27.1244 81.8382 27.5959C81.8382 27.7871 81.8382 27.9527 81.8 28.1821H80.4492C80.4874 27.991 80.4874 27.838 80.4874 27.6724C80.4874 27.2646 80.3472 26.9332 79.8502 26.9332C79.5698 26.9332 79.3659 27.0225 79.2003 27.2009C78.8435 27.5704 78.6778 28.1184 78.219 30.3613C77.9896 31.521 77.8367 32.464 77.8367 33.012C77.8367 33.509 78.0279 33.7893 78.4866 33.7893C78.8052 33.7893 79.0219 33.6619 79.1875 33.458C79.3914 33.2159 79.5189 32.9228 79.6081 32.5277H80.9716C80.7805 33.4453 80.5001 34.0187 79.9776 34.4775C79.5826 34.8216 79.1238 35 78.3592 35C77.5691 35 77.0848 34.7324 76.7917 34.2736C76.5623 33.904 76.4859 33.5727 76.4859 33.0247Z" fill="white"/>
<path d="M81.3266 34.898L83.1362 25.8245H86.7554L86.5133 27.0352H84.2449L83.7096 29.7241H85.6594L85.4173 30.922H83.4675L82.9195 33.6874H85.1879L84.9458 34.898H81.3266Z" fill="white"/>
<path d="M85.8506 34.898L87.6602 25.8245H89.7119C90.4256 25.8245 90.8461 25.9647 91.1774 26.2961C91.4833 26.6019 91.598 27.0479 91.598 27.5322C91.598 27.8508 91.5725 28.1821 91.496 28.5899C91.05 30.8201 90.1962 31.3553 88.8199 31.3553H87.9023L87.2014 34.898H85.8506ZM88.1444 30.1446H88.8836C89.5845 30.1446 89.9158 29.7369 90.1452 28.5899C90.1962 28.335 90.2472 28.0292 90.2472 27.7998C90.2472 27.2901 90.0433 27.0352 89.4698 27.0352H88.7689L88.1444 30.1446Z" fill="white"/>
<path d="M91.1213 34.898L92.9309 25.8245H94.9444C95.6708 25.8245 96.1423 25.9647 96.4609 26.3725C96.6903 26.6656 96.7922 27.0352 96.7922 27.4557C96.7922 27.6724 96.7667 27.9527 96.6903 28.3096C96.5501 29.0105 96.4354 29.4437 95.9766 29.8515C95.8237 29.9917 95.658 30.0937 95.4669 30.1701C95.6325 30.2339 95.7855 30.374 95.8747 30.5015C96.0786 30.7818 96.1295 31.0112 96.1295 31.3553C96.1295 31.6229 96.1041 31.9288 96.0276 32.2983C95.7982 33.4453 95.5306 33.9805 95.1101 34.3755C94.6513 34.7833 94.1543 34.898 93.275 34.898H91.1213ZM92.7142 33.6874H93.3769C94.1543 33.6874 94.4729 33.3178 94.6895 32.2474C94.7405 31.9797 94.766 31.7631 94.766 31.5719C94.766 30.9985 94.5111 30.7436 93.9376 30.7436H93.3005L92.7142 33.6874ZM93.5298 29.5967H94.1033C94.8169 29.5967 95.161 29.2144 95.3394 28.335C95.3904 28.1184 95.4159 27.9145 95.4159 27.7488C95.4159 27.2773 95.2375 27.0352 94.6513 27.0352H94.0396L93.5298 29.5967Z" fill="white"/>
<path d="M96.5538 34.898L98.3634 25.8245H99.7142L98.6182 31.2788L101.702 25.8245H102.849L101.04 34.898H99.6887L100.772 29.4565L97.7389 34.898H96.5538Z" fill="white"/>
<path d="M102.503 33.0247C102.503 32.4767 102.644 31.5974 102.886 30.3613C103.446 27.6087 103.714 26.9205 104.287 26.3598C104.721 25.9265 105.231 25.7226 105.97 25.7226C106.632 25.7226 107.155 25.9265 107.473 26.3215C107.716 26.6274 107.856 27.1244 107.856 27.5959C107.856 27.7871 107.856 27.9527 107.817 28.1821H106.467C106.505 27.991 106.505 27.838 106.505 27.6724C106.505 27.2646 106.365 26.9332 105.868 26.9332C105.587 26.9332 105.383 27.0225 105.218 27.2009C104.861 27.5704 104.695 28.1184 104.237 30.3613C104.007 31.521 103.854 32.464 103.854 33.012C103.854 33.509 104.045 33.7893 104.504 33.7893C104.823 33.7893 105.039 33.6619 105.205 33.458C105.409 33.2159 105.536 32.9228 105.626 32.5277H106.989C106.798 33.4453 106.518 34.0187 105.995 34.4775C105.6 34.8216 105.141 35 104.377 35C103.587 35 103.102 34.7324 102.809 34.2736C102.58 33.904 102.503 33.5727 102.503 33.0247Z" fill="white"/>
<path d="M107.344 34.898L109.154 25.8245H110.505L109.74 29.6859H111.422L112.199 25.8245H113.55L111.741 34.898H110.39L111.193 30.8838H109.498L108.695 34.898H107.344Z" fill="white"/>
<path d="M112.913 34.898L114.723 25.8245H116.074L115.373 29.3545H116.087C116.8 29.3545 117.221 29.5075 117.552 29.8388C117.858 30.1446 117.973 30.5779 117.973 31.0749C117.973 31.3935 117.934 31.8013 117.871 32.1327C117.425 34.3628 116.571 34.898 115.195 34.898H112.913ZM114.506 33.6874H115.258C115.959 33.6874 116.278 33.2923 116.52 32.1327C116.571 31.8905 116.609 31.5719 116.609 31.3298C116.609 30.8201 116.418 30.5652 115.844 30.5652H115.131L114.506 33.6874ZM118.049 34.898L119.859 25.8245H121.21L119.4 34.898H118.049Z" fill="white"/>
<path d="M120.574 34.898L122.383 25.8245H126.002L125.76 27.0352H123.492L122.957 29.7241H124.906L124.664 30.922H122.715L122.167 33.6874H124.435L124.193 34.898H120.574Z" fill="white"/>
<path d="M126.817 34.898L127.047 33.6874C127.799 33.6874 128.13 33.4835 128.436 32.7571L128.793 31.9415L128.143 25.8245H129.519L129.761 30.1064L131.711 25.8245H133.151L129.481 33.1522C128.78 34.554 128.487 34.898 126.817 34.898Z" fill="white"/>
<path d="M131.937 33.0247C131.937 32.4767 132.077 31.5974 132.32 30.3613C132.88 27.6087 133.148 26.9205 133.721 26.3598C134.155 25.9265 134.664 25.7226 135.404 25.7226C136.066 25.7226 136.589 25.9265 136.907 26.3215C137.149 26.6274 137.29 27.1244 137.29 27.5959C137.29 27.7871 137.29 27.9527 137.251 28.1821H135.901C135.939 27.991 135.939 27.838 135.939 27.6724C135.939 27.2646 135.799 26.9332 135.302 26.9332C135.021 26.9332 134.817 27.0225 134.652 27.2009C134.295 27.5704 134.129 28.1184 133.67 30.3613C133.441 31.521 133.288 32.464 133.288 33.012C133.288 33.509 133.479 33.7893 133.938 33.7893C134.257 33.7893 134.473 33.6619 134.639 33.458C134.843 33.2159 134.97 32.9228 135.059 32.5277H136.423C136.232 33.4453 135.952 34.0187 135.429 34.4775C135.034 34.8216 134.575 35 133.811 35C133.02 35 132.536 34.7324 132.243 34.2736C132.014 33.904 131.937 33.5727 131.937 33.0247Z" fill="white"/>
<path d="M135.981 34.898L136.223 33.6874H136.35C137.09 33.6874 137.574 33.2286 138.045 30.8583L139.065 25.8245H143.168L141.359 34.898H139.995L141.563 27.0352H140.122L139.345 30.9093C138.657 34.3755 137.956 34.898 136.389 34.898H135.981Z" fill="white"/>
<path d="M142.293 34.898L142.523 33.6874C143.275 33.6874 143.606 33.4835 143.912 32.7571L144.269 31.9415L143.619 25.8245H144.995L145.237 30.1064L147.187 25.8245H148.627L144.957 33.1522C144.256 34.554 143.963 34.898 142.293 34.898Z" fill="white"/>
<path d="M147.332 34.898L149.141 25.8245H152.697L152.455 27.0352H150.25L148.683 34.898H147.332Z" fill="white"/>
<path d="M151.619 34.898L153.429 25.8245H154.78L153.684 31.2788L156.768 25.8245H157.915L156.105 34.898H154.754L155.838 29.4565L152.805 34.898H151.619Z" fill="white"/>
</svg>
