<svg width="18" height="18" viewBox="0 0 18 18" fill="none" xmlns="http://www.w3.org/2000/svg">
<path d="M6.6293 7.81382C7.4738 9.29746 8.70247 10.5261 10.1861 11.3706L10.9817 10.2564C11.1096 10.0773 11.2988 9.95122 11.5134 9.90213C11.728 9.85303 11.9532 9.88431 12.1463 9.99003C13.4192 10.6857 14.8249 11.104 16.271 11.2176C16.4967 11.2355 16.7074 11.3378 16.861 11.5041C17.0146 11.6704 17.0999 11.8885 17.0999 12.1149V16.1307C17.1 16.3536 17.0173 16.5685 16.868 16.7339C16.7187 16.8993 16.5134 17.0035 16.2917 17.0262C15.8147 17.0757 15.3341 17.1 14.8499 17.1C7.1459 17.1 0.899902 10.854 0.899902 3.15002C0.899902 2.66582 0.924202 2.18522 0.973702 1.70822C0.996431 1.48655 1.10059 1.28119 1.26601 1.13189C1.43144 0.982597 1.64637 0.899976 1.8692 0.900024H5.885C6.11141 0.899996 6.32951 0.985301 6.49582 1.13893C6.66212 1.29256 6.76442 1.50323 6.7823 1.72892C6.8959 3.17504 7.31427 4.58074 8.0099 5.85362C8.11562 6.04673 8.14689 6.27189 8.0978 6.4865C8.04871 6.70111 7.92266 6.89028 7.7435 7.01823L6.6293 7.81382ZM4.3595 7.22252L6.0695 6.00122C5.58421 4.95371 5.25172 3.84198 5.0822 2.70002H2.7089C2.7035 2.84942 2.7008 2.99972 2.7008 3.15002C2.6999 9.86042 8.1395 15.3 14.8499 15.3C15.0002 15.3 15.1505 15.2973 15.2999 15.291V12.9177C14.1579 12.7482 13.0462 12.4157 11.9987 11.9304L10.7774 13.6404C10.2857 13.4494 9.80811 13.2238 9.3482 12.9654L9.296 12.9357C7.53072 11.9311 6.06885 10.4692 5.0642 8.70392L5.0345 8.65172C4.77612 8.19182 4.55056 7.71423 4.3595 7.22252Z" fill="white"/>
</svg>
