<svg width="14" height="15" viewBox="0 0 14 15" fill="none" xmlns="http://www.w3.org/2000/svg">
<path d="M6.99981 14.9163L2.70411 10.6206C1.85451 9.77104 1.27593 8.68858 1.04153 7.51015C0.807132 6.33171 0.927442 5.11024 1.38725 4.00018C1.84705 2.89012 2.6257 1.94134 3.62473 1.27382C4.62375 0.606291 5.79829 0.25 6.99981 0.25C8.20133 0.25 9.37586 0.606291 10.3749 1.27382C11.3739 1.94134 12.1526 2.89012 12.6124 4.00018C13.0722 5.11024 13.1925 6.33171 12.9581 7.51015C12.7237 8.68858 12.1451 9.77104 11.2955 10.6206L6.99981 14.9163ZM10.3411 9.6662C11.0018 9.00537 11.4518 8.16346 11.6341 7.24691C11.8163 6.33037 11.7227 5.38035 11.3651 4.517C11.0075 3.65364 10.4018 2.91573 9.62483 2.39656C8.84781 1.87739 7.9343 1.60029 6.99981 1.60029C6.06531 1.60029 5.1518 1.87739 4.37479 2.39656C3.59778 2.91573 2.99216 3.65364 2.63452 4.517C2.27688 5.38035 2.18329 6.33037 2.36556 7.24691C2.54784 8.16346 2.9978 9.00537 3.65856 9.6662L6.99981 13.0074L10.3411 9.6662ZM6.99981 7.67495C6.64177 7.67495 6.29839 7.53272 6.04521 7.27954C5.79204 7.02637 5.64981 6.68299 5.64981 6.32495C5.64981 5.96691 5.79204 5.62353 6.04521 5.37035C6.29839 5.11718 6.64177 4.97495 6.99981 4.97495C7.35785 4.97495 7.70123 5.11718 7.9544 5.37035C8.20758 5.62353 8.34981 5.96691 8.34981 6.32495C8.34981 6.68299 8.20758 7.02637 7.9544 7.27954C7.70123 7.53272 7.35785 7.67495 6.99981 7.67495Z" fill="white"/>
</svg>
