<svg width="809" height="706" fill="none" xmlns="http://www.w3.org/2000/svg"><mask id="a" maskUnits="userSpaceOnUse" x="329.466" y="-35.621" width="489.492" height="568.688" fill="#000"><path fill="#fff" d="M329.466-35.621h489.492v568.688H329.466z"/><path fill-rule="evenodd" clip-rule="evenodd" d="M519.339 74.25l-3.46 13.531c.23 1.37 5.846 4.02 4.865 19.682-.441 7-.728 5.169-3.524 9.734-3.076 5.048.002 5.859-.657 11.282-5.526 1.753-3.777.398-7.996-.856-.387 6.44-3.283 12.667-2.258 15.731 2.524-9.397 8.984-3.088 12.09-.65 4.303 3.344 1.758-.812 5.456 3.58 3.924 5.489-2.501 6.938 1.132 17.956 4.693 14.209 17.388 2.086 4.056 30.392-2.605 5.535-6.348 9.877-14.117 7.325-2.99-7.852 2.919-8.685-5.773-16.713-6.001-5.614-6.247-12.634-10.032-15.572-6.696-5.155-6.137 1.508-13.429-9.688-2.918-4.532-9.92-7.017-15.967-4.919 3.944 8.618 10.071 2.752 9.594 18.005-.456 12.795-5.918 10.716-7.601 17.912.705 4.921 12.433 2.665 6.381 14.915-2.732 5.57 1.995 5.666-.092 11.608-1.052 2.939-6.82 8.368-8.88 12.122-5.808 10.618-6.848 1.904-11.38 9.659-5.8 10.139-16.983 6.799-32.784 16.483-4.851 3.003-10.206 5.392-11.09 10.739-1.6 9.286.291 9.733-11.802 11.134 11.615 30.887-8.746 41.862 4.956 49.773 25.085 14.536 10.027 7.67 31.307 6.737 5.058-.197 2.812 1.086 8.253-.985 7.725-2.956 17.429.712 23.671 5.445 6.904 5.168 2.49 8.53.513 14.375 3.251 2.467 10.618 5.808 15.736 6.344 5.919-5.878 4.374-15.207 17.607-2.946 6.419-2.742 5.917-7.922 13.442-7.554 3.867.191 10.851 5.405 12.884 7.654 4.929 5.425 2.418 11.82 5.058 17.858 2.359 5.5 7.77 6.367 10.989 10.751 4.246 5.676 2.431 12.635 7.591 16.635 6.437 4.952 8.771-.579 16.54-1.843 10.363-1.755 6.217 5.148 13.142 6.835 9.185 2.24 6.001-.995 13.89 5.817 5.768 4.995 8.628.413 16.667.917 7.478.449 8.238 4.81 14.345 3.446 16.525-3.678 13.187 5.733 18.53 10.161 4.371 3.598 15.31 8.571 21.453 8.355 27.44-1.084 19.33-4.906 31.233-12.865 11.255-7.581 11.797-15.221 20.301-1.284 2.888 4.677 4.499 4.586 7.575 7.169 8.626-1.63 4.425-4.593 15.1-1.117 8.732 2.839 5.831 4.979 11.664 8.185 5.066.346 7.893-3.341 13.815-.567 3.733 1.725 5.674 5.157 10.001 7.063l6.274-10.402c6.345-8.105.576-7.513 2.163-13.798 1.729-7.276 4.009-.801 5.565-7.964 3.799-17.097-17.566-8.851.161-38.811 5.636-9.482 1.273-9.744-.406-20.332-.735-4.777-.679-8.13-2.991-12.689-1.909 2.283-2.041 5.862-6.679 5.333-3.871-.462-3.022-3.142-8.391-4.361-12.594-2.757-9.341-8.671-7.122-14.376 2.02-5.174-4.355-14.98-7.891-19.279-3.554-4.362-15.283-3.127-16.487-10.163-.952-5.332 3.761-3.257 1.74-9.528-1.247-3.891-4.34-5.515-3.834-11.51.476-5.851 6.907-9.822-6.793-15.69-3.376-1.412-5.534-1.583-7.032-6.156-.455-1.445-3.17-10.052-3.226-10.514-.599-4.268 1.6-5.47-.417-11.471-1.816-5.509-3.711-5.206-4.165-12.238 4.573-5.313 6.53-2.84 8.121-8.853 1.186-4.474 2.559-8.249.417-13.194-4.456-10.525-.655-4.73.282-11.658.555-4.033-1.884-12.373-3.613-15.521-2.505-2.735-4.804-.893-7.839-3.827l-1.804-1.901c-2.046-2.041-8.395 2.999-10.582 2.972-4.982-.028-5.143-3.937-8.017-6.778-2.873-2.841-11.723-1.287-18.093-10.823-7.369-10.971 3.095-17.181 6.741-24.426 4.914-9.63 3.817-5.588 12.848-11.551-.105-10.056 1.234-24.382-9.118-27.672-4.029-1.305-9.16-2.656-10.333-8.814-1.259-6.477 3.937-7.937 9.826-10.878-1.177-16.854 1.496-10.689-9.945-17.026-4.399-2.432-3.885-5.09-6.341-9.68-3.807-.478-6.725-1.195-10.606.594 2.829 1.15 7.318.356 8.268 4.667.674 3.021-1.877 7.997-3.927 9.5-6.845 4.969-13.536-3.731-17.403-7.737-6.678 2.54-9.054 8.422-7.4 15.61.537 2.513 4.1 4.624 6.658 5.779 5.243 2.274 3.304.886 7.066 6.283 20.491-2.357 8.16 2.991 17.743 11.802 2.708 2.477 7.807 4.722 6.027 9.014-2.678 5.01-10.187-.132-13.188-2.94-8.743-8.217-3.008-5.12-13.933-5.464-4.748-3.225-1.515-4.636-7.879-5.247-10.12-.9-16.68 1.063-14.434-23.863 1.125-12.839 8.892-30.386-.984-43.343.091 9.242 5.591 13.492.453 21.273-3.597 5.393-13.059 8.473-15.236 13.826-2.807 6.816-.05 11.256-5.37 18.609-11.14 15.385.712 3.42 4.303 43.27 1.281 14.442-3.381 11.535-4.291 20.091-.432 3.727-.001 6.61-.509 10.561-.765 5.792-2.269 6.536-3.04 10.013-.979 4.486 1.284 7.082 1.845 11.974.489 4.366-.487 7.08.493 11.246 15.979.897 20.22-11.754 35.938-2.679 11.785 6.857 5.01 6.493 13.11 8.751 12.349 3.368 9.284 31.852 8.028 34.028-2.636 4.658-10.009 7.656-2.802 14.718 6.914 6.733 18.782 4.234 24.206 13.546 1.644 2.83.662.436.889 2.555.3 2.645.307 1.144-.399 2.832-5.858 3.819-9.561-.844-12.951-3.07-9.554-6.161-6.043 5.162-5.975 9.232-2.575 1.576-3.635 1.178-5.592 2.52-3.11 2.128-1.102 3.77-5.466 2.487-8.873-3.618-.762-13.014-3.082-20.909-3.824-3.336-4.743-2.954-8.518-4.327-3.723-11.607 4.572-5.313 4.32-25.072-.106-7.262 3.588-2.12-2.972-10.583-6.055-7.848-2.737-6.148-4.634-14.497-5.927-.251-17.727 1.48-23.548 4.675-5.11 2.8-5.126 14.182-5.612 18.469-.65 5.965 6.388 10.62 5.337 21.19-.901 9.099-2.968 10.539-9.4 16.282-11.104 9.925-4.815 26.023-21.317 31.058-5.734 1.741-14.396 7.809-15.267 12.948-1.667 10.054 3.054 15.466 2.289 21.258-10.287 5.345-14.762-11.102-17.66-20.137-5.401-6.933-23.069-1.927-31.8-7.559-5.019-3.22-4.255-6.218-5.314-12.203-6.209.982-8.845 1.825-12.618-1.32-.139-6.368 8.26-9.095 13.978-9.878 6.787-.864 7.868 2.662 16.054 2.444 6.206-.232 3.404.246 7.695 1.004 6.212 1.061 3.819-.751 8.841-2.096 5.848-1.567 10.087 4.587 1.986 8.938l2.385 5.085c2.799-6.337 2.011-5.718 5.798-11.161 6.315-8.982 2.494-2.644 5.026-12.521 3.871-3.354 3.65-.365 5.552-4.962 1.534-3.682-.475-3.552 3.506-7.004 4.642-4.037 7.726-5.749 7.883-12.536.272-13.223-1.448-5.404 4.429-14.746 2.285-3.678 2.362-10.512 1.562-16.294-1.757-12.406-16.115-8.014-10.428-27.73 9.609-33.303-.612-33.562 6.62-47.764 1.438-2.77 4.607-28.83 3.76-31.736-1.689-5.543-7.943-6.252-9.451-12.39-1.849-7.407 2.37-9.969 5.223-14.072 2.666-3.78 13.552-29.522 13.85-35.53.131-3.578.608-5.613.616-8.886-2.943-1.323-5.143-1.142-8.952-2.643-6.621-2.586-1.828-4.28-9.709-3.94-7.961.294-12.791-1.205-18.545-5.387-5.002 7.268-5.628 11.797-9.402 18.054-6.194 10.45-7.143 29.032-13.371 39.353-4.264 7.48-10.604 9.246-20.766 12.514z"/></mask><path fill-rule="evenodd" clip-rule="evenodd" d="M519.339 74.25l-3.46 13.531c.23 1.37 5.846 4.02 4.865 19.682-.441 7-.728 5.169-3.524 9.734-3.076 5.048.002 5.859-.657 11.282-5.526 1.753-3.777.398-7.996-.856-.387 6.44-3.283 12.667-2.258 15.731 2.524-9.397 8.984-3.088 12.09-.65 4.303 3.344 1.758-.812 5.456 3.58 3.924 5.489-2.501 6.938 1.132 17.956 4.693 14.209 17.388 2.086 4.056 30.392-2.605 5.535-6.348 9.877-14.117 7.325-2.99-7.852 2.919-8.685-5.773-16.713-6.001-5.614-6.247-12.634-10.032-15.572-6.696-5.155-6.137 1.508-13.429-9.688-2.918-4.532-9.92-7.017-15.967-4.919 3.944 8.618 10.071 2.752 9.594 18.005-.456 12.795-5.918 10.716-7.601 17.912.705 4.921 12.433 2.665 6.381 14.915-2.732 5.57 1.995 5.666-.092 11.608-1.052 2.939-6.82 8.368-8.88 12.122-5.808 10.618-6.848 1.904-11.38 9.659-5.8 10.139-16.983 6.799-32.784 16.483-4.851 3.003-10.206 5.392-11.09 10.739-1.6 9.286.291 9.733-11.802 11.134 11.615 30.887-8.746 41.862 4.956 49.773 25.085 14.536 10.027 7.67 31.307 6.737 5.058-.197 2.812 1.086 8.253-.985 7.725-2.956 17.429.712 23.671 5.445 6.904 5.168 2.49 8.53.513 14.375 3.251 2.467 10.618 5.808 15.736 6.344 5.919-5.878 4.374-15.207 17.607-2.946 6.419-2.742 5.917-7.922 13.442-7.554 3.867.191 10.851 5.405 12.884 7.654 4.929 5.425 2.418 11.82 5.058 17.858 2.359 5.5 7.77 6.367 10.989 10.751 4.246 5.676 2.431 12.635 7.591 16.635 6.437 4.952 8.771-.579 16.54-1.843 10.363-1.755 6.217 5.148 13.142 6.835 9.185 2.24 6.001-.995 13.89 5.817 5.768 4.995 8.628.413 16.667.917 7.478.449 8.238 4.81 14.345 3.446 16.525-3.678 13.187 5.733 18.53 10.161 4.371 3.598 15.31 8.571 21.453 8.355 27.44-1.084 19.33-4.906 31.233-12.865 11.255-7.581 11.797-15.221 20.301-1.284 2.888 4.677 4.499 4.586 7.575 7.169 8.626-1.63 4.425-4.593 15.1-1.117 8.732 2.839 5.831 4.979 11.664 8.185 5.066.346 7.893-3.341 13.815-.567 3.733 1.725 5.674 5.157 10.001 7.063l6.274-10.402c6.345-8.105.576-7.513 2.163-13.798 1.729-7.276 4.009-.801 5.565-7.964 3.799-17.097-17.566-8.851.161-38.811 5.636-9.482 1.273-9.744-.406-20.332-.735-4.777-.679-8.13-2.991-12.689-1.909 2.283-2.041 5.862-6.679 5.333-3.871-.462-3.022-3.142-8.391-4.361-12.594-2.757-9.341-8.671-7.122-14.376 2.02-5.174-4.355-14.98-7.891-19.279-3.554-4.362-15.283-3.127-16.487-10.163-.952-5.332 3.761-3.257 1.74-9.528-1.247-3.891-4.34-5.515-3.834-11.51.476-5.851 6.907-9.822-6.793-15.69-3.376-1.412-5.534-1.583-7.032-6.156-.455-1.445-3.17-10.052-3.226-10.514-.599-4.268 1.6-5.47-.417-11.471-1.816-5.509-3.711-5.206-4.165-12.238 4.573-5.313 6.53-2.84 8.121-8.853 1.186-4.474 2.559-8.249.417-13.194-4.456-10.525-.655-4.73.282-11.658.555-4.033-1.884-12.373-3.613-15.521-2.505-2.735-4.804-.893-7.839-3.827l-1.804-1.901c-2.046-2.041-8.395 2.999-10.582 2.972-4.982-.028-5.143-3.937-8.017-6.778-2.873-2.841-11.723-1.287-18.093-10.823-7.369-10.971 3.095-17.181 6.741-24.426 4.914-9.63 3.817-5.588 12.848-11.551-.105-10.056 1.234-24.382-9.118-27.672-4.029-1.305-9.16-2.656-10.333-8.814-1.259-6.477 3.937-7.937 9.826-10.878-1.177-16.854 1.496-10.689-9.945-17.026-4.399-2.432-3.885-5.09-6.341-9.68-3.807-.478-6.725-1.195-10.606.594 2.829 1.15 7.318.356 8.268 4.667.674 3.021-1.877 7.997-3.927 9.5-6.845 4.969-13.536-3.731-17.403-7.737-6.678 2.54-9.054 8.422-7.4 15.61.537 2.513 4.1 4.624 6.658 5.779 5.243 2.274 3.304.886 7.066 6.283 20.491-2.357 8.16 2.991 17.743 11.802 2.708 2.477 7.807 4.722 6.027 9.014-2.678 5.01-10.187-.132-13.188-2.94-8.743-8.217-3.008-5.12-13.933-5.464-4.748-3.225-1.515-4.636-7.879-5.247-10.12-.9-16.68 1.063-14.434-23.863 1.125-12.839 8.892-30.386-.984-43.343.091 9.242 5.591 13.492.453 21.273-3.597 5.393-13.059 8.473-15.236 13.826-2.807 6.816-.05 11.256-5.37 18.609-11.14 15.385.712 3.42 4.303 43.27 1.281 14.442-3.381 11.535-4.291 20.091-.432 3.727-.001 6.61-.509 10.561-.765 5.792-2.269 6.536-3.04 10.013-.979 4.486 1.284 7.082 1.845 11.974.489 4.366-.487 7.08.493 11.246 15.979.897 20.22-11.754 35.938-2.679 11.785 6.857 5.01 6.493 13.11 8.751 12.349 3.368 9.284 31.852 8.028 34.028-2.636 4.658-10.009 7.656-2.802 14.718 6.914 6.733 18.782 4.234 24.206 13.546 1.644 2.83.662.436.889 2.555.3 2.645.307 1.144-.399 2.832-5.858 3.819-9.561-.844-12.951-3.07-9.554-6.161-6.043 5.162-5.975 9.232-2.575 1.576-3.635 1.178-5.592 2.52-3.11 2.128-1.102 3.77-5.466 2.487-8.873-3.618-.762-13.014-3.082-20.909-3.824-3.336-4.743-2.954-8.518-4.327-3.723-11.607 4.572-5.313 4.32-25.072-.106-7.262 3.588-2.12-2.972-10.583-6.055-7.848-2.737-6.148-4.634-14.497-5.927-.251-17.727 1.48-23.548 4.675-5.11 2.8-5.126 14.182-5.612 18.469-.65 5.965 6.388 10.62 5.337 21.19-.901 9.099-2.968 10.539-9.4 16.282-11.104 9.925-4.815 26.023-21.317 31.058-5.734 1.741-14.396 7.809-15.267 12.948-1.667 10.054 3.054 15.466 2.289 21.258-10.287 5.345-14.762-11.102-17.66-20.137-5.401-6.933-23.069-1.927-31.8-7.559-5.019-3.22-4.255-6.218-5.314-12.203-6.209.982-8.845 1.825-12.618-1.32-.139-6.368 8.26-9.095 13.978-9.878 6.787-.864 7.868 2.662 16.054 2.444 6.206-.232 3.404.246 7.695 1.004 6.212 1.061 3.819-.751 8.841-2.096 5.848-1.567 10.087 4.587 1.986 8.938l2.385 5.085c2.799-6.337 2.011-5.718 5.798-11.161 6.315-8.982 2.494-2.644 5.026-12.521 3.871-3.354 3.65-.365 5.552-4.962 1.534-3.682-.475-3.552 3.506-7.004 4.642-4.037 7.726-5.749 7.883-12.536.272-13.223-1.448-5.404 4.429-14.746 2.285-3.678 2.362-10.512 1.562-16.294-1.757-12.406-16.115-8.014-10.428-27.73 9.609-33.303-.612-33.562 6.62-47.764 1.438-2.77 4.607-28.83 3.76-31.736-1.689-5.543-7.943-6.252-9.451-12.39-1.849-7.407 2.37-9.969 5.223-14.072 2.666-3.78 13.552-29.522 13.85-35.53.131-3.578.608-5.613.616-8.886-2.943-1.323-5.143-1.142-8.952-2.643-6.621-2.586-1.828-4.28-9.709-3.94-7.961.294-12.791-1.205-18.545-5.387-5.002 7.268-5.628 11.797-9.402 18.054-6.194 10.45-7.143 29.032-13.371 39.353-4.264 7.48-10.604 9.246-20.766 12.514z" fill="#1E2D44"/><path clip-rule="evenodd" d="M519.339 74.25l-3.46 13.531c.23 1.37 5.846 4.02 4.865 19.682-.441 7-.728 5.169-3.524 9.734-3.076 5.048.002 5.859-.657 11.282-5.526 1.753-3.777.398-7.996-.856-.387 6.44-3.283 12.667-2.258 15.731 2.524-9.397 8.984-3.088 12.09-.65 4.303 3.344 1.758-.812 5.456 3.58 3.924 5.489-2.501 6.938 1.132 17.956 4.693 14.209 17.388 2.086 4.056 30.392-2.605 5.535-6.348 9.877-14.117 7.325-2.99-7.852 2.919-8.685-5.773-16.713-6.001-5.614-6.247-12.634-10.032-15.572-6.696-5.155-6.137 1.508-13.429-9.688-2.918-4.532-9.92-7.017-15.967-4.919 3.944 8.618 10.071 2.752 9.594 18.005-.456 12.795-5.918 10.716-7.601 17.912.705 4.921 12.433 2.665 6.381 14.915-2.732 5.57 1.995 5.666-.092 11.608-1.052 2.939-6.82 8.368-8.88 12.122-5.808 10.618-6.848 1.904-11.38 9.659-5.8 10.139-16.983 6.799-32.784 16.483-4.851 3.003-10.206 5.392-11.09 10.739-1.6 9.286.291 9.733-11.802 11.134 11.615 30.887-8.746 41.862 4.956 49.773 25.085 14.536 10.027 7.67 31.307 6.737 5.058-.197 2.812 1.086 8.253-.985 7.725-2.956 17.429.712 23.671 5.445 6.904 5.168 2.49 8.53.513 14.375 3.251 2.467 10.618 5.808 15.736 6.344 5.919-5.878 4.374-15.207 17.607-2.946 6.419-2.742 5.917-7.922 13.442-7.554 3.867.191 10.851 5.405 12.884 7.654 4.929 5.425 2.418 11.82 5.058 17.858 2.359 5.5 7.77 6.367 10.989 10.751 4.246 5.676 2.431 12.635 7.591 16.635 6.437 4.952 8.771-.579 16.54-1.843 10.363-1.755 6.217 5.148 13.142 6.835 9.185 2.24 6.001-.995 13.89 5.817 5.768 4.995 8.628.413 16.667.917 7.478.449 8.238 4.81 14.345 3.446 16.525-3.678 13.187 5.733 18.53 10.161 4.371 3.598 15.31 8.571 21.453 8.355 27.44-1.084 19.33-4.906 31.233-12.865 11.255-7.581 11.797-15.221 20.301-1.284 2.888 4.677 4.499 4.586 7.575 7.169 8.626-1.63 4.425-4.593 15.1-1.117 8.732 2.839 5.831 4.979 11.664 8.185 5.066.346 7.893-3.341 13.815-.567 3.733 1.725 5.674 5.157 10.001 7.063l6.274-10.402c6.345-8.105.576-7.513 2.163-13.798 1.729-7.276 4.009-.801 5.565-7.964 3.799-17.097-17.566-8.851.161-38.811 5.636-9.482 1.273-9.744-.406-20.332-.735-4.777-.679-8.13-2.991-12.689-1.909 2.283-2.041 5.862-6.679 5.333-3.871-.462-3.022-3.142-8.391-4.361-12.594-2.757-9.341-8.671-7.122-14.376 2.02-5.174-4.355-14.98-7.891-19.279-3.554-4.362-15.283-3.127-16.487-10.163-.952-5.332 3.761-3.257 1.74-9.528-1.247-3.891-4.34-5.515-3.834-11.51.476-5.851 6.907-9.822-6.793-15.69-3.376-1.412-5.534-1.583-7.032-6.156-.455-1.445-3.17-10.052-3.226-10.514-.599-4.268 1.6-5.47-.417-11.471-1.816-5.509-3.711-5.206-4.165-12.238 4.573-5.313 6.53-2.84 8.121-8.853 1.186-4.474 2.559-8.249.417-13.194-4.456-10.525-.655-4.73.282-11.658.555-4.033-1.884-12.373-3.613-15.521-2.505-2.735-4.804-.893-7.839-3.827l-1.804-1.901c-2.046-2.041-8.395 2.999-10.582 2.972-4.982-.028-5.143-3.937-8.017-6.778-2.873-2.841-11.723-1.287-18.093-10.823-7.369-10.971 3.095-17.181 6.741-24.426 4.914-9.63 3.817-5.588 12.848-11.551-.105-10.056 1.234-24.382-9.118-27.672-4.029-1.305-9.16-2.656-10.333-8.814-1.259-6.477 3.937-7.937 9.826-10.878-1.177-16.854 1.496-10.689-9.945-17.026-4.399-2.432-3.885-5.09-6.341-9.68-3.807-.478-6.725-1.195-10.606.594 2.829 1.15 7.318.356 8.268 4.667.674 3.021-1.877 7.997-3.927 9.5-6.845 4.969-13.536-3.731-17.403-7.737-6.678 2.54-9.054 8.422-7.4 15.61.537 2.513 4.1 4.624 6.658 5.779 5.243 2.274 3.304.886 7.066 6.283 20.491-2.357 8.16 2.991 17.743 11.802 2.708 2.477 7.807 4.722 6.027 9.014-2.678 5.01-10.187-.132-13.188-2.94-8.743-8.217-3.008-5.12-13.933-5.464-4.748-3.225-1.515-4.636-7.879-5.247-10.12-.9-16.68 1.063-14.434-23.863 1.125-12.839 8.892-30.386-.984-43.343.091 9.242 5.591 13.492.453 21.273-3.597 5.393-13.059 8.473-15.236 13.826-2.807 6.816-.05 11.256-5.37 18.609-11.14 15.385.712 3.42 4.303 43.27 1.281 14.442-3.381 11.535-4.291 20.091-.432 3.727-.001 6.61-.509 10.561-.765 5.792-2.269 6.536-3.04 10.013-.979 4.486 1.284 7.082 1.845 11.974.489 4.366-.487 7.08.493 11.246 15.979.897 20.22-11.754 35.938-2.679 11.785 6.857 5.01 6.493 13.11 8.751 12.349 3.368 9.284 31.852 8.028 34.028-2.636 4.658-10.009 7.656-2.802 14.718 6.914 6.733 18.782 4.234 24.206 13.546 1.644 2.83.662.436.889 2.555.3 2.645.307 1.144-.399 2.832-5.858 3.819-9.561-.844-12.951-3.07-9.554-6.161-6.043 5.162-5.975 9.232-2.575 1.576-3.635 1.178-5.592 2.52-3.11 2.128-1.102 3.77-5.466 2.487-8.873-3.618-.762-13.014-3.082-20.909-3.824-3.336-4.743-2.954-8.518-4.327-3.723-11.607 4.572-5.313 4.32-25.072-.106-7.262 3.588-2.12-2.972-10.583-6.055-7.848-2.737-6.148-4.634-14.497-5.927-.251-17.727 1.48-23.548 4.675-5.11 2.8-5.126 14.182-5.612 18.469-.65 5.965 6.388 10.62 5.337 21.19-.901 9.099-2.968 10.539-9.4 16.282-11.104 9.925-4.815 26.023-21.317 31.058-5.734 1.741-14.396 7.809-15.267 12.948-1.667 10.054 3.054 15.466 2.289 21.258-10.287 5.345-14.762-11.102-17.66-20.137-5.401-6.933-23.069-1.927-31.8-7.559-5.019-3.22-4.255-6.218-5.314-12.203-6.209.982-8.845 1.825-12.618-1.32-.139-6.368 8.26-9.095 13.978-9.878 6.787-.864 7.868 2.662 16.054 2.444 6.206-.232 3.404.246 7.695 1.004 6.212 1.061 3.819-.751 8.841-2.096 5.848-1.567 10.087 4.587 1.986 8.938l2.385 5.085c2.799-6.337 2.011-5.718 5.798-11.161 6.315-8.982 2.494-2.644 5.026-12.521 3.871-3.354 3.65-.365 5.552-4.962 1.534-3.682-.475-3.552 3.506-7.004 4.642-4.037 7.726-5.749 7.883-12.536.272-13.223-1.448-5.404 4.429-14.746 2.285-3.678 2.362-10.512 1.562-16.294-1.757-12.406-16.115-8.014-10.428-27.73 9.609-33.303-.612-33.562 6.62-47.764 1.438-2.77 4.607-28.83 3.76-31.736-1.689-5.543-7.943-6.252-9.451-12.39-1.849-7.407 2.37-9.969 5.223-14.072 2.666-3.78 13.552-29.522 13.85-35.53.131-3.578.608-5.613.616-8.886-2.943-1.323-5.143-1.142-8.952-2.643-6.621-2.586-1.828-4.28-9.709-3.94-7.961.294-12.791-1.205-18.545-5.387-5.002 7.268-5.628 11.797-9.402 18.054-6.194 10.45-7.143 29.032-13.371 39.353-4.264 7.48-10.604 9.246-20.766 12.514z" stroke="#1E2D44" stroke-width="6" mask="url(#a)"/><path d="M437.882 548.115l-.964.166-.237.949c-.59 2.364-.585 4.152-.46 5.55.038.428.094.866.139 1.226.023.178.043.336.058.465.051.462.054.713.028.886a.577.577 0 01-.148.319c-.119.141-.369.358-.899.646-1.087.59-2.967 1.281-6.223 2.273-5.664 1.724-7.209 2.029-8.587 2.003-.496-.01-.948-.059-1.58-.128-.329-.036-.707-.078-1.166-.121-1.276-.122-2.986-.238-5.59-.234l-2.082.002.662 1.975c.621 1.85 1.418 3.615 2.165 5.255l.074.161c.73 1.604 1.4 3.073 1.882 4.496.979 2.887 1.094 5.286-.616 7.681l-.001.002c-1.179 1.656-3.425 3.09-6.442 4.489-1.932.896-4.02 1.711-6.179 2.554-1.209.472-2.439.952-3.677 1.46-3.356 1.378-6.7 2.937-9.208 4.97-2.535 2.055-4.347 4.708-4.338 8.226l-.537 9.638-.002.029v.03c-.038 2.284.693 3.687 1.411 5.067l.036.068c.63 1.211 1.323 2.55 1.782 4.853-1.152 1.273-2.284 2.392-3.353 3.45l-.674.668c-1.374 1.367-2.672 2.706-3.579 4.106-.934 1.444-1.508 3.035-1.342 4.889.162 1.81 1.013 3.675 2.52 5.727.89 1.212 1.764 2.045 2.663 2.634.902.589 1.76.887 2.531 1.101.27.075.523.14.764.201 1.135.291 1.998.511 3.076 1.401 1.521 1.282 1.893 2.655 2.346 4.629l.041.179c.452 1.972 1.007 4.399 3.148 6.959l.095.113.115.093c.272.219.584.366.836.468.271.11.575.208.892.296.633.176 1.408.339 2.252.49 1.692.303 3.779.58 5.813.821 1.647.195 3.279.369 4.66.517l.941.101c.778.083 1.43.155 1.914.216a19.047 19.047 0 01.701.1c.752.245 1.223.502 1.56.746.345.251.608.53.932.913l.203.243c.652.785 1.496 1.801 3.257 2.818h0l.012.007c1.223.69 2.141 1.01 2.89 1.195a13.663 13.663 0 00.873.185c.226.046.325.073.394.1l.005.002c.052.02.202.077.539.548.378.528.884 1.427 1.667 3.018 2.213 4.528 4.584 6.822 7.106 8.009 1.235.581 2.437.864 3.543 1.05.492.083.98.149 1.435.21l.151.02c.508.069.976.135 1.429.219.899.168 1.676.4 2.394.814.709.408 1.429 1.035 2.147 2.082 1.474 2.147 2.9 6.008 4.081 13.129l.354 2.135 1.875-1.081c2.743-1.582 4.269-3.19 5.578-4.569.218-.23.43-.453.641-.669 1.37-1.404 2.81-2.657 5.92-3.738.573.061 1.277.439 2.426 1.423.479.408.98.872 1.551 1.4l.53.489a56.926 56.926 0 002.697 2.354c4.131 3.349 10.273 7.01 20.811 8.362l1.78.229-.091-1.793c-.138-2.719.154-3.572.424-4.095.116-.225.209-.368.335-.562.099-.151.217-.332.381-.606.325-.542.66-1.202.958-2.149l.043-.138.016-.143.486-4.276.001-.006c.286-2.372.933-3.797 1.665-4.795.692-.945 1.5-1.581 2.466-2.34l.296-.233c1.066-.843 2.277-1.853 3.152-3.487.877-1.637 1.341-3.749 1.27-6.712-.149-6.267.738-10.588 2.109-13.628 1.359-3.012 3.228-4.845 5.204-6.098 1.859-1.179 3.814-1.851 5.689-2.496l.488-.168c.98-.34 1.974-.698 2.835-1.142.865-.445 1.713-1.035 2.314-1.903l.006-.009.006-.009c1.209-1.801 1.678-3.542 1.27-5.255-.389-1.636-1.514-2.938-2.764-4.044-1.06-.939-2.373-1.872-3.712-2.824-.245-.173-.49-.348-.735-.523-1.622-1.16-3.3-2.406-4.864-3.884l-.011-.01-.011-.01c-.205-.187-.486-.339-.619-.411l-.012-.006a26.746 26.746 0 00-.706-.365l-.302-.152c-.497-.25-1.093-.549-1.759-.901-1.618-.852-3.58-1.976-5.298-3.292-1.751-1.341-3.077-2.754-3.64-4.135-.27-.662-.356-1.294-.253-1.918.103-.627.415-1.348 1.1-2.16h.001c1.063-1.26 1.809-1.66 2.227-1.812.217-.079.401-.112.599-.139.077-.011.249-.032.376-.054.136-.024.377-.071.631-.192.287-.138.578-.363.79-.71.196-.32.262-.645.286-.892.042-.446-.031-.959-.118-1.451-.107-.608-.294-1.472-.55-2.66-.178-.825-.39-1.807-.632-2.966l-.001-.005c-1.072-5.056.289-11.917 2.627-17.665 1.159-2.85 2.521-5.33 3.853-7.092.667-.882 1.297-1.545 1.857-1.984.423-.332.746-.488.967-.554 2.501.755 5.069 2.356 7.336 4.704.414 2.22.2 3.49 0 4.675l-.052.307c-.118.718-.23 1.532-.111 2.484.12.958.458 1.958 1.095 3.133l.369.681.769.093c3.247.396 5.788.462 7.915.517a69.15 69.15 0 012.949.117c2.75.195 5.518.739 10.246 2.816l.002.001c4.083 1.786 6.953 2.578 9.108 2.643 2.29.069 3.736-.683 4.86-1.731.425-.396.809-.842 1.136-1.22l.175-.202c.386-.443.727-.811 1.123-1.125.719-.569 1.761-1.076 3.796-1.044 2.204.036 3.834.438 5.279.929.57.194 1.1.397 1.647.607l.51.195c.719.273 1.475.547 2.286.763 3.424.911 7.326.637 14.592-2.985 3.382-1.681 5.844-4.946 7.687-8.139 1.272-2.203 2.349-4.567 3.225-6.49.384-.841.729-1.599 1.035-2.221l.86-1.75-1.911-.383a108.244 108.244 0 00-8.71-1.397c-.556-.067-1.078-.127-1.577-.185-1.552-.18-2.875-.333-4.265-.581-3.594-.639-7.63-1.91-16.494-6.012-3.69-1.714-5.135-3.722-6.276-5.645a49.145 49.145 0 01-.44-.763c-1.006-1.767-2.149-3.774-4.7-5.022-1.413-.695-2.671-.978-3.69-1.208l-.038-.008c-1.056-.238-1.757-.408-2.417-.804-1.26-.756-2.778-2.617-4.678-9.075l-.002-.006c-2.036-6.815-4.778-11.339-8.079-14.36-3.309-3.028-7.053-4.429-10.865-5.217-1.897-.393-3.828-.636-5.729-.848-.468-.053-.933-.103-1.395-.153-1.436-.155-2.85-.308-4.267-.511-3.722-.534-7.257-1.393-10.509-3.394a81.113 81.113 0 01-2.559-1.686c-.32-.217-.644-.436-.975-.658-1.214-.813-2.491-1.638-3.818-2.337-2.659-1.4-5.659-2.368-9.013-1.708l-1.121.221-.085 1.139c-.528 7.033-1.058 11.011-3.036 14.074-1.956 3.03-5.485 5.38-12.764 8.555l-.001.001c-2.326 1.016-5.069 1.585-7.952 2.183-.638.132-1.282.266-1.93.406-3.407.737-7.014 1.674-9.471 3.814-1.878 1.511-3.155 2.305-4.113 2.714-.905.387-1.545.441-2.211.389-.327-.026-.699-.088-1.129-.159-1.436-.24-3.517-.587-6.709-.038z" fill="#1E2D44" stroke="#1E2D44" stroke-width="3"/><path fill-rule="evenodd" clip-rule="evenodd" d="M369.733 295.004c-3.197-4.049-2.027-3.75-3.177-8.552-4.47 1.88-15.392 25.451-15.451 25.739-1.573 7.099 3.832 10.488-1.787 16.218-8.269 8.552-5.144-1.143-8.705 13.029-1.375 5.547-5.247 7.879-7.849 12.664-4.242 7.814 1.071 8.571.809 16.749l-4.03 15.729c-2.065 6.276-7.353 8.92-7.547 13.536l8.367 1.983c3.498 7.716 2.223 11.6 8.188 16.066 11.058 8.211 26.053 15.095 34.25 31.703 5.257 10.72-.519 8.997.954 17.8 3.062 18.802.7 11.259 1.112 18.644.436 6.969 6.548 5.876 8.876 13.292 2.618 8.497-2.112 10.173-5.095 15.06 2.458 5.61 5.851 7.086 10.165 9.2 5.989 3.028 5.525 4.856 8.827 11.33 20.219 1.464 6.852 11.586 15.165 25.575 4.681 7.807 13.642 3.362 22.215.52.415-3.79-.6-5.29.29-9.344 8.49-4.932 8.443 1.758 15.567-3.694 7.564-5.842 9.959-3.009 18.794-6.398 21.793-8.429 11.845-13.258 17.712-24.165 4.184-3.71 13.649 1.862 17.268 4.435 15.19 10.919 17.019-1.835 33.302 11.381 6.085 4.91 7.975 8.151 10.775 17.076 3.979 12.561 8.042 3.568 13.288 11.702 7.441 11.496 17.826 13.892 31.05 15.186 12.809 1.269 8.355-.603 18.044-6.402-.526-10.352.188-12.519 8.965-18.413 25.306-16.933 12.985-11.043 13.812-28.298l5.856-20.101c6.472-8.139 28.175-6.732 36.434-6.424 9.632.349 8.353 8.799 22.604 3.754 12.633-4.475 7.648-10.362 21.039-1.072 4.604 3.195 5.907.938 11.24 1.008 5.108-.006 6.408 2.303 11.664 1.576 1.56-10.706 4.785-11.639 16.368-17.74 5.966-3.166 13.021 1.553 22.925 5.712 4.681-6.432 3.25-11.772 11.326-15.707 2.898-1.39 15.832-4.992 14.583-14.741-23.667-8.989-29.713.739-26.503-22.878-22.378-16.897-15.476-2.326-25.322-7.795-2.482-1.38-4.572-5.112-7.024-6.635-13.546-8.09-16.201 12.517-31.381-14.894-16.871 8.745-11.578 17.82-33.652 20.873-7.55 1.069-14.954 2.167-20.583-.276-1.238-.554-15.11-8.08-15.811-8.914-3.922-4.468-.12-5.282-5.211-8.006-3.576-1.903-6.724-.174-11.009.361-7.439.971-5.187-5.628-19.276-3.284-13.453 2.174-9.117-1.986-16.961-6.084-4.123-2.166-5.944-.315-9.816-1.799-3.584-1.424-4.189-4.192-6.579-6.754-12.983 1.64-15.255 8.926-24.623-.352-4.724-4.662-2.811-7.695-5.124-13.275-1.697-4.043-5.442-5.56-8.633-8.316-9.655-8.315-1.7-17.532-10.589-24.008-16.34-11.906-11.878 3.728-21.617 2.727-5.468-2.351-3.813-4.566-9.478-5.365-4.489 3.588-2.242 10.958-12.467 7.633-20.946-6.719-14.676-9.762-11.913-18.27-2.696-2.684-8.545-5.954-12.257-7.345-10.056-3.71-7.053 1.141-15.239 1.358-14.201.399-20.029 5.095-30.658-3.299-3.026-2.392-9.851-5.741-11.728-8.168-4.619-6.053-1.068-10.343.253-15.33 3.401-13.244 2.89-18.966-2.167-33.01-20.386 8.597-13.691 26.971-32.825 25.489z" fill="#1E2D44" stroke="#A1ABB1" stroke-width=".5"/><circle cx="466.5" cy="475.435" r="17.5" fill="#A1ABB1"/><circle cx="466.5" cy="475.435" r="2.5" fill="#B1163D"/><circle cx="518.5" cy="495.435" r="17.5" fill="#A1ABB1"/><circle cx="518.5" cy="495.435" r="2.5" fill="#B1163D"/><circle cx="558.5" cy="407.435" r="17.5" fill="#A1ABB1"/><circle cx="558.5" cy="407.435" r="2.5" fill="#B1163D"/><circle cx="613.5" cy="371.435" r="17.5" fill="#A1ABB1"/><circle cx="613.5" cy="371.435" r="2.5" fill="#B1163D"/><circle cx="628.5" cy="276.435" r="17.5" fill="#A1ABB1"/><circle cx="628.5" cy="276.435" r="2.5" fill="#B1163D"/><circle cx="626.5" cy="478.435" r="17.5" fill="#A1ABB1"/><circle cx="626.5" cy="478.435" r="2.5" fill="#B1163D"/><path fill="#fff" d="M138 225.935h300v130H138z"/><path d="M169.278 264.935v-9.09h6.156v2.106h-3.528v6.984h-2.628zm8.019.27c-.456 0-.852-.144-1.188-.432-.33-.294-.495-.684-.495-1.17 0-.33.075-.615.225-.855.156-.24.36-.426.612-.558a1.83 1.83 0 01.846-.198c.462 0 .858.147 1.188.441.336.288.504.678.504 1.17 0 .33-.078.615-.234.855-.156.24-.363.423-.621.549a1.776 1.776 0 01-.837.198zm14.104 0c-1.302 0-2.448-.267-3.438-.801a5.785 5.785 0 01-2.313-2.277c-.552-.984-.828-2.139-.828-3.465 0-.966.162-1.851.486-2.655a6.12 6.12 0 011.377-2.088 6.106 6.106 0 012.097-1.368c.81-.324 1.695-.486 2.655-.486 1.02 0 1.884.129 2.592.387a6.387 6.387 0 011.908 1.089l-1.35 2.187a3.526 3.526 0 00-1.305-.81 4.87 4.87 0 00-1.665-.27c-.624 0-1.185.093-1.683.279a3.512 3.512 0 00-1.26.801 3.484 3.484 0 00-.792 1.251c-.18.486-.27 1.035-.27 1.647 0 .84.162 1.557.486 2.151a3.37 3.37 0 001.404 1.359c.612.318 1.341.477 2.187.477a5.65 5.65 0 001.728-.27 5.068 5.068 0 001.611-.864l1.224 2.241a7.172 7.172 0 01-2.088 1.089c-.798.264-1.719.396-2.763.396zm7.673 3.753c-.384 0-.762-.039-1.134-.117a3.827 3.827 0 01-1.053-.387l.567-2.214c.192.108.402.192.63.252.234.06.45.09.648.09.36 0 .657-.078.891-.234.234-.156.408-.411.522-.765l.189-.576-3.546-9.162h2.853l2.178 6.498 2.115-6.498h2.781l-3.816 10.125c-.3.756-.645 1.35-1.035 1.782-.39.438-.819.747-1.287.927a4.032 4.032 0 01-1.503.279zm9.017-.243v-12.87h2.286v1.116a3.839 3.839 0 011.323-.999c.54-.258 1.179-.387 1.917-.387.876 0 1.656.204 2.34.612a4.251 4.251 0 011.611 1.692c.39.726.585 1.563.585 2.511 0 .678-.114 1.308-.342 1.89a4.652 4.652 0 01-.945 1.53c-.408.438-.891.78-1.449 1.026a4.524 4.524 0 01-1.845.369 4.188 4.188 0 01-1.611-.297 3.85 3.85 0 01-1.251-.837v4.644h-2.619zm5.04-5.787c.468 0 .885-.102 1.251-.306.372-.21.66-.504.864-.882.21-.378.315-.828.315-1.35 0-.522-.105-.972-.315-1.35a2.2 2.2 0 00-.864-.873 2.468 2.468 0 00-1.251-.315 2.45 2.45 0 00-1.242.315 2.2 2.2 0 00-.864.873c-.21.378-.315.828-.315 1.35 0 .522.102.972.306 1.35.21.378.498.672.864.882.366.204.783.306 1.251.306zm6.825 2.007v-9.09h6.156v2.106h-3.528v6.984h-2.628zm9.264 4.023c-.384 0-.762-.039-1.134-.117a3.827 3.827 0 01-1.053-.387l.567-2.214c.192.108.402.192.63.252.234.06.45.09.648.09.36 0 .657-.078.891-.234.234-.156.408-.411.522-.765l.189-.576-3.546-9.162h2.853l2.178 6.498 2.115-6.498h2.781l-3.816 10.125c-.3.756-.645 1.35-1.035 1.782-.39.438-.819.747-1.287.927a4.032 4.032 0 01-1.503.279zm11.162-4.023v-6.984h-2.745v-2.106h8.109v2.106h-2.736v6.984h-2.628zm-66.558 31.21a5.38 5.38 0 01-2.051-.385 5.097 5.097 0 01-1.638-1.085 5.025 5.025 0 01-1.085-1.624 5.22 5.22 0 01-.385-2.016c0-.728.128-1.402.385-2.023a5.025 5.025 0 011.085-1.624 5.014 5.014 0 011.638-1.078 5.38 5.38 0 012.051-.385c.733 0 1.412.131 2.037.392a5.035 5.035 0 011.638 1.092c.467.467.828 1.01 1.085 1.631a5.06 5.06 0 01.392 1.995 5.15 5.15 0 01-.392 2.016 4.885 4.885 0 01-1.085 1.624 5.097 5.097 0 01-1.638 1.085 5.304 5.304 0 01-2.037.385zm0-1.484c.495 0 .954-.084 1.379-.252a3.324 3.324 0 001.12-.735c.317-.322.565-.705.742-1.148.182-.448.273-.945.273-1.491 0-.733-.156-1.37-.469-1.911a3.258 3.258 0 00-1.26-1.267 3.58 3.58 0 00-1.785-.448 3.67 3.67 0 00-1.386.259 3.319 3.319 0 00-1.12.728c-.317.317-.567.7-.749 1.148-.177.443-.266.94-.266 1.491 0 .733.156 1.372.469 1.918.313.541.733.961 1.26 1.26a3.592 3.592 0 001.792.448zm10.368 4.214v-13.02h1.54v13.02h-1.54zm.756-2.758c-.971 0-1.82-.138-2.548-.413-.724-.28-1.286-.691-1.687-1.232-.402-.546-.602-1.213-.602-2.002 0-.793.2-1.461.602-2.002.406-.541.975-.95 1.708-1.225.732-.28 1.586-.42 2.562-.42.984 0 1.838.138 2.562.413.728.275 1.292.684 1.694 1.225.401.541.602 1.211.602 2.009 0 .593-.117 1.118-.35 1.575a3.168 3.168 0 01-1.001 1.141c-.434.308-.95.541-1.547.7a8.001 8.001 0 01-1.995.231zm.028-1.274c.714 0 1.316-.089 1.806-.266.494-.177.87-.441 1.127-.791.256-.35.385-.789.385-1.316s-.133-.966-.399-1.316c-.262-.355-.642-.618-1.141-.791-.495-.177-1.095-.266-1.799-.266-.7 0-1.298.089-1.792.266-.495.173-.873.436-1.134.791-.262.35-.392.789-.392 1.316s.13.966.392 1.316c.266.35.646.614 1.141.791.499.177 1.101.266 1.806.266zm6.408 1.092v-6.93h1.491v4.676l3.759-4.676h1.344v6.93h-1.484v-4.732l-3.794 4.732h-1.316zm11.914.21c-.728 0-1.377-.159-1.946-.476a3.572 3.572 0 01-1.344-1.309c-.322-.555-.483-1.185-.483-1.89 0-.532.095-1.02.287-1.463a3.46 3.46 0 01.812-1.169c.35-.331.76-.588 1.232-.77a4.293 4.293 0 011.547-.273c.466 0 .898.063 1.295.189.401.121.77.31 1.106.567l-.742 1.176a2.104 2.104 0 00-.742-.427 2.744 2.744 0 00-.882-.14c-.486 0-.903.091-1.253.273a1.97 1.97 0 00-.819.791c-.192.341-.287.754-.287 1.239 0 .723.21 1.29.63 1.701.424.411 1.001.616 1.729.616.345 0 .672-.063.98-.189a2.35 2.35 0 00.77-.511l.735 1.169c-.369.28-.78.499-1.232.658a4.175 4.175 0 01-1.393.238zm7.472-.21v-6.93h1.491v4.676l3.759-4.676h1.344v6.93h-1.484v-4.732l-3.794 4.732h-1.316zm15.346.21c-.728 0-1.376-.159-1.946-.476a3.587 3.587 0 01-1.344-1.309c-.322-.555-.483-1.185-.483-1.89 0-.532.096-1.02.287-1.463.192-.448.462-.838.812-1.169.35-.331.761-.588 1.232-.77a4.297 4.297 0 011.547-.273c.467 0 .899.063 1.295.189.402.121.77.31 1.106.567l-.742 1.176a2.095 2.095 0 00-.742-.427 2.735 2.735 0 00-.882-.14c-.485 0-.903.091-1.253.273a1.97 1.97 0 00-.819.791c-.191.341-.287.754-.287 1.239 0 .723.21 1.29.63 1.701.425.411 1.001.616 1.729.616.346 0 .672-.063.98-.189.308-.131.565-.301.77-.511l.735 1.169c-.368.28-.779.499-1.232.658a4.17 4.17 0 01-1.393.238zm8.647-.21l-2.296-3.682 2.135-3.248h1.645l-2.121 3.178 2.478 3.752h-1.841zm-4.606 0v-6.93h1.54v2.674h2.086v1.274h-2.086v2.982h-1.54zm7.555.119l-.539-1.386c.476-.121.823-.313 1.043-.574.224-.261.364-.625.42-1.092.06-.467.091-1.069.091-1.806v-2.191h5.635v6.93h-1.54v-5.656h-2.66v.917a15.6 15.6 0 01-.105 1.939c-.066.551-.187 1.02-.364 1.407a2.486 2.486 0 01-.749.952c-.318.243-.728.429-1.232.56zm11.73.091c-.691 0-1.302-.159-1.834-.476a3.463 3.463 0 01-1.247-1.309c-.298-.555-.447-1.185-.447-1.89 0-.527.086-1.015.259-1.463.172-.448.415-.838.728-1.169a3.245 3.245 0 011.12-.77 3.635 3.635 0 011.421-.273c.681 0 1.25.145 1.708.434a2.93 2.93 0 011.057 1.12l-.217.329v-1.673h1.372v6.93h-1.372v-1.673l.217.329a2.93 2.93 0 01-1.057 1.12c-.458.289-1.027.434-1.708.434zm.203-1.365c.42 0 .795-.093 1.127-.28.331-.191.59-.46.777-.805.191-.345.287-.754.287-1.225 0-.471-.096-.88-.287-1.225a1.965 1.965 0 00-.777-.805 2.254 2.254 0 00-1.127-.28c-.425 0-.803.093-1.134.28a2.016 2.016 0 00-.777.805c-.192.345-.287.754-.287 1.225 0 .471.095.88.287 1.225.191.345.45.614.777.805.331.187.709.28 1.134.28zm10.893 1.155v-5.656h-2.8v.917c0 .63-.038 1.199-.112 1.708a4.508 4.508 0 01-.399 1.344c-.192.383-.46.7-.805.952-.341.252-.777.436-1.309.553l-.378-1.043c.443-.107.777-.308 1.001-.602.224-.294.373-.681.448-1.162.079-.485.119-1.069.119-1.75v-2.191h5.775v6.93h-1.54zm-5.803 2.1v-3.325l.952.098.238-.147h7.546v3.374h-1.407v-2.1h-5.922v2.1h-1.407zm13.162-1.89c-.728 0-1.376-.159-1.946-.476a3.587 3.587 0 01-1.344-1.309c-.322-.555-.483-1.185-.483-1.89 0-.532.096-1.02.287-1.463.192-.448.462-.838.812-1.169.35-.331.761-.588 1.232-.77a4.297 4.297 0 011.547-.273c.467 0 .899.063 1.295.189.402.121.77.31 1.106.567l-.742 1.176a2.095 2.095 0 00-.742-.427 2.735 2.735 0 00-.882-.14c-.485 0-.903.091-1.253.273a1.97 1.97 0 00-.819.791c-.191.341-.287.754-.287 1.239 0 .723.21 1.29.63 1.701.425.411 1.001.616 1.729.616.346 0 .672-.063.98-.189.308-.131.565-.301.77-.511l.735 1.169c-.368.28-.779.499-1.232.658a4.17 4.17 0 01-1.393.238zm8.647-.21l-2.296-3.682 2.135-3.248h1.645l-2.121 3.178 2.478 3.752h-1.841zm-4.606 0v-6.93h1.54v2.674h2.086v1.274h-2.086v2.982h-1.54zm7.807 0v-6.93h1.491v4.676l3.759-4.676h1.344v6.93h-1.484v-4.732l-3.794 4.732h-1.316zm11.9.21c-.747 0-1.402-.152-1.967-.455a3.339 3.339 0 01-1.323-1.288c-.313-.551-.469-1.19-.469-1.918 0-.532.091-1.022.273-1.47a3.475 3.475 0 011.932-1.946 3.852 3.852 0 011.463-.273c.574 0 1.085.103 1.533.308.448.201.819.483 1.113.847.299.364.509.791.63 1.281.126.485.147 1.013.063 1.582h-5.53a1.97 1.97 0 00.273 1.092c.191.308.464.548.819.721.359.173.782.259 1.267.259.392 0 .77-.058 1.134-.175a3.276 3.276 0 001.001-.532l.595 1.106a3.243 3.243 0 01-.812.469 5.388 5.388 0 01-.994.287c-.345.07-.679.105-1.001.105zm-2.191-4.466h3.927c-.014-.523-.182-.933-.504-1.232-.317-.299-.77-.448-1.358-.448-.569 0-1.043.149-1.421.448-.373.299-.588.709-.644 1.232zm10.471 4.256v-6.93h6.545v6.93h-1.54v-5.656h-3.465v5.656h-1.54zm11.838.21c-.723 0-1.37-.166-1.939-.497a3.69 3.69 0 01-1.33-1.337 3.63 3.63 0 01-.483-1.841 3.617 3.617 0 011.057-2.576c.341-.341.74-.609 1.197-.805a3.78 3.78 0 011.505-.294c.723 0 1.367.168 1.932.504a3.604 3.604 0 011.337 1.337 3.59 3.59 0 01.483 1.834c0 .49-.093.957-.28 1.4a3.62 3.62 0 01-.777 1.176 3.697 3.697 0 01-1.19.805 3.797 3.797 0 01-1.512.294zm0-1.365c.429 0 .81-.093 1.141-.28.336-.191.6-.46.791-.805.191-.345.287-.754.287-1.225 0-.471-.096-.88-.287-1.225a1.991 1.991 0 00-.791-.805 2.28 2.28 0 00-1.141-.28c-.429 0-.812.093-1.148.28a2.006 2.006 0 00-.784.805c-.187.345-.28.754-.28 1.225 0 .471.096.88.287 1.225.191.345.453.614.784.805.336.187.716.28 1.141.28zm5.306 1.155v-6.93h1.379l3.108 4.494-.665.014 2.954-4.508h1.365v6.93h-1.4l.021-5.124.287.126-2.478 3.619h-.994l-2.59-3.626.287-.126.021 5.131h-1.295zm13.445.21c-.746 0-1.402-.152-1.967-.455a3.352 3.352 0 01-1.323-1.288c-.312-.551-.469-1.19-.469-1.918 0-.532.091-1.022.273-1.47a3.475 3.475 0 011.932-1.946 3.852 3.852 0 011.463-.273c.574 0 1.085.103 1.533.308.448.201.819.483 1.113.847.299.364.509.791.63 1.281.126.485.147 1.013.063 1.582h-5.53a1.97 1.97 0 00.273 1.092c.192.308.465.548.819.721.36.173.782.259 1.267.259.392 0 .77-.058 1.134-.175a3.264 3.264 0 001.001-.532l.595 1.106a3.225 3.225 0 01-.812.469 5.365 5.365 0 01-.994.287c-.345.07-.679.105-1.001.105zm-2.191-4.466h3.927c-.014-.523-.182-.933-.504-1.232-.317-.299-.77-.448-1.358-.448-.569 0-1.043.149-1.421.448-.373.299-.588.709-.644 1.232zm17.728 6.356v-2.1h-1.134v-1.274h2.548v3.374h-1.414zm-10.689-2.1v-6.93h1.491v5.656h2.926v-5.656h1.491v5.656h2.926v-5.656h1.491v6.93h-10.325zm16.521.21c-.746 0-1.402-.152-1.967-.455a3.352 3.352 0 01-1.323-1.288c-.312-.551-.469-1.19-.469-1.918 0-.532.091-1.022.273-1.47a3.475 3.475 0 011.932-1.946 3.852 3.852 0 011.463-.273c.574 0 1.085.103 1.533.308.448.201.819.483 1.113.847.299.364.509.791.63 1.281.126.485.147 1.013.063 1.582h-5.53a1.97 1.97 0 00.273 1.092c.192.308.465.548.819.721.36.173.782.259 1.267.259.392 0 .77-.058 1.134-.175a3.264 3.264 0 001.001-.532l.595 1.106a3.225 3.225 0 01-.812.469 5.365 5.365 0 01-.994.287c-.345.07-.679.105-1.001.105zm-2.191-4.466h3.927c-.014-.523-.182-.933-.504-1.232-.317-.299-.77-.448-1.358-.448-.569 0-1.043.149-1.421.448-.373.299-.588.709-.644 1.232zm7.039 4.256v-6.93h1.54v2.674h3.472v-2.674h1.54v6.93h-1.54v-2.982h-3.472v2.982h-1.54zm8.695 0v-6.93h1.491v4.676l3.759-4.676h1.344v6.93h-1.484v-4.732l-3.794 4.732h-1.316zm8.254 0l2.66-3.549.336.994c-.574.005-1.064-.079-1.47-.252-.406-.177-.717-.425-.931-.742-.21-.322-.315-.702-.315-1.141 0-.471.119-.873.357-1.204.238-.336.574-.593 1.008-.77.434-.177.942-.266 1.526-.266h2.989v6.93h-1.484v-5.761h-1.351c-.495 0-.871.086-1.127.259-.252.173-.378.432-.378.777 0 .336.116.597.35.784.238.182.581.273 1.029.273h1.673v1.12h-1.218l-1.897 2.548h-1.757zm-201.452 20.21c-.723 0-1.37-.166-1.939-.497a3.69 3.69 0 01-1.33-1.337 3.63 3.63 0 01-.483-1.841 3.617 3.617 0 011.057-2.576c.341-.341.74-.609 1.197-.805a3.78 3.78 0 011.505-.294c.723 0 1.367.168 1.932.504a3.604 3.604 0 011.337 1.337 3.59 3.59 0 01.483 1.834c0 .49-.093.957-.28 1.4a3.62 3.62 0 01-.777 1.176 3.697 3.697 0 01-1.19.805 3.797 3.797 0 01-1.512.294zm0-1.365c.429 0 .81-.093 1.141-.28.336-.191.6-.46.791-.805.191-.345.287-.754.287-1.225 0-.471-.096-.88-.287-1.225a1.991 1.991 0 00-.791-.805 2.28 2.28 0 00-1.141-.28c-.429 0-.812.093-1.148.28a2.006 2.006 0 00-.784.805c-.187.345-.28.754-.28 1.225 0 .471.096.88.287 1.225.191.345.453.614.784.805.336.187.716.28 1.141.28zm8.694 1.365c-.583 0-1.111-.1-1.582-.301a3.3 3.3 0 01-1.204-.868 3.977 3.977 0 01-.763-1.393c-.173-.551-.259-1.176-.259-1.876 0-.77.058-1.461.175-2.072.121-.611.31-1.141.567-1.589a3.374 3.374 0 011.029-1.106c.429-.289.95-.497 1.561-.623l3.318-.672.252 1.337-3.227.623c-.541.112-.966.292-1.274.539a2.171 2.171 0 00-.679.945c-.145.383-.24.833-.287 1.351.294-.397.66-.714 1.099-.952.439-.238.95-.357 1.533-.357.658 0 1.239.156 1.743.469.509.308.905.721 1.19 1.239.285.518.427 1.092.427 1.722 0 .49-.086.952-.259 1.386a3.378 3.378 0 01-.735 1.148 3.502 3.502 0 01-1.148.77c-.443.187-.936.28-1.477.28zm-.035-1.365c.406 0 .768-.089 1.085-.266.322-.182.574-.436.756-.763.182-.331.273-.723.273-1.176 0-.453-.091-.842-.273-1.169a1.89 1.89 0 00-.756-.763 2.14 2.14 0 00-1.085-.273c-.406 0-.77.091-1.092.273a1.904 1.904 0 00-.749.763c-.182.327-.273.716-.273 1.169 0 .453.091.845.273 1.176.182.327.432.581.749.763a2.23 2.23 0 001.092.266zm15.963 3.255v-2.1h-1.134v-1.274h2.548v3.374h-1.414zm-10.689-2.1v-6.93h1.491v5.656h2.926v-5.656h1.491v5.656h2.926v-5.656h1.491v6.93h-10.325zm16.521.21c-.746 0-1.402-.152-1.967-.455a3.352 3.352 0 01-1.323-1.288c-.312-.551-.469-1.19-.469-1.918 0-.532.091-1.022.273-1.47a3.475 3.475 0 011.932-1.946 3.852 3.852 0 011.463-.273c.574 0 1.085.103 1.533.308.448.201.819.483 1.113.847.299.364.509.791.63 1.281.126.485.147 1.013.063 1.582h-5.53a1.97 1.97 0 00.273 1.092c.192.308.465.548.819.721.36.173.782.259 1.267.259.392 0 .77-.058 1.134-.175a3.264 3.264 0 001.001-.532l.595 1.106a3.225 3.225 0 01-.812.469 5.365 5.365 0 01-.994.287c-.345.07-.679.105-1.001.105zm-2.191-4.466h3.927c-.014-.523-.182-.933-.504-1.232-.317-.299-.77-.448-1.358-.448-.569 0-1.043.149-1.421.448-.373.299-.588.709-.644 1.232zm7.039 4.256v-6.93h1.491v4.676l3.759-4.676h1.344v6.93h-1.484v-4.732l-3.794 4.732h-1.316zm3.297-8.12c-.518 0-.973-.107-1.365-.322a2.29 2.29 0 01-.91-.889c-.215-.378-.315-.812-.301-1.302h1.288c-.019.429.089.777.322 1.043.238.261.56.392.966.392.406 0 .726-.131.959-.392.233-.266.338-.614.315-1.043h1.295c.009.485-.096.917-.315 1.295a2.334 2.334 0 01-.91.896c-.387.215-.835.322-1.344.322zm8.871 8.12v-6.93h6.545v6.93h-1.54v-5.656h-3.465v5.656h-1.54zm8.43.119l-.539-1.386c.476-.121.823-.313 1.043-.574.224-.261.364-.625.42-1.092.06-.467.091-1.069.091-1.806v-2.191h5.635v6.93h-1.54v-5.656h-2.66v.917a15.6 15.6 0 01-.105 1.939c-.066.551-.187 1.02-.364 1.407a2.486 2.486 0 01-.749.952c-.318.243-.728.429-1.232.56zm11.954.091c-.724 0-1.37-.166-1.939-.497a3.69 3.69 0 01-1.33-1.337 3.63 3.63 0 01-.483-1.841 3.617 3.617 0 011.057-2.576 3.76 3.76 0 011.197-.805 3.78 3.78 0 011.505-.294c.723 0 1.367.168 1.932.504a3.604 3.604 0 011.337 1.337 3.59 3.59 0 01.483 1.834c0 .49-.094.957-.28 1.4a3.62 3.62 0 01-.777 1.176 3.697 3.697 0 01-1.19.805 3.804 3.804 0 01-1.512.294zm0-1.365c.429 0 .809-.093 1.141-.28.336-.191.599-.46.791-.805.191-.345.287-.754.287-1.225 0-.471-.096-.88-.287-1.225a1.997 1.997 0 00-.791-.805 2.284 2.284 0 00-1.141-.28c-.43 0-.812.093-1.148.28a2 2 0 00-.784.805c-.187.345-.28.754-.28 1.225 0 .471.095.88.287 1.225.191.345.452.614.784.805.336.187.716.28 1.141.28zm15.994 3.255v-2.1h-1.134v-1.274h2.548v3.374h-1.414zm-10.689-2.1v-6.93h1.491v5.656h2.926v-5.656h1.491v5.656h2.926v-5.656h1.491v6.93h-10.325zm16.291.21c-.691 0-1.302-.159-1.834-.476a3.453 3.453 0 01-1.246-1.309c-.299-.555-.448-1.185-.448-1.89 0-.527.086-1.015.259-1.463.172-.448.415-.838.728-1.169a3.245 3.245 0 011.12-.77 3.635 3.635 0 011.421-.273c.681 0 1.25.145 1.708.434a2.93 2.93 0 011.057 1.12l-.217.329v-1.673h1.372v6.93h-1.372v-1.673l.217.329a2.93 2.93 0 01-1.057 1.12c-.458.289-1.027.434-1.708.434zm.203-1.365c.42 0 .795-.093 1.127-.28.331-.191.59-.46.777-.805.191-.345.287-.754.287-1.225 0-.471-.096-.88-.287-1.225a1.965 1.965 0 00-.777-.805 2.254 2.254 0 00-1.127-.28c-.425 0-.803.093-1.134.28a2.016 2.016 0 00-.777.805c-.192.345-.287.754-.287 1.225 0 .471.095.88.287 1.225.191.345.45.614.777.805.331.187.709.28 1.134.28zm10.893 1.155v-5.656h-2.8v.917c0 .63-.037 1.199-.112 1.708a4.508 4.508 0 01-.399 1.344 2.6 2.6 0 01-.805.952c-.341.252-.777.436-1.309.553l-.378-1.043c.443-.107.777-.308 1.001-.602.224-.294.373-.681.448-1.162.079-.485.119-1.069.119-1.75v-2.191h5.775v6.93h-1.54zm-5.803 2.1v-3.325l.952.098.238-.147h7.546v3.374H274.3v-2.1h-5.922v2.1h-1.407zm10.094-2.1v-6.93h1.54v5.761h1.323c.504 0 .884-.098 1.141-.294.257-.196.385-.488.385-.875 0-.383-.119-.677-.357-.882-.238-.205-.588-.308-1.05-.308h-1.652v-1.155h1.771c.896 0 1.601.201 2.114.602.513.401.77.982.77 1.743 0 .49-.124.91-.371 1.26-.247.345-.595.611-1.043.798-.443.187-.964.28-1.561.28h-3.01zm7.602 0v-6.93h1.54l-.007 2.674h2.345v1.274H286.2l.007 2.982h-1.54zm6.783.21c-.728 0-1.375-.166-1.939-.497a3.74 3.74 0 01-1.337-1.337 3.63 3.63 0 01-.483-1.841c0-.495.093-.961.28-1.4a3.705 3.705 0 011.974-1.981 3.78 3.78 0 011.505-.294c.728 0 1.374.168 1.939.504a3.622 3.622 0 011.33 1.337c.326.555.49 1.167.49 1.834 0 .49-.094.957-.28 1.4a3.697 3.697 0 01-1.974 1.981 3.783 3.783 0 01-1.505.294zm0-1.365c.429 0 .809-.093 1.141-.28.331-.191.592-.46.784-.805.191-.345.287-.754.287-1.225 0-.471-.096-.88-.287-1.225a2.013 2.013 0 00-.784-.805 2.284 2.284 0 00-1.141-.28c-.43 0-.812.093-1.148.28a2 2 0 00-.784.805c-.187.345-.28.754-.28 1.225 0 .471.093.88.28 1.225.191.345.452.614.784.805.336.187.718.28 1.148.28zm12.122 1.365c-.583 0-1.11-.1-1.582-.301a3.308 3.308 0 01-1.204-.868 3.993 3.993 0 01-.763-1.393c-.172-.551-.259-1.176-.259-1.876 0-.77.059-1.461.175-2.072.122-.611.311-1.141.567-1.589a3.395 3.395 0 011.029-1.106c.43-.289.95-.497 1.561-.623l3.318-.672.252 1.337-3.227.623c-.541.112-.966.292-1.274.539a2.171 2.171 0 00-.679.945c-.144.383-.24.833-.287 1.351a3.326 3.326 0 011.099-.952c.439-.238.95-.357 1.533-.357.658 0 1.239.156 1.743.469.509.308.906.721 1.19 1.239.285.518.427 1.092.427 1.722 0 .49-.086.952-.259 1.386a3.378 3.378 0 01-.735 1.148 3.491 3.491 0 01-1.148.77 3.76 3.76 0 01-1.477.28zm-.035-1.365c.406 0 .768-.089 1.085-.266.322-.182.574-.436.756-.763.182-.331.273-.723.273-1.176 0-.453-.091-.842-.273-1.169a1.89 1.89 0 00-.756-.763 2.14 2.14 0 00-1.085-.273c-.406 0-.77.091-1.092.273a1.904 1.904 0 00-.749.763c-.182.327-.273.716-.273 1.169 0 .453.091.845.273 1.176.182.327.432.581.749.763a2.23 2.23 0 001.092.266zm8.5 1.365c-.724 0-1.37-.166-1.939-.497a3.69 3.69 0 01-1.33-1.337 3.63 3.63 0 01-.483-1.841 3.617 3.617 0 011.057-2.576 3.76 3.76 0 011.197-.805 3.78 3.78 0 011.505-.294c.723 0 1.367.168 1.932.504a3.604 3.604 0 011.337 1.337 3.59 3.59 0 01.483 1.834c0 .49-.094.957-.28 1.4a3.62 3.62 0 01-.777 1.176 3.697 3.697 0 01-1.19.805 3.804 3.804 0 01-1.512.294zm0-1.365c.429 0 .809-.093 1.141-.28.336-.191.599-.46.791-.805.191-.345.287-.754.287-1.225 0-.471-.096-.88-.287-1.225a1.997 1.997 0 00-.791-.805 2.284 2.284 0 00-1.141-.28c-.43 0-.812.093-1.148.28a2 2 0 00-.784.805c-.187.345-.28.754-.28 1.225 0 .471.095.88.287 1.225.191.345.452.614.784.805.336.187.716.28 1.141.28zm5.053 1.274l-.539-1.386c.476-.121.824-.313 1.043-.574.224-.261.364-.625.42-1.092.061-.467.091-1.069.091-1.806v-2.191h5.635v6.93h-1.54v-5.656h-2.66v.917a15.6 15.6 0 01-.105 1.939c-.065.551-.186 1.02-.364 1.407a2.476 2.476 0 01-.749.952c-.317.243-.728.429-1.232.56zm11.961.091c-.746 0-1.402-.152-1.967-.455a3.352 3.352 0 01-1.323-1.288c-.312-.551-.469-1.19-.469-1.918 0-.532.091-1.022.273-1.47a3.475 3.475 0 011.932-1.946 3.852 3.852 0 011.463-.273c.574 0 1.085.103 1.533.308.448.201.819.483 1.113.847.299.364.509.791.63 1.281.126.485.147 1.013.063 1.582h-5.53a1.97 1.97 0 00.273 1.092c.192.308.465.548.819.721.36.173.782.259 1.267.259.392 0 .77-.058 1.134-.175a3.264 3.264 0 001.001-.532l.595 1.106a3.225 3.225 0 01-.812.469 5.365 5.365 0 01-.994.287c-.345.07-.679.105-1.001.105zm-2.191-4.466h3.927c-.014-.523-.182-.933-.504-1.232-.317-.299-.77-.448-1.358-.448-.569 0-1.043.149-1.421.448-.373.299-.588.709-.644 1.232zm10.271 4.466c-.746 0-1.402-.152-1.967-.455a3.352 3.352 0 01-1.323-1.288c-.312-.551-.469-1.19-.469-1.918 0-.532.091-1.022.273-1.47a3.475 3.475 0 011.932-1.946 3.852 3.852 0 011.463-.273c.574 0 1.085.103 1.533.308.448.201.819.483 1.113.847.299.364.509.791.63 1.281.126.485.147 1.013.063 1.582h-5.53a1.97 1.97 0 00.273 1.092c.192.308.465.548.819.721.36.173.782.259 1.267.259.392 0 .77-.058 1.134-.175a3.264 3.264 0 001.001-.532l.595 1.106a3.225 3.225 0 01-.812.469 5.365 5.365 0 01-.994.287c-.345.07-.679.105-1.001.105zm-2.191-4.466h3.927c-.014-.523-.182-.933-.504-1.232-.317-.299-.77-.448-1.358-.448-.569 0-1.043.149-1.421.448-.373.299-.588.709-.644 1.232zm10.233 4.256v-1.12l2.121-1.939a28.936 28.936 0 001.624-1.589c.411-.448.709-.852.896-1.211a2.34 2.34 0 00.28-1.092c0-.537-.184-.954-.553-1.253-.364-.303-.873-.455-1.526-.455-.434 0-.849.075-1.246.224a2.761 2.761 0 00-1.015.651l-.574-1.141a4.047 4.047 0 011.372-.805 4.767 4.767 0 011.631-.28c.677 0 1.267.121 1.771.364a2.74 2.74 0 011.183 1.015c.285.434.427.943.427 1.526 0 .406-.082.812-.245 1.218-.159.401-.446.854-.861 1.358-.411.504-.994 1.108-1.75 1.813l-1.505 1.386h4.606v1.33h-6.636zm11.127.21c-.602 0-1.18-.086-1.736-.259-.55-.173-1.005-.404-1.365-.693l.504-1.274c.322.28.707.495 1.155.644.448.145.901.217 1.358.217.458 0 .854-.075 1.19-.224.336-.154.595-.373.777-.658.182-.285.273-.63.273-1.036 0-.373-.095-.693-.287-.959a1.817 1.817 0 00-.798-.623 2.87 2.87 0 00-1.148-.217c-.275 0-.56.033-.854.098a4.88 4.88 0 00-.903.301l-.644-.693.504-4.62 5.404-.007v1.372h-4.291l-.294 2.555c.243-.079.483-.14.721-.182.243-.042.483-.063.721-.063.644 0 1.221.124 1.729.371.509.243.91.595 1.204 1.057.299.462.448 1.015.448 1.659 0 .653-.156 1.223-.469 1.708a3.066 3.066 0 01-1.288 1.127c-.55.266-1.187.399-1.911.399zm9.24 0a3.532 3.532 0 01-1.687-.399 3.82 3.82 0 01-1.267-1.106 5.253 5.253 0 01-.791-1.631 6.935 6.935 0 01-.273-1.974c0-.705.091-1.365.273-1.981a5.172 5.172 0 01.791-1.624 3.82 3.82 0 011.267-1.106 3.532 3.532 0 011.687-.399c.625 0 1.185.133 1.68.399.499.266.922.635 1.267 1.106.35.467.616 1.008.798 1.624.187.616.28 1.276.28 1.981 0 .7-.093 1.358-.28 1.974a5.158 5.158 0 01-.798 1.631c-.345.471-.768.84-1.267 1.106-.495.266-1.055.399-1.68.399zm0-1.386a2.06 2.06 0 001.015-.252 2.37 2.37 0 00.784-.742c.224-.322.394-.712.511-1.169a6.37 6.37 0 00.175-1.561c0-.775-.105-1.44-.315-1.995-.205-.56-.495-.987-.868-1.281a2.005 2.005 0 00-1.302-.448c-.369 0-.707.086-1.015.259a2.297 2.297 0 00-.784.735 3.79 3.79 0 00-.511 1.169 6.318 6.318 0 00-.175 1.561c0 .775.103 1.44.308 1.995.21.555.502.982.875 1.281a2.02 2.02 0 001.302.448zm9.516 1.386a3.529 3.529 0 01-1.687-.399 3.82 3.82 0 01-1.267-1.106 5.231 5.231 0 01-.791-1.631 6.935 6.935 0 01-.273-1.974c0-.705.091-1.365.273-1.981a5.15 5.15 0 01.791-1.624 3.82 3.82 0 011.267-1.106 3.529 3.529 0 011.687-.399c.625 0 1.185.133 1.68.399.499.266.921.635 1.267 1.106.35.467.616 1.008.798 1.624.186.616.28 1.276.28 1.981 0 .7-.094 1.358-.28 1.974a5.158 5.158 0 01-.798 1.631c-.346.471-.768.84-1.267 1.106-.495.266-1.055.399-1.68.399zm0-1.386c.373 0 .711-.084 1.015-.252a2.38 2.38 0 00.784-.742c.224-.322.394-.712.511-1.169.116-.462.175-.982.175-1.561 0-.775-.105-1.44-.315-1.995-.206-.56-.495-.987-.868-1.281a2.005 2.005 0 00-1.302-.448c-.369 0-.707.086-1.015.259a2.288 2.288 0 00-.784.735c-.22.322-.39.712-.511 1.169a6.318 6.318 0 00-.175 1.561c0 .775.102 1.44.308 1.995.21.555.501.982.875 1.281a2.02 2.02 0 001.302.448zm9.265 1.176v-6.93h1.379l3.108 4.494-.665.014 2.954-4.508h1.365v6.93h-1.4l.021-5.124.287.126-2.478 3.619h-.994l-2.59-3.626.287-.126.021 5.131h-1.295zm9.889-5.054v-.798l1.421-1.246c.43-.383.78-.712 1.05-.987.276-.28.476-.532.602-.756.126-.229.189-.46.189-.693 0-.331-.121-.588-.364-.77-.238-.187-.567-.28-.987-.28-.284 0-.56.051-.826.154a1.833 1.833 0 00-.686.441l-.413-.833c.276-.243.591-.427.945-.553a3.303 3.303 0 011.113-.189c.686 0 1.237.175 1.652.525.42.35.63.812.63 1.386 0 .294-.063.579-.189.854a3.74 3.74 0 01-.609.889c-.275.313-.644.67-1.106 1.071l-.931.826h3.003v.959h-4.494zm7.028 5.264c-.298 0-.557-.096-.777-.287a.958.958 0 01-.322-.749c0-.21.049-.392.147-.546a.967.967 0 01.399-.364c.168-.089.353-.133.553-.133.304 0 .56.096.77.287.215.187.322.439.322.756 0 .205-.049.387-.147.546a.985.985 0 01-.399.357 1.12 1.12 0 01-.546.133z" fill="#1F1F1F"/><path fill="#fff" d="M0 470.935h300v130H0z"/><path d="M31.278 509.935v-9.09h6.156v2.106h-3.528v6.984h-2.628zm8.019.27c-.456 0-.852-.144-1.188-.432-.33-.294-.495-.684-.495-1.17 0-.33.075-.615.225-.855.156-.24.36-.426.612-.558a1.83 1.83 0 01.846-.198c.462 0 .858.147 1.188.441.336.288.504.678.504 1.17 0 .33-.078.615-.234.855-.156.24-.363.423-.621.549a1.776 1.776 0 01-.837.198zm10.576-.27v-10.17h-3.42v-2.43h9.522v2.43h-3.42v10.17h-2.682zm7.14 0v-9.09h2.627l-.009 3.348h2.961v2.106h-2.96l.008 3.636h-2.628zm9.26.27c-.978 0-1.845-.219-2.6-.657a4.899 4.899 0 01-1.774-1.746 4.71 4.71 0 01-.639-2.412c0-.642.123-1.251.37-1.827a4.797 4.797 0 011.034-1.539c.45-.45.981-.804 1.593-1.062a5.138 5.138 0 012.016-.387c.978 0 1.845.219 2.601.657a4.785 4.785 0 011.773 1.755c.426.726.64 1.527.64 2.403 0 .636-.124 1.245-.37 1.827a4.708 4.708 0 01-1.035 1.548c-.45.444-.98.795-1.593 1.053-.606.258-1.278.387-2.016.387zm0-2.277c.468 0 .885-.102 1.251-.306.366-.21.654-.504.864-.882.21-.378.315-.828.315-1.35 0-.522-.105-.972-.315-1.35a2.2 2.2 0 00-.864-.873 2.468 2.468 0 00-1.25-.315 2.47 2.47 0 00-1.252.315 2.28 2.28 0 00-.864.873c-.21.378-.315.828-.315 1.35 0 .522.105.972.315 1.35.216.378.507.672.873.882.366.204.78.306 1.242.306zm6.823 2.007v-9.09h2.295l3.816 5.706-1.125.018 3.6-5.724h2.295v9.09h-2.322l.027-6.165.513.207-2.862 4.329H77.75l-3.024-4.338.495-.198.045 6.165h-2.169zm17.678.27c-.99 0-1.86-.201-2.61-.603a4.39 4.39 0 01-1.755-1.683c-.42-.72-.63-1.563-.63-2.529 0-.702.12-1.347.36-1.935a4.539 4.539 0 011.026-1.521 4.652 4.652 0 011.557-.999 5.26 5.26 0 011.971-.36c.786 0 1.482.138 2.088.414a4.073 4.073 0 011.521 1.161c.402.492.681 1.071.837 1.737.162.666.177 1.389.045 2.169h-6.966c0 .42.108.786.324 1.098.222.312.531.558.927.738.402.174.87.261 1.404.261.528 0 1.032-.072 1.512-.216a4.82 4.82 0 001.359-.657l.873 1.8c-.288.222-.648.42-1.08.594a7.617 7.617 0 01-1.377.387c-.48.096-.942.144-1.386.144zm-2.403-5.958h4.293c-.018-.534-.207-.957-.567-1.269-.354-.312-.843-.468-1.467-.468-.624 0-1.143.156-1.557.468-.408.312-.642.735-.702 1.269zm8.72 5.688v-9.09h2.628v3.348h3.834v-3.348h2.628v9.09h-2.628v-3.636h-3.834v3.636H97.09zm11.654 0v-9.09h2.628v7.209h1.377c.528 0 .93-.111 1.206-.333.276-.222.414-.54.414-.954 0-.414-.129-.735-.387-.963-.252-.234-.612-.351-1.08-.351h-1.818v-1.863h2.025c1.23 0 2.196.267 2.898.801.708.534 1.062 1.326 1.062 2.376 0 .66-.165 1.227-.495 1.701-.33.468-.798.831-1.404 1.089-.6.252-1.308.378-2.124.378h-4.302zm-72.921 31.21a5.378 5.378 0 01-2.051-.385 5.09 5.09 0 01-1.638-1.085 5.03 5.03 0 01-1.085-1.624 5.225 5.225 0 01-.385-2.016c0-.728.128-1.402.385-2.023a5.03 5.03 0 011.085-1.624 5.008 5.008 0 011.638-1.078 5.378 5.378 0 012.051-.385c.733 0 1.412.131 2.037.392a5.029 5.029 0 011.638 1.092c.467.467.828 1.01 1.085 1.631a5.06 5.06 0 01.392 1.995c0 .723-.13 1.395-.392 2.016a4.885 4.885 0 01-1.085 1.624 5.09 5.09 0 01-1.638 1.085 5.306 5.306 0 01-2.037.385zm0-1.484c.495 0 .954-.084 1.379-.252.43-.173.803-.418 1.12-.735.317-.322.565-.705.742-1.148.182-.448.273-.945.273-1.491 0-.733-.156-1.37-.469-1.911a3.258 3.258 0 00-1.26-1.267 3.58 3.58 0 00-1.785-.448 3.67 3.67 0 00-1.386.259 3.322 3.322 0 00-1.12.728 3.42 3.42 0 00-.749 1.148c-.177.443-.266.94-.266 1.491 0 .733.156 1.372.469 1.918.313.541.733.961 1.26 1.26.532.299 1.13.448 1.792.448zm10.368 4.214v-13.02h1.54v13.02h-1.54zm.756-2.758c-.97 0-1.82-.138-2.548-.413-.724-.28-1.286-.691-1.687-1.232-.402-.546-.602-1.213-.602-2.002 0-.793.2-1.461.602-2.002.406-.541.975-.95 1.708-1.225.732-.28 1.586-.42 2.562-.42.984 0 1.838.138 2.562.413.728.275 1.292.684 1.694 1.225.401.541.602 1.211.602 2.009 0 .593-.117 1.118-.35 1.575a3.162 3.162 0 01-1.001 1.141c-.434.308-.95.541-1.547.7a7.994 7.994 0 01-1.995.231zm.028-1.274c.714 0 1.316-.089 1.806-.266.494-.177.87-.441 1.127-.791.256-.35.385-.789.385-1.316s-.133-.966-.4-1.316c-.26-.355-.64-.618-1.14-.791-.495-.177-1.095-.266-1.8-.266-.7 0-1.297.089-1.791.266-.495.173-.873.436-1.134.791-.262.35-.392.789-.392 1.316s.13.966.392 1.316c.266.35.646.614 1.14.791.5.177 1.102.266 1.807.266zm6.407 1.092v-6.93h1.491v4.676l3.76-4.676h1.343v6.93h-1.483v-4.732l-3.794 4.732h-1.317zm11.915.21c-.728 0-1.377-.159-1.946-.476a3.582 3.582 0 01-1.344-1.309c-.322-.555-.483-1.185-.483-1.89 0-.532.096-1.02.287-1.463a3.46 3.46 0 01.812-1.169c.35-.331.76-.588 1.232-.77a4.296 4.296 0 011.547-.273c.466 0 .898.063 1.295.189.401.121.77.31 1.106.567l-.742 1.176a2.1 2.1 0 00-.742-.427 2.738 2.738 0 00-.882-.14c-.486 0-.903.091-1.253.273a1.97 1.97 0 00-.82.791c-.19.341-.286.754-.286 1.239 0 .723.21 1.29.63 1.701.424.411 1 .616 1.729.616.345 0 .672-.063.98-.189a2.35 2.35 0 00.77-.511l.735 1.169a4.47 4.47 0 01-1.232.658 4.173 4.173 0 01-1.393.238zm7.472-.21v-6.93h1.491v4.676l3.76-4.676h1.343v6.93H77.88v-4.732l-3.794 4.732H72.77zm15.346.21c-.728 0-1.376-.159-1.946-.476a3.582 3.582 0 01-1.344-1.309c-.322-.555-.483-1.185-.483-1.89 0-.532.096-1.02.287-1.463.192-.448.462-.838.812-1.169.35-.331.76-.588 1.232-.77a4.296 4.296 0 011.547-.273c.467 0 .898.063 1.295.189.401.121.77.31 1.106.567l-.742 1.176a2.1 2.1 0 00-.742-.427 2.738 2.738 0 00-.882-.14c-.485 0-.903.091-1.253.273a1.97 1.97 0 00-.819.791c-.191.341-.287.754-.287 1.239 0 .723.21 1.29.63 1.701.425.411 1.001.616 1.73.616.344 0 .671-.063.98-.189a2.36 2.36 0 00.77-.511l.734 1.169c-.368.28-.78.499-1.232.658a4.174 4.174 0 01-1.393.238zm8.647-.21l-2.296-3.682 2.135-3.248h1.645l-2.121 3.178 2.478 3.752h-1.841zm-4.606 0v-6.93h1.54v2.674h2.086v1.274h-2.086v2.982h-1.54zm7.555.119l-.54-1.386c.477-.121.824-.313 1.044-.574.224-.261.364-.625.42-1.092.06-.467.091-1.069.091-1.806v-2.191h5.635v6.93h-1.54v-5.656h-2.66v.917a15.6 15.6 0 01-.105 1.939c-.066.551-.187 1.02-.364 1.407a2.486 2.486 0 01-.749.952c-.318.243-.728.429-1.232.56zm11.73.091c-.691 0-1.302-.159-1.834-.476a3.463 3.463 0 01-1.247-1.309c-.298-.555-.447-1.185-.447-1.89 0-.527.086-1.015.259-1.463.172-.448.415-.838.728-1.169a3.245 3.245 0 011.12-.77 3.635 3.635 0 011.421-.273c.681 0 1.25.145 1.708.434a2.93 2.93 0 011.057 1.12l-.217.329v-1.673h1.372v6.93h-1.372v-1.673l.217.329a2.93 2.93 0 01-1.057 1.12c-.458.289-1.027.434-1.708.434zm.203-1.365c.42 0 .795-.093 1.127-.28.331-.191.59-.46.777-.805.191-.345.287-.754.287-1.225 0-.471-.096-.88-.287-1.225a1.965 1.965 0 00-.777-.805 2.254 2.254 0 00-1.127-.28c-.425 0-.803.093-1.134.28a2.016 2.016 0 00-.777.805c-.192.345-.287.754-.287 1.225 0 .471.095.88.287 1.225.191.345.45.614.777.805.331.187.709.28 1.134.28zm10.893 1.155v-5.656h-2.8v.917c0 .63-.038 1.199-.112 1.708a4.508 4.508 0 01-.399 1.344c-.192.383-.46.7-.805.952-.341.252-.777.436-1.309.553l-.378-1.043c.443-.107.777-.308 1.001-.602.224-.294.373-.681.448-1.162.079-.485.119-1.069.119-1.75v-2.191h5.775v6.93h-1.54zm-5.803 2.1v-3.325l.952.098.238-.147h7.546v3.374h-1.407v-2.1h-5.922v2.1h-1.407zm13.162-1.89c-.728 0-1.376-.159-1.946-.476a3.587 3.587 0 01-1.344-1.309c-.322-.555-.483-1.185-.483-1.89 0-.532.096-1.02.287-1.463.192-.448.462-.838.812-1.169.35-.331.761-.588 1.232-.77a4.297 4.297 0 011.547-.273c.467 0 .899.063 1.295.189.402.121.77.31 1.106.567l-.742 1.176a2.095 2.095 0 00-.742-.427 2.735 2.735 0 00-.882-.14c-.485 0-.903.091-1.253.273a1.97 1.97 0 00-.819.791c-.191.341-.287.754-.287 1.239 0 .723.21 1.29.63 1.701.425.411 1.001.616 1.729.616.346 0 .672-.063.98-.189.308-.131.565-.301.77-.511l.735 1.169c-.368.28-.779.499-1.232.658a4.17 4.17 0 01-1.393.238zm8.647-.21l-2.296-3.682 2.135-3.248h1.645l-2.121 3.178 2.478 3.752h-1.841zm-4.606 0v-6.93h1.54v2.674h2.086v1.274h-2.086v2.982h-1.54zm7.807 0v-6.93h1.491v4.676l3.759-4.676h1.344v6.93h-1.484v-4.732l-3.794 4.732h-1.316zm11.9.21c-.747 0-1.402-.152-1.967-.455a3.339 3.339 0 01-1.323-1.288c-.313-.551-.469-1.19-.469-1.918 0-.532.091-1.022.273-1.47a3.475 3.475 0 011.932-1.946 3.852 3.852 0 011.463-.273c.574 0 1.085.103 1.533.308.448.201.819.483 1.113.847.299.364.509.791.63 1.281.126.485.147 1.013.063 1.582h-5.53a1.97 1.97 0 00.273 1.092c.191.308.464.548.819.721.359.173.782.259 1.267.259.392 0 .77-.058 1.134-.175a3.276 3.276 0 001.001-.532l.595 1.106a3.243 3.243 0 01-.812.469 5.388 5.388 0 01-.994.287c-.345.07-.679.105-1.001.105zm-2.191-4.466h3.927c-.014-.523-.182-.933-.504-1.232-.317-.299-.77-.448-1.358-.448-.569 0-1.043.149-1.421.448-.373.299-.588.709-.644 1.232zm10.471 4.256v-6.93h6.545v6.93h-1.54v-5.656h-3.465v5.656h-1.54zm11.838.21c-.723 0-1.37-.166-1.939-.497a3.69 3.69 0 01-1.33-1.337 3.63 3.63 0 01-.483-1.841 3.617 3.617 0 011.057-2.576c.341-.341.74-.609 1.197-.805a3.78 3.78 0 011.505-.294c.723 0 1.367.168 1.932.504a3.604 3.604 0 011.337 1.337 3.59 3.59 0 01.483 1.834c0 .49-.093.957-.28 1.4a3.62 3.62 0 01-.777 1.176 3.697 3.697 0 01-1.19.805 3.797 3.797 0 01-1.512.294zm0-1.365c.429 0 .81-.093 1.141-.28.336-.191.6-.46.791-.805.191-.345.287-.754.287-1.225 0-.471-.096-.88-.287-1.225a1.991 1.991 0 00-.791-.805 2.28 2.28 0 00-1.141-.28c-.429 0-.812.093-1.148.28a2.006 2.006 0 00-.784.805c-.187.345-.28.754-.28 1.225 0 .471.096.88.287 1.225.191.345.453.614.784.805.336.187.716.28 1.141.28zm5.306 1.155v-6.93h1.379l3.108 4.494-.665.014 2.954-4.508h1.365v6.93h-1.4l.021-5.124.287.126-2.478 3.619h-.994l-2.59-3.626.287-.126.021 5.131h-1.295zm13.445.21c-.746 0-1.402-.152-1.967-.455a3.352 3.352 0 01-1.323-1.288c-.312-.551-.469-1.19-.469-1.918 0-.532.091-1.022.273-1.47a3.475 3.475 0 011.932-1.946 3.852 3.852 0 011.463-.273c.574 0 1.085.103 1.533.308.448.201.819.483 1.113.847.299.364.509.791.63 1.281.126.485.147 1.013.063 1.582h-5.53a1.97 1.97 0 00.273 1.092c.192.308.465.548.819.721.36.173.782.259 1.267.259.392 0 .77-.058 1.134-.175a3.264 3.264 0 001.001-.532l.595 1.106a3.225 3.225 0 01-.812.469 5.365 5.365 0 01-.994.287c-.345.07-.679.105-1.001.105zm-2.191-4.466h3.927c-.014-.523-.182-.933-.504-1.232-.317-.299-.77-.448-1.358-.448-.569 0-1.043.149-1.421.448-.373.299-.588.709-.644 1.232zm17.728 6.356v-2.1h-1.134v-1.274h2.548v3.374h-1.414zm-10.689-2.1v-6.93h1.491v5.656h2.926v-5.656h1.491v5.656h2.926v-5.656h1.491v6.93h-10.325zm16.521.21c-.746 0-1.402-.152-1.967-.455a3.352 3.352 0 01-1.323-1.288c-.312-.551-.469-1.19-.469-1.918 0-.532.091-1.022.273-1.47a3.475 3.475 0 011.932-1.946 3.852 3.852 0 011.463-.273c.574 0 1.085.103 1.533.308.448.201.819.483 1.113.847.299.364.509.791.63 1.281.126.485.147 1.013.063 1.582h-5.53a1.97 1.97 0 00.273 1.092c.192.308.465.548.819.721.36.173.782.259 1.267.259.392 0 .77-.058 1.134-.175a3.264 3.264 0 001.001-.532l.595 1.106a3.225 3.225 0 01-.812.469 5.365 5.365 0 01-.994.287c-.345.07-.679.105-1.001.105zm-2.191-4.466h3.927c-.014-.523-.182-.933-.504-1.232-.317-.299-.77-.448-1.358-.448-.569 0-1.043.149-1.421.448-.373.299-.588.709-.644 1.232zm7.039 4.256v-6.93h1.54v2.674h3.472v-2.674h1.54v6.93h-1.54v-2.982h-3.472v2.982h-1.54zm8.695 0v-6.93h1.491v4.676l3.759-4.676h1.344v6.93h-1.484v-4.732l-3.794 4.732h-1.316zm8.254 0l2.66-3.549.336.994c-.574.005-1.064-.079-1.47-.252-.406-.177-.717-.425-.931-.742-.21-.322-.315-.702-.315-1.141 0-.471.119-.873.357-1.204.238-.336.574-.593 1.008-.77.434-.177.942-.266 1.526-.266h2.989v6.93h-1.484v-5.761h-1.351c-.495 0-.871.086-1.127.259-.252.173-.378.432-.378.777 0 .336.116.597.35.784.238.182.581.273 1.029.273h1.673v1.12h-1.218l-1.897 2.548h-1.757zm-201.452 20.21c-.723 0-1.37-.166-1.939-.497a3.692 3.692 0 01-1.33-1.337 3.63 3.63 0 01-.483-1.841 3.617 3.617 0 011.057-2.576c.34-.341.74-.609 1.197-.805a3.78 3.78 0 011.505-.294c.723 0 1.367.168 1.932.504.57.331 1.015.777 1.337 1.337a3.59 3.59 0 01.483 1.834c0 .49-.093.957-.28 1.4a3.62 3.62 0 01-.777 1.176 3.693 3.693 0 01-1.19.805 3.799 3.799 0 01-1.512.294zm0-1.365c.43 0 .81-.093 1.141-.28.336-.191.6-.46.791-.805.191-.345.287-.754.287-1.225 0-.471-.096-.88-.287-1.225a1.993 1.993 0 00-.791-.805 2.28 2.28 0 00-1.141-.28c-.43 0-.812.093-1.148.28a2.006 2.006 0 00-.784.805c-.187.345-.28.754-.28 1.225 0 .471.096.88.287 1.225.191.345.453.614.784.805.336.187.716.28 1.141.28zm8.694 1.365c-.583 0-1.11-.1-1.582-.301a3.3 3.3 0 01-1.204-.868 3.977 3.977 0 01-.763-1.393c-.173-.551-.26-1.176-.26-1.876 0-.77.06-1.461.176-2.072.121-.611.31-1.141.567-1.589a3.38 3.38 0 011.029-1.106c.43-.289.95-.497 1.56-.623l3.319-.672.252 1.337-3.227.623c-.541.112-.966.292-1.274.539a2.169 2.169 0 00-.68.945c-.144.383-.24.833-.286 1.351a3.32 3.32 0 011.099-.952c.439-.238.95-.357 1.533-.357.658 0 1.239.156 1.743.469.509.308.905.721 1.19 1.239.285.518.427 1.092.427 1.722 0 .49-.086.952-.26 1.386a3.378 3.378 0 01-.734 1.148 3.499 3.499 0 01-1.148.77c-.443.187-.936.28-1.477.28zm-.035-1.365a2.19 2.19 0 001.085-.266c.322-.182.574-.436.756-.763.182-.331.273-.723.273-1.176 0-.453-.091-.842-.273-1.169a1.89 1.89 0 00-.756-.763 2.141 2.141 0 00-1.085-.273c-.406 0-.77.091-1.092.273a1.902 1.902 0 00-.75.763c-.181.327-.272.716-.272 1.169 0 .453.09.845.273 1.176.182.327.432.581.749.763a2.23 2.23 0 001.092.266zm15.963 3.255v-2.1h-1.134v-1.274h2.548v3.374H58.85zm-10.69-2.1v-6.93h1.492v5.656h2.926v-5.656h1.49v5.656h2.927v-5.656h1.49v6.93H48.162zm16.522.21c-.746 0-1.402-.152-1.967-.455a3.343 3.343 0 01-1.323-1.288c-.312-.551-.469-1.19-.469-1.918 0-.532.091-1.022.273-1.47a3.47 3.47 0 011.932-1.946 3.85 3.85 0 011.463-.273c.574 0 1.085.103 1.533.308.448.201.82.483 1.113.847.299.364.509.791.63 1.281.126.485.147 1.013.063 1.582H62.4c-.01.415.082.779.273 1.092.192.308.465.548.82.721.359.173.78.259 1.266.259.392 0 .77-.058 1.134-.175a3.277 3.277 0 001.001-.532l.595 1.106a3.238 3.238 0 01-.812.469 5.39 5.39 0 01-.994.287c-.345.07-.679.105-1 .105zm-2.19-4.466h3.926c-.014-.523-.182-.933-.504-1.232-.317-.299-.77-.448-1.358-.448-.57 0-1.043.149-1.42.448-.374.299-.589.709-.645 1.232zm7.038 4.256v-6.93h1.491v4.676l3.759-4.676h1.344v6.93H74.64v-4.732l-3.794 4.732H69.53zm3.297-8.12c-.518 0-.973-.107-1.365-.322a2.288 2.288 0 01-.91-.889c-.215-.378-.315-.812-.301-1.302h1.288c-.019.429.089.777.322 1.043.238.261.56.392.966.392.406 0 .726-.131.959-.392.233-.266.338-.614.315-1.043h1.295c.01.485-.096.917-.315 1.295a2.332 2.332 0 01-.91.896c-.387.215-.835.322-1.344.322zm8.871 8.12v-6.93h6.545v6.93h-1.54v-5.656h-3.465v5.656h-1.54zm8.43.119l-.54-1.386c.477-.121.824-.313 1.044-.574.224-.261.364-.625.42-1.092.06-.467.09-1.069.09-1.806v-2.191h5.636v6.93h-1.54v-5.656h-2.66v.917a15.6 15.6 0 01-.105 1.939c-.066.551-.187 1.02-.364 1.407a2.48 2.48 0 01-.75.952c-.317.243-.727.429-1.231.56zm11.954.091c-.724 0-1.37-.166-1.939-.497a3.69 3.69 0 01-1.33-1.337 3.63 3.63 0 01-.484-1.841 3.617 3.617 0 011.058-2.576 3.77 3.77 0 011.197-.805 3.78 3.78 0 011.505-.294c.723 0 1.367.168 1.932.504a3.604 3.604 0 011.337 1.337 3.59 3.59 0 01.483 1.834c0 .49-.094.957-.28 1.4a3.62 3.62 0 01-.777 1.176 3.697 3.697 0 01-1.19.805 3.804 3.804 0 01-1.512.294zm0-1.365c.429 0 .809-.093 1.141-.28.336-.191.599-.46.791-.805.191-.345.287-.754.287-1.225 0-.471-.096-.88-.287-1.225a1.997 1.997 0 00-.791-.805 2.284 2.284 0 00-1.141-.28c-.43 0-.812.093-1.148.28a2 2 0 00-.784.805c-.187.345-.28.754-.28 1.225 0 .471.095.88.287 1.225.191.345.452.614.784.805.336.187.716.28 1.141.28zm15.994 3.255v-2.1h-1.134v-1.274h2.548v3.374h-1.414zm-10.689-2.1v-6.93h1.491v5.656h2.926v-5.656h1.491v5.656h2.926v-5.656h1.491v6.93h-10.325zm16.291.21c-.691 0-1.302-.159-1.834-.476a3.453 3.453 0 01-1.246-1.309c-.299-.555-.448-1.185-.448-1.89 0-.527.086-1.015.259-1.463.172-.448.415-.838.728-1.169a3.245 3.245 0 011.12-.77 3.635 3.635 0 011.421-.273c.681 0 1.25.145 1.708.434a2.93 2.93 0 011.057 1.12l-.217.329v-1.673h1.372v6.93h-1.372v-1.673l.217.329a2.93 2.93 0 01-1.057 1.12c-.458.289-1.027.434-1.708.434zm.203-1.365c.42 0 .795-.093 1.127-.28.331-.191.59-.46.777-.805.191-.345.287-.754.287-1.225 0-.471-.096-.88-.287-1.225a1.965 1.965 0 00-.777-.805 2.254 2.254 0 00-1.127-.28c-.425 0-.803.093-1.134.28a2.016 2.016 0 00-.777.805c-.192.345-.287.754-.287 1.225 0 .471.095.88.287 1.225.191.345.45.614.777.805.331.187.709.28 1.134.28zm10.893 1.155v-5.656h-2.8v.917c0 .63-.037 1.199-.112 1.708a4.508 4.508 0 01-.399 1.344 2.6 2.6 0 01-.805.952c-.341.252-.777.436-1.309.553l-.378-1.043c.443-.107.777-.308 1.001-.602.224-.294.373-.681.448-1.162.079-.485.119-1.069.119-1.75v-2.191h5.775v6.93h-1.54zm-5.803 2.1v-3.325l.952.098.238-.147h7.546v3.374H136.3v-2.1h-5.922v2.1h-1.407zm10.094-2.1v-6.93h1.54v5.761h1.323c.504 0 .884-.098 1.141-.294.257-.196.385-.488.385-.875 0-.383-.119-.677-.357-.882-.238-.205-.588-.308-1.05-.308h-1.652v-1.155h1.771c.896 0 1.601.201 2.114.602.513.401.77.982.77 1.743 0 .49-.124.91-.371 1.26-.247.345-.595.611-1.043.798-.443.187-.964.28-1.561.28h-3.01zm7.602 0v-6.93h1.54l-.007 2.674h2.345v1.274H148.2l.007 2.982h-1.54zm6.783.21c-.728 0-1.375-.166-1.939-.497a3.74 3.74 0 01-1.337-1.337 3.63 3.63 0 01-.483-1.841c0-.495.093-.961.28-1.4a3.705 3.705 0 011.974-1.981 3.78 3.78 0 011.505-.294c.728 0 1.374.168 1.939.504a3.622 3.622 0 011.33 1.337c.326.555.49 1.167.49 1.834 0 .49-.094.957-.28 1.4a3.697 3.697 0 01-1.974 1.981 3.783 3.783 0 01-1.505.294zm0-1.365c.429 0 .809-.093 1.141-.28.331-.191.592-.46.784-.805.191-.345.287-.754.287-1.225 0-.471-.096-.88-.287-1.225a2.013 2.013 0 00-.784-.805 2.284 2.284 0 00-1.141-.28c-.43 0-.812.093-1.148.28a2 2 0 00-.784.805c-.187.345-.28.754-.28 1.225 0 .471.093.88.28 1.225.191.345.452.614.784.805.336.187.718.28 1.148.28zm12.122 1.365c-.583 0-1.11-.1-1.582-.301a3.308 3.308 0 01-1.204-.868 3.993 3.993 0 01-.763-1.393c-.172-.551-.259-1.176-.259-1.876 0-.77.059-1.461.175-2.072.122-.611.311-1.141.567-1.589a3.395 3.395 0 011.029-1.106c.43-.289.95-.497 1.561-.623l3.318-.672.252 1.337-3.227.623c-.541.112-.966.292-1.274.539a2.171 2.171 0 00-.679.945c-.144.383-.24.833-.287 1.351a3.326 3.326 0 011.099-.952c.439-.238.95-.357 1.533-.357.658 0 1.239.156 1.743.469.509.308.906.721 1.19 1.239.285.518.427 1.092.427 1.722 0 .49-.086.952-.259 1.386a3.378 3.378 0 01-.735 1.148 3.491 3.491 0 01-1.148.77 3.76 3.76 0 01-1.477.28zm-.035-1.365c.406 0 .768-.089 1.085-.266.322-.182.574-.436.756-.763.182-.331.273-.723.273-1.176 0-.453-.091-.842-.273-1.169a1.89 1.89 0 00-.756-.763 2.14 2.14 0 00-1.085-.273c-.406 0-.77.091-1.092.273a1.904 1.904 0 00-.749.763c-.182.327-.273.716-.273 1.169 0 .453.091.845.273 1.176.182.327.432.581.749.763a2.23 2.23 0 001.092.266zm8.5 1.365c-.724 0-1.37-.166-1.939-.497a3.69 3.69 0 01-1.33-1.337 3.63 3.63 0 01-.483-1.841 3.617 3.617 0 011.057-2.576 3.76 3.76 0 011.197-.805 3.78 3.78 0 011.505-.294c.723 0 1.367.168 1.932.504a3.604 3.604 0 011.337 1.337 3.59 3.59 0 01.483 1.834c0 .49-.094.957-.28 1.4a3.62 3.62 0 01-.777 1.176 3.697 3.697 0 01-1.19.805 3.804 3.804 0 01-1.512.294zm0-1.365c.429 0 .809-.093 1.141-.28.336-.191.599-.46.791-.805.191-.345.287-.754.287-1.225 0-.471-.096-.88-.287-1.225a1.997 1.997 0 00-.791-.805 2.284 2.284 0 00-1.141-.28c-.43 0-.812.093-1.148.28a2 2 0 00-.784.805c-.187.345-.28.754-.28 1.225 0 .471.095.88.287 1.225.191.345.452.614.784.805.336.187.716.28 1.141.28zm5.053 1.274l-.539-1.386c.476-.121.824-.313 1.043-.574.224-.261.364-.625.42-1.092.061-.467.091-1.069.091-1.806v-2.191h5.635v6.93h-1.54v-5.656h-2.66v.917a15.6 15.6 0 01-.105 1.939c-.065.551-.186 1.02-.364 1.407a2.476 2.476 0 01-.749.952c-.317.243-.728.429-1.232.56zm11.961.091c-.746 0-1.402-.152-1.967-.455a3.352 3.352 0 01-1.323-1.288c-.312-.551-.469-1.19-.469-1.918 0-.532.091-1.022.273-1.47a3.475 3.475 0 011.932-1.946 3.852 3.852 0 011.463-.273c.574 0 1.085.103 1.533.308.448.201.819.483 1.113.847.299.364.509.791.63 1.281.126.485.147 1.013.063 1.582h-5.53a1.97 1.97 0 00.273 1.092c.192.308.465.548.819.721.36.173.782.259 1.267.259.392 0 .77-.058 1.134-.175a3.264 3.264 0 001.001-.532l.595 1.106a3.225 3.225 0 01-.812.469 5.365 5.365 0 01-.994.287c-.345.07-.679.105-1.001.105zm-2.191-4.466h3.927c-.014-.523-.182-.933-.504-1.232-.317-.299-.77-.448-1.358-.448-.569 0-1.043.149-1.421.448-.373.299-.588.709-.644 1.232zm10.271 4.466c-.746 0-1.402-.152-1.967-.455a3.352 3.352 0 01-1.323-1.288c-.312-.551-.469-1.19-.469-1.918 0-.532.091-1.022.273-1.47a3.475 3.475 0 011.932-1.946 3.852 3.852 0 011.463-.273c.574 0 1.085.103 1.533.308.448.201.819.483 1.113.847.299.364.509.791.63 1.281.126.485.147 1.013.063 1.582h-5.53a1.97 1.97 0 00.273 1.092c.192.308.465.548.819.721.36.173.782.259 1.267.259.392 0 .77-.058 1.134-.175a3.264 3.264 0 001.001-.532l.595 1.106a3.225 3.225 0 01-.812.469 5.365 5.365 0 01-.994.287c-.345.07-.679.105-1.001.105zm-2.191-4.466h3.927c-.014-.523-.182-.933-.504-1.232-.317-.299-.77-.448-1.358-.448-.569 0-1.043.149-1.421.448-.373.299-.588.709-.644 1.232zm10.233 4.256v-1.12l2.121-1.939a28.936 28.936 0 001.624-1.589c.411-.448.709-.852.896-1.211a2.34 2.34 0 00.28-1.092c0-.537-.184-.954-.553-1.253-.364-.303-.873-.455-1.526-.455-.434 0-.849.075-1.246.224a2.761 2.761 0 00-1.015.651l-.574-1.141a4.047 4.047 0 011.372-.805 4.767 4.767 0 011.631-.28c.677 0 1.267.121 1.771.364a2.74 2.74 0 011.183 1.015c.285.434.427.943.427 1.526 0 .406-.082.812-.245 1.218-.159.401-.446.854-.861 1.358-.411.504-.994 1.108-1.75 1.813l-1.505 1.386h4.606v1.33h-6.636zm11.127.21c-.602 0-1.18-.086-1.736-.259-.55-.173-1.005-.404-1.365-.693l.504-1.274c.322.28.707.495 1.155.644.448.145.901.217 1.358.217.458 0 .854-.075 1.19-.224.336-.154.595-.373.777-.658.182-.285.273-.63.273-1.036 0-.373-.095-.693-.287-.959a1.817 1.817 0 00-.798-.623 2.87 2.87 0 00-1.148-.217c-.275 0-.56.033-.854.098a4.88 4.88 0 00-.903.301l-.644-.693.504-4.62 5.404-.007v1.372h-4.291l-.294 2.555c.243-.079.483-.14.721-.182.243-.042.483-.063.721-.063.644 0 1.221.124 1.729.371.509.243.91.595 1.204 1.057.299.462.448 1.015.448 1.659 0 .653-.156 1.223-.469 1.708a3.066 3.066 0 01-1.288 1.127c-.55.266-1.187.399-1.911.399zm9.24 0a3.532 3.532 0 01-1.687-.399 3.82 3.82 0 01-1.267-1.106 5.253 5.253 0 01-.791-1.631 6.935 6.935 0 01-.273-1.974c0-.705.091-1.365.273-1.981a5.172 5.172 0 01.791-1.624 3.82 3.82 0 011.267-1.106 3.532 3.532 0 011.687-.399c.625 0 1.185.133 1.68.399.499.266.922.635 1.267 1.106.35.467.616 1.008.798 1.624.187.616.28 1.276.28 1.981 0 .7-.093 1.358-.28 1.974a5.158 5.158 0 01-.798 1.631c-.345.471-.768.84-1.267 1.106-.495.266-1.055.399-1.68.399zm0-1.386a2.06 2.06 0 001.015-.252 2.37 2.37 0 00.784-.742c.224-.322.394-.712.511-1.169a6.37 6.37 0 00.175-1.561c0-.775-.105-1.44-.315-1.995-.205-.56-.495-.987-.868-1.281a2.005 2.005 0 00-1.302-.448c-.369 0-.707.086-1.015.259a2.297 2.297 0 00-.784.735 3.79 3.79 0 00-.511 1.169 6.318 6.318 0 00-.175 1.561c0 .775.103 1.44.308 1.995.21.555.502.982.875 1.281a2.02 2.02 0 001.302.448zm9.516 1.386a3.529 3.529 0 01-1.687-.399 3.82 3.82 0 01-1.267-1.106 5.231 5.231 0 01-.791-1.631 6.935 6.935 0 01-.273-1.974c0-.705.091-1.365.273-1.981a5.15 5.15 0 01.791-1.624 3.82 3.82 0 011.267-1.106 3.529 3.529 0 011.687-.399c.625 0 1.185.133 1.68.399.499.266.921.635 1.267 1.106.35.467.616 1.008.798 1.624.186.616.28 1.276.28 1.981 0 .7-.094 1.358-.28 1.974a5.158 5.158 0 01-.798 1.631c-.346.471-.768.84-1.267 1.106-.495.266-1.055.399-1.68.399zm0-1.386c.373 0 .711-.084 1.015-.252a2.38 2.38 0 00.784-.742c.224-.322.394-.712.511-1.169.116-.462.175-.982.175-1.561 0-.775-.105-1.44-.315-1.995-.206-.56-.495-.987-.868-1.281a2.005 2.005 0 00-1.302-.448c-.369 0-.707.086-1.015.259a2.288 2.288 0 00-.784.735c-.22.322-.39.712-.511 1.169a6.318 6.318 0 00-.175 1.561c0 .775.102 1.44.308 1.995.21.555.501.982.875 1.281a2.02 2.02 0 001.302.448zm9.265 1.176v-6.93h1.379l3.108 4.494-.665.014 2.954-4.508h1.365v6.93h-1.4l.021-5.124.287.126-2.478 3.619h-.994l-2.59-3.626.287-.126.021 5.131h-1.295zm9.889-5.054v-.798l1.421-1.246c.43-.383.78-.712 1.05-.987.276-.28.476-.532.602-.756.126-.229.189-.46.189-.693 0-.331-.121-.588-.364-.77-.238-.187-.567-.28-.987-.28-.284 0-.56.051-.826.154a1.833 1.833 0 00-.686.441l-.413-.833c.276-.243.591-.427.945-.553a3.303 3.303 0 011.113-.189c.686 0 1.237.175 1.652.525.42.35.63.812.63 1.386 0 .294-.063.579-.189.854a3.74 3.74 0 01-.609.889c-.275.313-.644.67-1.106 1.071l-.931.826h3.003v.959h-4.494zm7.028 5.264c-.298 0-.557-.096-.777-.287a.958.958 0 01-.322-.749c0-.21.049-.392.147-.546a.967.967 0 01.399-.364c.168-.089.353-.133.553-.133.304 0 .56.096.77.287.215.187.322.439.322.756 0 .205-.049.387-.147.546a.985.985 0 01-.399.357 1.12 1.12 0 01-.546.133z" fill="#1F1F1F"/><circle cx="566" cy="482.935" r="25" fill="#B1163D"/><circle cx="565.5" cy="483.435" r="2.5" fill="#fff"/><circle cx="419" cy="599.935" r="25" fill="#B1163D"/><circle cx="418.5" cy="600.435" r="2.5" fill="#fff"/><path opacity=".5" d="M438 355.935l127 127m-264.5 118H419" stroke="#fff" stroke-width=".5"/><path d="M637.504 377.935v-11.2h1.504v4.552h5.76v-4.552h1.504v11.2h-1.504v-5.264h-5.76v5.264h-1.504zm15.061.24c-.81 0-1.533-.189-2.168-.568a4.162 4.162 0 01-1.496-1.512 4.098 4.098 0 01-.544-2.08 4.139 4.139 0 011.192-2.92 4.09 4.09 0 011.336-.912 4.227 4.227 0 011.68-.328c.816 0 1.542.189 2.176.568a4.146 4.146 0 011.496 1.512c.363.629.544 1.323.544 2.08a4.122 4.122 0 01-1.192 2.92 4.238 4.238 0 01-1.336.912 4.246 4.246 0 01-1.688.328zm0-1.328c.528 0 .995-.115 1.4-.344.411-.235.734-.563.968-.984.235-.427.352-.928.352-1.504 0-.581-.117-1.083-.352-1.504a2.396 2.396 0 00-.96-.984 2.84 2.84 0 00-1.408-.344c-.528 0-.997.115-1.408.344a2.472 2.472 0 00-.96.984c-.229.421-.344.923-.344 1.504 0 .576.115 1.077.344 1.504.235.421.558.749.968.984.411.229.878.344 1.4.344zm5.538 1.088l3.112-3.96.28.976c-.672.005-1.234-.091-1.688-.288-.453-.197-.797-.475-1.032-.832-.229-.363-.344-.787-.344-1.272 0-.517.134-.96.4-1.328.272-.368.651-.648 1.136-.84.491-.197 1.062-.296 1.712-.296h3.232v7.84h-1.432v-6.672h-1.672c-.624 0-1.093.104-1.408.312-.314.208-.472.525-.472.952 0 .421.147.744.44.968.294.219.726.328 1.296.328h2.04v1.128h-1.552l-2.328 2.984h-1.72zm13.133.24c-.662 0-1.256-.112-1.784-.336a3.642 3.642 0 01-1.352-.984c-.368-.432-.651-.96-.848-1.584-.192-.624-.288-1.336-.288-2.136 0-.875.064-1.661.192-2.36.128-.699.336-1.304.624-1.816a3.782 3.782 0 011.136-1.272c.474-.336 1.056-.576 1.744-.72l3.751-.792.257 1.312-3.648.744c-.651.144-1.16.373-1.528.688a2.686 2.686 0 00-.808 1.176c-.171.475-.283 1.029-.336 1.664a3.852 3.852 0 011.28-1.192c.522-.304 1.136-.456 1.84-.456.757 0 1.421.181 1.992.544a3.775 3.775 0 011.352 1.44c.325.597.488 1.259.488 1.984a4.35 4.35 0 01-.288 1.584 3.94 3.94 0 01-.832 1.312 3.954 3.954 0 01-1.288.88 4.155 4.155 0 01-1.656.32zm-.04-1.328c.501 0 .949-.112 1.344-.336.394-.229.704-.549.928-.96.224-.411.336-.896.336-1.456 0-.565-.112-1.053-.336-1.464a2.383 2.383 0 00-.928-.952 2.65 2.65 0 00-1.344-.336c-.507 0-.958.112-1.352.336a2.376 2.376 0 00-.928.952c-.224.411-.336.899-.336 1.464 0 .56.112 1.045.336 1.456.224.411.533.731.928.96.394.224.845.336 1.352.336zm6.029 4.448v-11.2h1.352v1.176a3.786 3.786 0 011.224-1.016c.496-.267 1.12-.4 1.872-.4.779 0 1.464.184 2.056.552a3.767 3.767 0 011.384 1.488c.336.629.504 1.336.504 2.12 0 .571-.096 1.109-.288 1.616a4.03 4.03 0 01-.808 1.328 3.863 3.863 0 01-1.256.896c-.48.213-1.016.32-1.608.32-.661 0-1.24-.123-1.736-.368a3.804 3.804 0 01-1.232-.984v4.472h-1.464zm4.184-4.448c.528 0 .995-.115 1.4-.344a2.47 2.47 0 00.96-.984c.235-.427.352-.928.352-1.504 0-.581-.117-1.083-.352-1.504a2.396 2.396 0 00-.96-.984c-.405-.229-.872-.344-1.4-.344-.528 0-.997.115-1.408.344a2.472 2.472 0 00-.96.984c-.235.421-.352.923-.352 1.504 0 .576.117 1.077.352 1.504.235.421.555.749.96.984.411.229.88.344 1.408.344zm6.051 1.088v-7.84h1.472v6.672h1.648c.634 0 1.109-.117 1.424-.352.32-.24.48-.6.48-1.08 0-.469-.15-.829-.448-1.08-.294-.251-.731-.376-1.312-.376H688.7v-1.16h2.128c.992 0 1.77.227 2.336.68.57.448.856 1.093.856 1.936 0 .549-.139 1.019-.416 1.408-.278.384-.664.68-1.16.888-.496.203-1.075.304-1.737.304h-3.247zm12.036.24c-.827 0-1.56-.181-2.2-.544a3.974 3.974 0 01-1.504-1.48c-.363-.629-.544-1.341-.544-2.136 0-.603.107-1.157.32-1.664.219-.507.525-.947.92-1.32a4.174 4.174 0 011.384-.864 4.76 4.76 0 011.744-.312c.512 0 .984.067 1.416.2.432.133.832.339 1.2.616l-.752 1.136a2.344 2.344 0 00-.84-.464 3.184 3.184 0 00-1.016-.16c-.587 0-1.096.112-1.528.336a2.332 2.332 0 00-.992.96c-.235.421-.352.928-.352 1.52 0 .891.256 1.589.768 2.096.517.501 1.216.752 2.096.752.405 0 .784-.072 1.136-.216.352-.149.64-.341.864-.576l.76 1.12a5.27 5.27 0 01-1.352.736c-.491.176-1 .264-1.528.264zm9.845-.24l-2.648-4.184 2.376-3.656h1.584l-2.368 3.584 2.832 4.256h-1.776zm-5.256 0v-7.84h1.472v3.088h2.344v1.248h-2.344v3.504h-1.472zm-51.581-95v-11.2h1.504v4.552h5.76v-4.552h1.504v11.2h-1.504v-5.264h-5.76v5.264h-1.504zm15.061.24c-.81 0-1.533-.189-2.168-.568a4.162 4.162 0 01-1.496-1.512 4.098 4.098 0 01-.544-2.08 4.139 4.139 0 011.192-2.92 4.09 4.09 0 011.336-.912 4.227 4.227 0 011.68-.328c.816 0 1.542.189 2.176.568a4.146 4.146 0 011.496 1.512c.363.629.544 1.323.544 2.08a4.122 4.122 0 01-1.192 2.92 4.238 4.238 0 01-1.336.912 4.246 4.246 0 01-1.688.328zm0-1.328c.528 0 .995-.115 1.4-.344.411-.235.734-.563.968-.984.235-.427.352-.928.352-1.504 0-.581-.117-1.083-.352-1.504a2.396 2.396 0 00-.96-.984 2.84 2.84 0 00-1.408-.344c-.528 0-.997.115-1.408.344a2.472 2.472 0 00-.96.984c-.229.421-.344.923-.344 1.504 0 .576.115 1.077.344 1.504.235.421.558.749.968.984.411.229.878.344 1.4.344zm6.066 1.088v-7.84h3.6c.875 0 1.579.171 2.112.512.539.341.808.848.808 1.52 0 .299-.069.568-.208.808-.138.24-.336.445-.592.616a2.826 2.826 0 01-.904.368l-.024-.32c.667.107 1.176.341 1.528.704.358.357.536.805.536 1.344 0 .475-.125.883-.376 1.224-.245.341-.597.605-1.056.792-.458.181-1.005.272-1.64.272h-3.784zm1.432-1.144h2.152c.576 0 1.022-.096 1.336-.288.32-.192.48-.48.48-.864s-.157-.669-.472-.856c-.314-.192-.762-.288-1.344-.288h-2.376v-1.112h2.192c.544 0 .966-.083 1.264-.248.299-.165.448-.44.448-.824 0-.379-.149-.651-.448-.816-.293-.171-.714-.256-1.264-.256h-1.968v5.552zm7.522 1.144v-7.84h1.472v6.672h1.568c.634 0 1.109-.117 1.424-.352.32-.24.48-.6.48-1.08 0-.469-.15-.829-.448-1.08-.294-.251-.731-.376-1.312-.376h-1.944v-1.16h2.048c.992 0 1.77.227 2.336.68.57.448.856 1.093.856 1.936 0 .549-.139 1.019-.416 1.408-.278.384-.664.68-1.16.888-.496.203-1.075.304-1.736.304h-3.168zm7.808 0v-7.84h1.472v7.84h-1.472zm4.02 0v-7.84h1.432v5.632l4.56-5.632h1.264v7.84h-1.432v-5.696l-4.6 5.696h-1.224zm3.624-9.28c-.571 0-1.072-.123-1.504-.368a2.57 2.57 0 01-1-1c-.235-.427-.344-.915-.328-1.464h1.256c-.022.523.112.947.4 1.272.288.32.68.48 1.176.48.496 0 .885-.16 1.168-.48.288-.325.418-.749.392-1.272h1.264c.01.544-.104 1.029-.344 1.456a2.557 2.557 0 01-1 1.008 2.95 2.95 0 01-1.48.368zm10.581 9.456l-.632-1.392a5.73 5.73 0 001.616-.672c.49-.299.941-.691 1.352-1.176.41-.485.786-1.08 1.128-1.784l3.128-6.352h1.736l-3.416 6.712a15.38 15.38 0 01-1.088 1.856 8.429 8.429 0 01-1.136 1.352c-.39.368-.806.672-1.248.912a6.279 6.279 0 01-1.44.544zm3.296-3.84l-4.248-7.536h1.84l3.408 6.176-1 1.36zm5.733 7.024v-11.2h1.352v1.176a3.786 3.786 0 011.224-1.016c.496-.267 1.12-.4 1.872-.4.779 0 1.464.184 2.056.552a3.767 3.767 0 011.384 1.488c.336.629.504 1.336.504 2.12 0 .571-.096 1.109-.288 1.616a4.03 4.03 0 01-.808 1.328 3.863 3.863 0 01-1.256.896c-.48.213-1.016.32-1.608.32-.661 0-1.24-.123-1.736-.368a3.804 3.804 0 01-1.232-.984v4.472h-1.464zm4.184-4.448c.528 0 .995-.115 1.4-.344a2.47 2.47 0 00.96-.984c.235-.427.352-.928.352-1.504 0-.581-.117-1.083-.352-1.504a2.396 2.396 0 00-.96-.984c-.405-.229-.872-.344-1.4-.344-.528 0-.997.115-1.408.344a2.472 2.472 0 00-.96.984c-.235.421-.352.923-.352 1.504 0 .576.117 1.077.352 1.504.235.421.555.749.96.984.411.229.88.344 1.408.344zm9.657 1.328c-.832 0-1.566-.173-2.2-.52a3.769 3.769 0 01-1.488-1.448c-.358-.624-.536-1.349-.536-2.176 0-.597.101-1.152.304-1.664.208-.512.496-.955.864-1.328a4.03 4.03 0 011.304-.872 4.214 4.214 0 011.632-.312c.634 0 1.2.112 1.696.336.501.224.914.539 1.24.944.33.4.568.872.712 1.416.144.539.173 1.125.088 1.76h-6.384c-.016.523.09.981.319 1.376.23.389.561.693.993.912.437.219.954.328 1.552.328.437 0 .864-.069 1.28-.208a3.3 3.3 0 001.104-.616l.624 1.096c-.256.208-.56.387-.912.536-.347.144-.71.253-1.088.328a5.68 5.68 0 01-1.104.112zm-2.689-5.008h4.833c-.022-.661-.227-1.176-.616-1.544-.39-.373-.947-.56-1.672-.56-.704 0-1.286.187-1.744.56-.459.368-.726.883-.801 1.544zm8.207 4.768v-7.84h1.472v3.088h4.248v-3.088h1.472v7.84h-1.472v-3.504h-4.248v3.504h-1.472zm9.735 0v-7.84h5.08v1.248h-3.608v6.592h-1.472zm10.293.24c-.811 0-1.533-.189-2.168-.568a4.154 4.154 0 01-1.496-1.512 4.088 4.088 0 01-.544-2.08 4.122 4.122 0 011.192-2.92 4.09 4.09 0 011.336-.912 4.227 4.227 0 011.68-.328c.816 0 1.541.189 2.176.568a4.154 4.154 0 011.496 1.512c.363.629.544 1.323.544 2.08a4.122 4.122 0 01-1.192 2.92 4.25 4.25 0 01-1.336.912 4.25 4.25 0 01-1.688.328zm0-1.328c.528 0 .995-.115 1.4-.344a2.53 2.53 0 00.968-.984c.235-.427.352-.928.352-1.504 0-.581-.117-1.083-.352-1.504a2.396 2.396 0 00-.96-.984 2.843 2.843 0 00-1.408-.344c-.528 0-.997.115-1.408.344a2.472 2.472 0 00-.96.984c-.229.421-.344.923-.344 1.504 0 .576.115 1.077.344 1.504.235.421.557.749.968.984.411.229.877.344 1.4.344zm6.066 1.088v-7.84h1.432v5.632l4.56-5.632h1.264v7.84h-1.432v-5.696l-4.6 5.696H763.1zm3.624-9.28c-.571 0-1.072-.123-1.504-.368a2.577 2.577 0 01-1-1c-.235-.427-.344-.915-.328-1.464h1.256c-.021.523.112.947.4 1.272.288.32.68.48 1.176.48.496 0 .885-.16 1.168-.48.288-.325.419-.749.392-1.272h1.264a2.8 2.8 0 01-.344 1.456 2.557 2.557 0 01-1 1.008 2.947 2.947 0 01-1.48.368zm-117.22 210.28v-11.2h1.504v4.552h5.76v-4.552h1.504v11.2h-1.504v-5.264h-5.76v5.264h-1.504zm11.549 0v-7.84h1.432v5.632l4.56-5.632h1.264v7.84h-1.432v-5.696l-4.6 5.696h-1.224zm13.989 0v-3.504h-2.136v-1.248h2.136v-3.088h1.472v3.088h2.12v1.248h-2.12v3.504h-1.472zm-5.072 0l2.52-4.168-2.16-3.672h1.616l2.136 3.656-2.416 4.184h-1.696zm9.864 0l-2.376-4.184 2.192-3.656h1.56l-2.16 3.584 2.544 4.256h-1.76zm3.422 0v-7.84h1.472v3.088h4.248v-3.088h1.472v7.84h-1.472v-3.504h-4.248v3.504h-1.472zm13.263.24c-.832 0-1.566-.173-2.2-.52a3.769 3.769 0 01-1.488-1.448c-.358-.624-.536-1.349-.536-2.176 0-.597.101-1.152.304-1.664.208-.512.496-.955.864-1.328a4.03 4.03 0 011.304-.872 4.214 4.214 0 011.632-.312c.634 0 1.2.112 1.696.336.501.224.914.539 1.24.944.33.4.568.872.712 1.416.144.539.173 1.125.088 1.76h-6.384c-.016.523.09.981.32 1.376.229.389.56.693.992.912.437.219.954.328 1.552.328.437 0 .864-.069 1.28-.208a3.3 3.3 0 001.104-.616l.624 1.096c-.256.208-.56.387-.912.536-.347.144-.71.253-1.088.328a5.68 5.68 0 01-1.104.112zm-2.688-5.008h4.832c-.022-.661-.227-1.176-.616-1.544-.39-.373-.947-.56-1.672-.56-.704 0-1.286.187-1.744.56-.459.368-.726.883-.8 1.544zm8.207 4.768v-7.84h3.6c.874 0 1.578.171 2.112.512.538.341.808.848.808 1.52 0 .299-.07.568-.208.808-.139.24-.336.445-.592.616a2.835 2.835 0 01-.904.368l-.024-.32c.666.107 1.176.341 1.528.704.357.357.536.805.536 1.344 0 .475-.126.883-.376 1.224-.246.341-.598.605-1.056.792-.459.181-1.006.272-1.64.272h-3.784zm1.432-1.144h2.152c.576 0 1.021-.096 1.336-.288.32-.192.48-.48.48-.864s-.158-.669-.472-.856c-.315-.192-.763-.288-1.344-.288h-2.376v-1.112h2.192c.544 0 .965-.083 1.264-.248.298-.165.448-.44.448-.824 0-.379-.15-.651-.448-.816-.294-.171-.715-.256-1.264-.256h-1.968v5.552zm10.857 1.384c-.79 0-1.488-.184-2.096-.552a3.892 3.892 0 01-1.424-1.488c-.342-.629-.512-1.336-.512-2.12 0-.587.098-1.133.296-1.64.197-.507.474-.947.832-1.32a3.718 3.718 0 011.272-.88 4.093 4.093 0 011.632-.32c.789 0 1.445.165 1.968.496.522.331.93.752 1.224 1.264l-.216.32v-1.84h1.344v7.84h-1.344v-1.84l.216.312a3.68 3.68 0 01-1.224 1.272c-.523.331-1.179.496-1.968.496zm.16-1.328c.522 0 .986-.115 1.392-.344.405-.235.722-.563.952-.984.234-.427.352-.928.352-1.504 0-.581-.118-1.083-.352-1.504a2.421 2.421 0 00-.952-.984 2.784 2.784 0 00-1.392-.344c-.523 0-.987.115-1.392.344a2.459 2.459 0 00-.96.984c-.235.421-.352.923-.352 1.504 0 .576.117 1.077.352 1.504.234.421.554.749.96.984.405.229.869.344 1.392.344zm6.707 4.448v-11.2h1.352v1.176a3.786 3.786 0 011.224-1.016c.496-.267 1.12-.4 1.872-.4.779 0 1.464.184 2.056.552a3.767 3.767 0 011.384 1.488c.336.629.504 1.336.504 2.12 0 .571-.096 1.109-.288 1.616a4.03 4.03 0 01-.808 1.328 3.863 3.863 0 01-1.256.896c-.48.213-1.016.32-1.608.32-.661 0-1.24-.123-1.736-.368a3.804 3.804 0 01-1.232-.984v4.472h-1.464zm4.184-4.448c.528 0 .995-.115 1.4-.344a2.47 2.47 0 00.96-.984c.235-.427.352-.928.352-1.504 0-.581-.117-1.083-.352-1.504a2.396 2.396 0 00-.96-.984c-.405-.229-.872-.344-1.4-.344-.528 0-.997.115-1.408.344a2.472 2.472 0 00-.96.984c-.235.421-.352.923-.352 1.504 0 .576.117 1.077.352 1.504.235.421.555.749.96.984.411.229.88.344 1.408.344zm7.866 1.088v-6.592h-2.688v-1.248h6.856v1.248h-2.696v6.592h-1.472zm9.353.24c-.811 0-1.534-.189-2.168-.568a4.146 4.146 0 01-1.496-1.512 4.088 4.088 0 01-.544-2.08 4.122 4.122 0 011.192-2.92 4.08 4.08 0 011.336-.912 4.227 4.227 0 011.68-.328c.816 0 1.541.189 2.176.568a4.162 4.162 0 011.496 1.512c.362.629.543 1.323.543 2.08a4.11 4.11 0 01-1.191 2.92 4.25 4.25 0 01-1.336.912 4.25 4.25 0 01-1.688.328zm0-1.328c.528 0 .994-.115 1.4-.344.41-.235.733-.563.968-.984.234-.427.352-.928.352-1.504 0-.581-.118-1.083-.352-1.504a2.408 2.408 0 00-.96-.984 2.843 2.843 0 00-1.408-.344 2.84 2.84 0 00-1.408.344 2.459 2.459 0 00-.96.984c-.23.421-.344.923-.344 1.504 0 .576.114 1.077.344 1.504.234.421.557.749.968.984.41.229.877.344 1.4.344zm6.066 1.088v-7.84h3.6c.874 0 1.578.171 2.112.512.538.341.808.848.808 1.52 0 .299-.07.568-.208.808-.139.24-.336.445-.592.616a2.835 2.835 0 01-.904.368l-.024-.32c.666.107 1.176.341 1.528.704.357.357.536.805.536 1.344 0 .475-.126.883-.376 1.224-.246.341-.598.605-1.056.792-.459.181-1.006.272-1.64.272h-3.784zm1.432-1.144h2.152c.576 0 1.021-.096 1.336-.288.32-.192.48-.48.48-.864s-.158-.669-.472-.856c-.315-.192-.763-.288-1.344-.288h-2.376v-1.112h2.192c.544 0 .965-.083 1.264-.248.298-.165.448-.44.448-.824 0-.379-.15-.651-.448-.816-.294-.171-.715-.256-1.264-.256h-1.968v5.552zm11.073 1.384c-.827 0-1.56-.181-2.2-.544a3.966 3.966 0 01-1.504-1.48c-.363-.629-.544-1.341-.544-2.136 0-.603.106-1.157.32-1.664.218-.507.525-.947.92-1.32a4.164 4.164 0 011.384-.864 4.755 4.755 0 011.744-.312c.512 0 .984.067 1.416.2.432.133.832.339 1.2.616l-.752 1.136a2.344 2.344 0 00-.84-.464 3.184 3.184 0 00-1.016-.16c-.587 0-1.096.112-1.528.336a2.326 2.326 0 00-.992.96c-.235.421-.352.928-.352 1.52 0 .891.256 1.589.768 2.096.517.501 1.216.752 2.096.752.405 0 .784-.072 1.136-.216.352-.149.64-.341.864-.576l.76 1.12a5.287 5.287 0 01-1.352.736c-.491.176-1 .264-1.528.264zm9.844-.24l-2.648-4.184 2.376-3.656h1.584l-2.368 3.584 2.832 4.256h-1.776zm-5.256 0v-7.84h1.472v3.088h2.344v1.248h-2.344v3.504h-1.472zm-448.268-26l3.688-5.752-3.48-5.448h1.792l2.776 4.36 2.984-4.36h1.728l-3.688 5.496 3.808 5.704h-1.8l-3.096-4.648-2.968 4.648h-1.744zm14.401.24c-.789 0-1.488-.184-2.096-.552a3.9 3.9 0 01-1.424-1.488c-.341-.629-.512-1.336-.512-2.12 0-.587.099-1.133.296-1.64.198-.507.475-.947.832-1.32a3.737 3.737 0 011.272-.88 4.093 4.093 0 011.632-.32c.79 0 1.446.165 1.968.496.523.331.931.752 1.224 1.264l-.216.32v-1.84h1.344v7.84h-1.344v-1.84l.216.312a3.663 3.663 0 01-1.224 1.272c-.522.331-1.178.496-1.968.496zm.16-1.328c.523 0 .987-.115 1.392-.344.406-.235.723-.563.952-.984.235-.427.352-.928.352-1.504 0-.581-.117-1.083-.352-1.504a2.408 2.408 0 00-.952-.984 2.779 2.779 0 00-1.392-.344c-.522 0-.986.115-1.392.344a2.472 2.472 0 00-.96.984c-.234.421-.352.923-.352 1.504 0 .576.118 1.077.352 1.504.235.421.555.749.96.984.406.229.87.344 1.392.344zm6.707 1.088v-7.84h1.472v3.088h4.248v-3.088h1.472v7.84h-1.472v-3.504h-4.248v3.504h-1.472zm11.551 0v-6.592h-2.688v-1.248h6.856v1.248h-2.696v6.592h-1.472zm5.84 0v-7.84h1.472v6.672h1.568c.635 0 1.109-.117 1.424-.352.32-.24.48-.6.48-1.08 0-.469-.149-.829-.448-1.08-.293-.251-.731-.376-1.312-.376h-1.944v-1.16h2.048c.992 0 1.771.227 2.336.68.571.448.856 1.093.856 1.936 0 .549-.139 1.019-.416 1.408-.277.384-.664.68-1.16.888-.496.203-1.075.304-1.736.304h-3.168zm7.808 0v-7.84h1.472v7.84h-1.472zm3.748-3.856v-1.28h4.192v1.28h-4.192zm6.692 3.856v-11.2h1.464l4.672 7.56h-.576l4.512-7.56h1.424v11.2h-1.472l.016-9.152.296.096-4 6.536h-1.16l-4.048-6.536.232-.096.016 9.152h-1.376zm17.619.24c-.789 0-1.488-.184-2.096-.552a3.9 3.9 0 01-1.424-1.488c-.341-.629-.512-1.336-.512-2.12 0-.587.099-1.133.296-1.64.198-.507.475-.947.832-1.32a3.737 3.737 0 011.272-.88 4.093 4.093 0 011.632-.32c.79 0 1.446.165 1.968.496.523.331.931.752 1.224 1.264l-.216.32v-1.84h1.344v7.84h-1.344v-1.84l.216.312a3.663 3.663 0 01-1.224 1.272c-.522.331-1.178.496-1.968.496zm.16-1.328c.523 0 .987-.115 1.392-.344.406-.235.723-.563.952-.984.235-.427.352-.928.352-1.504 0-.581-.117-1.083-.352-1.504a2.408 2.408 0 00-.952-.984 2.779 2.779 0 00-1.392-.344c-.522 0-.986.115-1.392.344a2.472 2.472 0 00-.96.984c-.234.421-.352.923-.352 1.504 0 .576.118 1.077.352 1.504.235.421.555.749.96.984.406.229.87.344 1.392.344zm6.707 1.088v-7.84h1.472v3.088h4.248v-3.088h1.472v7.84h-1.472v-3.504h-4.248v3.504h-1.472zm13.287.24c-.827 0-1.56-.181-2.2-.544a3.966 3.966 0 01-1.504-1.48c-.363-.629-.544-1.341-.544-2.136 0-.603.106-1.157.32-1.664.218-.507.525-.947.92-1.32a4.164 4.164 0 011.384-.864 4.755 4.755 0 011.744-.312c.512 0 .984.067 1.416.2.432.133.832.339 1.2.616l-.752 1.136a2.344 2.344 0 00-.84-.464 3.184 3.184 0 00-1.016-.16c-.587 0-1.096.112-1.528.336a2.326 2.326 0 00-.992.96c-.235.421-.352.928-.352 1.52 0 .891.256 1.589.768 2.096.517.501 1.216.752 2.096.752.405 0 .784-.072 1.136-.216.352-.149.64-.341.864-.576l.76 1.12a5.287 5.287 0 01-1.352.736c-.491.176-1 .264-1.528.264zm4.588-.24v-7.84h1.432v5.632l4.56-5.632h1.264v7.84h-1.432v-5.696l-4.6 5.696h-1.224zm9.797 0v-7.84h1.432v5.632l4.56-5.632h1.264v7.84h-1.432v-5.696l-4.6 5.696h-1.224zm3.624-9.28c-.57 0-1.072-.123-1.504-.368a2.577 2.577 0 01-1-1c-.234-.427-.344-.915-.328-1.464h1.256c-.021.523.112.947.4 1.272.288.32.68.48 1.176.48.496 0 .886-.16 1.168-.48.288-.325.419-.749.392-1.272h1.264a2.8 2.8 0 01-.344 1.456 2.55 2.55 0 01-1 1.008 2.947 2.947 0 01-1.48.368zm9.725 9.52c-.827 0-1.56-.181-2.2-.544a3.974 3.974 0 01-1.504-1.48c-.363-.629-.544-1.341-.544-2.136 0-.603.107-1.157.32-1.664.219-.507.525-.947.92-1.32a4.174 4.174 0 011.384-.864 4.76 4.76 0 011.744-.312c.512 0 .984.067 1.416.2.432.133.832.339 1.2.616l-.752 1.136a2.344 2.344 0 00-.84-.464 3.184 3.184 0 00-1.016-.16c-.587 0-1.096.112-1.528.336a2.332 2.332 0 00-.992.96c-.235.421-.352.928-.352 1.52 0 .891.256 1.589.768 2.096.517.501 1.216.752 2.096.752.405 0 .784-.072 1.136-.216.352-.149.64-.341.864-.576l.76 1.12a5.27 5.27 0 01-1.352.736c-.491.176-1 .264-1.528.264zm9.845-.24l-2.648-4.184 2.376-3.656h1.584l-2.368 3.584 2.832 4.256h-1.776zm-5.256 0v-7.84h1.472v3.088h2.344v1.248h-2.344v3.504h-1.472zm-26.987 72v-11.2h1.504v4.552h5.76v-4.552h1.504v11.2h-1.504v-5.264h-5.76v5.264h-1.504zm15.077.24c-.832 0-1.565-.173-2.2-.52a3.782 3.782 0 01-1.488-1.448c-.357-.624-.536-1.349-.536-2.176 0-.597.102-1.152.304-1.664.208-.512.496-.955.864-1.328a4.04 4.04 0 011.304-.872 4.221 4.221 0 011.632-.312c.635 0 1.2.112 1.696.336.502.224.915.539 1.24.944.331.4.568.872.712 1.416.144.539.174 1.125.088 1.76h-6.384c-.016.523.091.981.32 1.376.23.389.56.693.992.912.438.219.955.328 1.552.328a4.01 4.01 0 001.28-.208 3.3 3.3 0 001.104-.616l.624 1.096c-.256.208-.56.387-.912.536a5.708 5.708 0 01-1.088.328 5.665 5.665 0 01-1.104.112zm-2.688-5.008h4.832c-.021-.661-.226-1.176-.616-1.544-.389-.373-.946-.56-1.672-.56-.704 0-1.285.187-1.744.56-.458.368-.725.883-.8 1.544zm12.261 8.128v-14.88h1.472v14.88h-1.472zm.728-3.152c-1.061 0-2-.155-2.816-.464-.81-.315-1.445-.779-1.904-1.392-.453-.613-.68-1.371-.68-2.272 0-.907.23-1.667.688-2.28.459-.613 1.096-1.075 1.912-1.384.816-.309 1.758-.464 2.824-.464 1.072 0 2.014.155 2.824.464.816.309 1.451.771 1.904 1.384.459.613.688 1.373.688 2.28 0 .677-.133 1.275-.4 1.792a3.544 3.544 0 01-1.12 1.288c-.485.347-1.061.608-1.728.784a8.514 8.514 0 01-2.192.264zm.024-1.248c.811 0 1.51-.107 2.096-.32.587-.213 1.038-.533 1.352-.96.315-.427.472-.96.472-1.6 0-.645-.162-1.181-.488-1.608-.32-.427-.776-.747-1.368-.96-.592-.213-1.288-.32-2.088-.32s-1.493.107-2.08.32c-.581.213-1.034.533-1.36.96-.32.427-.48.963-.48 1.608 0 .64.16 1.173.48 1.6.326.427.782.747 1.368.96.592.213 1.291.32 2.096.32zm9.073 1.04v-6.592h-2.688v-1.248h6.856v1.248h-2.696v6.592h-1.472zm9.368.24c-.832 0-1.565-.173-2.2-.52a3.769 3.769 0 01-1.488-1.448c-.357-.624-.536-1.349-.536-2.176 0-.597.101-1.152.304-1.664.208-.512.496-.955.864-1.328a4.03 4.03 0 011.304-.872 4.214 4.214 0 011.632-.312c.635 0 1.2.112 1.696.336.501.224.915.539 1.24.944.331.4.568.872.712 1.416.144.539.173 1.125.088 1.76h-6.384c-.016.523.091.981.32 1.376.229.389.56.693.992.912.437.219.955.328 1.552.328.437 0 .864-.069 1.28-.208a3.3 3.3 0 001.104-.616l.624 1.096c-.256.208-.56.387-.912.536a5.73 5.73 0 01-1.088.328 5.68 5.68 0 01-1.104.112zm-2.688-5.008h4.832c-.021-.661-.227-1.176-.616-1.544-.389-.373-.947-.56-1.672-.56-.704 0-1.285.187-1.744.56-.459.368-.725.883-.8 1.544zm8.207 4.768v-7.84h1.472l-.016 3.088h2.704v1.248h-2.704l.016 3.504h-1.472zm7.504.24c-.811 0-1.534-.189-2.168-.568a4.146 4.146 0 01-1.496-1.512 4.088 4.088 0 01-.544-2.08 4.122 4.122 0 011.192-2.92 4.08 4.08 0 011.336-.912 4.227 4.227 0 011.68-.328c.816 0 1.541.189 2.176.568a4.162 4.162 0 011.496 1.512c.362.629.544 1.323.544 2.08a4.139 4.139 0 01-1.192 2.92 4.25 4.25 0 01-1.336.912 4.25 4.25 0 01-1.688.328zm0-1.328c.528 0 .994-.115 1.4-.344.41-.235.733-.563.968-.984.234-.427.352-.928.352-1.504 0-.581-.118-1.083-.352-1.504a2.458 2.458 0 00-.968-.984c-.406-.229-.872-.344-1.4-.344a2.84 2.84 0 00-1.408.344 2.459 2.459 0 00-.96.984c-.23.421-.344.923-.344 1.504 0 .576.114 1.077.344 1.504.234.421.557.749.968.984.41.229.877.344 1.4.344zm6.058 1.088v-7.84h5.08v1.248H481.9v6.592h-1.472zm10.118.24c-.79 0-1.488-.184-2.096-.552a3.892 3.892 0 01-1.424-1.488c-.342-.629-.512-1.336-.512-2.12 0-.587.098-1.133.296-1.64.197-.507.474-.947.832-1.32a3.718 3.718 0 011.272-.88 4.093 4.093 0 011.632-.32c.789 0 1.445.165 1.968.496.522.331.93.752 1.224 1.264l-.216.32v-1.84h1.344v7.84h-1.344v-1.84l.216.312a3.68 3.68 0 01-1.224 1.272c-.523.331-1.179.496-1.968.496zm.16-1.328c.522 0 .986-.115 1.392-.344.405-.235.722-.563.952-.984.234-.427.352-.928.352-1.504 0-.581-.118-1.083-.352-1.504a2.421 2.421 0 00-.952-.984 2.784 2.784 0 00-1.392-.344c-.523 0-.987.115-1.392.344a2.459 2.459 0 00-.96.984c-.235.421-.352.923-.352 1.504 0 .576.117 1.077.352 1.504.234.421.554.749.96.984.405.229.869.344 1.392.344zm6.707 1.088v-7.84h1.472v3.088h4.248v-3.088h1.472v7.84h-1.472v-3.504h-4.248v3.504h-1.472zm13.286.24c-.827 0-1.56-.181-2.2-.544a3.974 3.974 0 01-1.504-1.48c-.363-.629-.544-1.341-.544-2.136 0-.603.107-1.157.32-1.664.219-.507.525-.947.92-1.32a4.174 4.174 0 011.384-.864 4.76 4.76 0 011.744-.312c.512 0 .984.067 1.416.2.432.133.832.339 1.2.616l-.752 1.136a2.344 2.344 0 00-.84-.464 3.184 3.184 0 00-1.016-.16c-.587 0-1.096.112-1.528.336a2.332 2.332 0 00-.992.96c-.235.421-.352.928-.352 1.52 0 .891.256 1.589.768 2.096.517.501 1.216.752 2.096.752.405 0 .784-.072 1.136-.216.352-.149.64-.341.864-.576l.76 1.12a5.27 5.27 0 01-1.352.736c-.491.176-1 .264-1.528.264zm9.845-.24l-2.648-4.184 2.376-3.656h1.584l-2.368 3.584 2.832 4.256h-1.776zm-5.256 0v-7.84h1.472v3.088h2.344v1.248h-2.344v3.504h-1.472zm-35.832-135l-4.616-5.952 4.072-5.248h1.84l-4.08 5.232 4.728 5.968h-1.944zm-6.952 0v-11.2h1.504v4.552h2.064v1.384h-2.064v5.264h-1.504zm13.718.24c-.811 0-1.534-.189-2.168-.568a4.146 4.146 0 01-1.496-1.512 4.088 4.088 0 01-.544-2.08 4.122 4.122 0 011.192-2.92 4.08 4.08 0 011.336-.912 4.227 4.227 0 011.68-.328c.816 0 1.541.189 2.176.568a4.162 4.162 0 011.496 1.512c.362.629.544 1.323.544 2.08a4.139 4.139 0 01-1.192 2.92 4.25 4.25 0 01-1.336.912 4.25 4.25 0 01-1.688.328zm0-1.328c.528 0 .994-.115 1.4-.344.41-.235.733-.563.968-.984.234-.427.352-.928.352-1.504 0-.581-.118-1.083-.352-1.504a2.408 2.408 0 00-.96-.984 2.843 2.843 0 00-1.408-.344 2.84 2.84 0 00-1.408.344 2.459 2.459 0 00-.96.984c-.23.421-.344.923-.344 1.504 0 .576.114 1.077.344 1.504.234.421.557.749.968.984.41.229.877.344 1.4.344zm6.066 1.088v-7.84h5.08v1.248h-3.608v6.592h-1.472zm10.117.24c-.789 0-1.488-.184-2.096-.552a3.892 3.892 0 01-1.424-1.488c-.341-.629-.512-1.336-.512-2.12 0-.587.099-1.133.296-1.64.197-.507.475-.947.832-1.32a3.718 3.718 0 011.272-.88 4.093 4.093 0 011.632-.32c.789 0 1.445.165 1.968.496.523.331.931.752 1.224 1.264l-.216.32v-1.84h1.344v7.84h-1.344v-1.84l.216.312a3.663 3.663 0 01-1.224 1.272c-.523.331-1.179.496-1.968.496zm.16-1.328c.523 0 .987-.115 1.392-.344a2.49 2.49 0 00.952-.984c.235-.427.352-.928.352-1.504 0-.581-.117-1.083-.352-1.504a2.415 2.415 0 00-.952-.984 2.779 2.779 0 00-1.392-.344c-.523 0-.987.115-1.392.344a2.472 2.472 0 00-.96.984c-.235.421-.352.923-.352 1.504 0 .576.117 1.077.352 1.504.235.421.555.749.96.984.405.229.869.344 1.392.344zm6.323 1.208l-.544-1.352c.549-.139.949-.36 1.2-.664.251-.309.411-.744.48-1.304s.104-1.288.104-2.184v-2.456h6.184v7.84h-1.472v-6.592h-3.32v1.208c0 .853-.037 1.595-.112 2.224-.069.624-.2 1.152-.392 1.584a2.713 2.713 0 01-.8 1.064c-.341.272-.784.483-1.328.632zm9.962-.12v-7.84h1.472v6.672h1.568c.635 0 1.109-.117 1.424-.352.32-.24.48-.6.48-1.08 0-.469-.149-.829-.448-1.08-.293-.251-.731-.376-1.312-.376h-1.944v-1.16h2.048c.992 0 1.771.227 2.336.68.571.448.856 1.093.856 1.936 0 .549-.139 1.019-.416 1.408-.277.384-.664.68-1.16.888-.496.203-1.075.304-1.736.304h-3.168zm7.808 0v-7.84h1.472v7.84h-1.472zm4.02 0v-7.84h1.336l3.632 5.168-.64.016 3.472-5.184h1.32v7.84h-1.368l.016-6.04.272.12-2.976 4.272h-1l-3.096-4.288.264-.12.016 6.056h-1.248z" fill="#fff"/></svg>