<svg width="161" height="35" fill="none" xmlns="http://www.w3.org/2000/svg"><path d="M0 34.898L6.029 4.656H.49L1.421 0h16.273l-.931 4.656h-5.539L5.195 34.898H0z" fill="#fff"/><path d="M9.513 34.898L16.473 0h7.892C27.109 0 28.727.54 30 1.814c1.177 1.176 1.618 2.891 1.618 4.754 0 1.225-.098 2.5-.392 4.068-1.716 8.578-5 10.636-10.293 10.636h-3.53L14.71 34.898H9.513zm8.823-18.282h2.843c2.696 0 3.97-1.569 4.852-5.98.196-.98.392-2.157.392-3.039 0-1.96-.784-2.94-2.99-2.94h-2.695l-2.402 11.959z" fill="#fff"/><path d="M25.864 34.898L32.824 0h8.186c5.048 0 7.058 2.549 7.058 6.323 0 1.127-.148 2.45-.442 3.97-1.225 6.078-2.891 7.94-5.734 9.215l1.862 15.39H38.56l-1.569-14.46h-3.038l-2.892 14.46h-5.196zm8.97-18.968h3.137c2.548 0 3.774-2.108 4.46-5.637.196-1.03.343-2.01.343-2.794 0-1.764-.637-2.843-2.745-2.843h-2.94L34.833 15.93zm17.785 5.244L56.236 3.03h-3.323l.559-2.794h9.763l-.558 2.794h-3.324l-3.617 18.145H52.62zm7.472 0L64.267.235h10.146l-4.176 20.94H67.12l3.617-18.146h-3.911l-3.617 18.145H60.09zm12.265 0L76.532.235h4.734c1.647 0 2.618.324 3.382 1.088.706.706.97 1.735.97 2.853 0 .735-.058 1.5-.234 2.44-1.03 5.147-3 6.383-6.176 6.383H77.09l-1.617 8.175h-3.117zm5.293-10.97h1.706c1.617 0 2.382-.94 2.911-3.587.118-.588.236-1.294.236-1.823 0-1.177-.471-1.765-1.794-1.765H79.09l-1.44 7.176zm7.281 3.883l.56-2.794h5.616l-.558 2.794H84.93zm6.6 2.764c0-1.264.323-3.294.882-6.146 1.294-6.353 1.911-7.94 3.235-9.235 1-1 2.176-1.47 3.882-1.47 1.529 0 2.735.47 3.47 1.382.559.706.882 1.853.882 2.941 0 .441 0 .823-.088 1.353h-3.117c.088-.441.088-.794.088-1.176 0-.942-.324-1.706-1.47-1.706-.648 0-1.118.206-1.5.617-.824.853-1.206 2.118-2.265 7.294-.53 2.676-.882 4.852-.882 6.117 0 1.147.44 1.794 1.5 1.794.735 0 1.235-.294 1.617-.765.47-.559.765-1.235.97-2.147h3.147c-.441 2.117-1.088 3.44-2.294 4.5-.911.794-1.97 1.205-3.734 1.205-1.824 0-2.941-.617-3.618-1.676-.529-.853-.706-1.617-.706-2.882zm10.582 4.323L106.288.235h8.352l-.559 2.794h-5.234l-1.235 6.205h4.499L111.552 12h-4.499l-1.265 6.381h5.235l-.559 2.794h-8.352zm9.852 0L116.14.235h4.735c1.647 0 2.617.324 3.382 1.088.706.706.97 1.735.97 2.853 0 .735-.059 1.5-.235 2.44-1.029 5.147-3 6.383-6.176 6.383h-2.117l-1.618 8.175h-3.117zm5.294-10.97h1.705c1.618 0 2.382-.94 2.912-3.587.117-.588.235-1.294.235-1.823 0-1.177-.471-1.765-1.794-1.765h-1.617l-1.441 7.176zm6.281 10.97L127.715.235h4.647c1.676 0 2.764.324 3.499 1.265.53.676.765 1.53.765 2.5 0 .5-.059 1.146-.235 1.97-.324 1.617-.589 2.617-1.647 3.558a3.78 3.78 0 01-1.177.736c.383.147.736.47.941.764.471.647.589 1.176.589 1.97 0 .618-.059 1.324-.236 2.177-.529 2.646-1.147 3.882-2.117 4.793-1.059.941-2.206 1.206-4.235 1.206h-4.97zm3.676-2.794h1.529c1.794 0 2.529-.853 3.029-3.323.118-.617.177-1.117.177-1.559 0-1.323-.588-1.911-1.912-1.911h-1.47l-1.353 6.793zm1.882-9.44h1.324c1.646 0 2.441-.882 2.852-2.911.118-.5.177-.97.177-1.353 0-1.088-.412-1.647-1.765-1.647h-1.411l-1.177 5.911zm6.39 12.234L139.663.235h3.118l-2.529 12.587L147.368.235h2.647l-4.176 20.94h-3.117l2.5-12.558-7 12.557h-2.735zm13.142-4.323c0-1.264.324-3.294.882-6.146 1.294-6.353 1.912-7.94 3.235-9.235 1-1 2.176-1.47 3.882-1.47 1.529 0 2.735.47 3.47 1.382.559.706.883 1.853.883 2.941 0 .441 0 .823-.089 1.353h-3.117c.088-.441.088-.794.088-1.176 0-.942-.323-1.706-1.47-1.706-.647 0-1.118.206-1.5.617-.823.853-1.206 2.118-2.264 7.294-.53 2.676-.883 4.852-.883 6.117 0 1.147.441 1.794 1.5 1.794.735 0 1.235-.294 1.618-.765.47-.559.764-1.235.97-2.147h3.147c-.441 2.117-1.088 3.44-2.294 4.5-.912.794-1.97 1.205-3.735 1.205-1.823 0-2.941-.617-3.617-1.676-.53-.853-.706-1.617-.706-2.882zM50.138 34.898l1.81-9.074h1.35l-.764 3.862h1.682l.777-3.861h1.351l-1.81 9.073h-1.35l.803-4.014h-1.695l-.803 4.014h-1.351zm5.569 0l1.81-9.074h3.62l-.243 1.211h-2.268l-.536 2.69h1.95l-.242 1.197h-1.95l-.548 2.765h2.269l-.242 1.211h-3.62zm6.783.064l.216-1.07c-1.465-.064-2.102-.906-2.102-2.065 0-.497.089-1.083.216-1.733.535-2.651 1.122-3.709 3.403-3.798l.178-.88h1.326l-.179.88c1.453.064 2.103.905 2.103 2.052 0 .51-.09 1.096-.217 1.746-.522 2.612-1.108 3.695-3.402 3.797l-.217 1.07H62.49zm-.523-3.377c0 .726.23 1.057 1.007 1.096l1.032-5.174c-1.007.038-1.453.688-1.835 2.587-.115.611-.204 1.108-.204 1.49zm2.269 1.096c1.006-.039 1.465-.701 1.847-2.587.115-.612.204-1.109.204-1.504 0-.714-.242-1.058-1.02-1.083l-1.031 5.174zm3.94 2.217l1.567-7.863h-1.44l.242-1.21h4.231l-.242 1.21h-1.44l-1.567 7.863h-1.351zm3.493 0l1.81-9.074h3.619l-.243 1.211h-2.268l-.535 2.69h1.95l-.242 1.197h-1.95l-.548 2.765h2.268l-.242 1.211h-3.62zm4.817-1.873c0-.548.14-1.428.382-2.664.56-2.752.829-3.44 1.402-4.001.433-.433.943-.637 1.682-.637.663 0 1.185.204 1.504.599.242.305.382.802.382 1.274 0 .191 0 .357-.038.586h-1.35c.037-.191.037-.344.037-.51 0-.407-.14-.739-.637-.739-.28 0-.484.09-.65.268-.356.37-.522.917-.981 3.16-.23 1.16-.382 2.103-.382 2.651 0 .497.19.777.65.777a.847.847 0 00.7-.331c.204-.242.332-.535.421-.93h1.364c-.191.917-.472 1.49-.994 1.95-.395.344-.854.522-1.619.522-.79 0-1.274-.268-1.567-.726-.23-.37-.306-.701-.306-1.25zm4.841 1.873l1.81-9.074h3.618l-.242 1.211h-2.268l-.535 2.69h1.95l-.243 1.197h-1.95l-.547 2.765h2.268l-.242 1.211h-3.62zm4.523 0l1.81-9.074h2.052c.714 0 1.134.14 1.465.472.306.306.421.752.421 1.236 0 .319-.025.65-.102 1.058-.446 2.23-1.3 2.765-2.676 2.765h-.918l-.7 3.543H85.85zm2.294-4.753h.74c.7 0 1.032-.408 1.261-1.555a4.47 4.47 0 00.102-.79c0-.51-.204-.765-.777-.765h-.701l-.625 3.11zm2.977 4.753l1.81-9.074h2.013c.727 0 1.198.14 1.517.548.23.294.331.663.331 1.084 0 .216-.025.497-.102.854-.14.7-.255 1.134-.713 1.542-.153.14-.319.242-.51.318a.96.96 0 01.408.331c.204.28.254.51.254.854 0 .268-.025.574-.101.943-.23 1.147-.497 1.682-.918 2.078-.459.407-.956.522-1.835.522h-2.154zm1.593-1.21h.663c.777 0 1.096-.37 1.313-1.44a3.64 3.64 0 00.076-.676c0-.573-.255-.828-.828-.828H93.3l-.586 2.943zm.816-4.091h.573c.714 0 1.058-.383 1.236-1.262.051-.217.077-.42.077-.586 0-.472-.178-.714-.765-.714h-.611l-.51 2.562zm3.024 5.301l1.81-9.074h1.35l-1.096 5.455 3.084-5.454h1.147l-1.809 9.073h-1.351l1.083-5.442-3.033 5.442h-1.185zm5.949-1.873c0-.548.141-1.428.383-2.664.56-2.752.828-3.44 1.401-4.001.434-.433.944-.637 1.683-.637.662 0 1.185.204 1.503.599.243.305.383.802.383 1.274 0 .191 0 .357-.039.586h-1.35c.038-.191.038-.344.038-.51 0-.407-.14-.739-.637-.739-.281 0-.485.09-.65.268-.357.37-.523.917-.981 3.16-.23 1.16-.383 2.103-.383 2.651 0 .497.191.777.65.777a.848.848 0 00.701-.331c.204-.242.331-.535.421-.93h1.363c-.191.917-.471 1.49-.994 1.95-.395.344-.854.522-1.618.522-.79 0-1.275-.268-1.568-.726-.229-.37-.306-.701-.306-1.25zm4.841 1.873l1.81-9.074h1.351l-.765 3.862h1.682l.777-3.861h1.351l-1.809 9.073h-1.351l.803-4.014h-1.695l-.803 4.014h-1.351zm5.569 0l1.81-9.074h1.351l-.701 3.53h.714c.713 0 1.134.154 1.465.485.306.306.421.739.421 1.236 0 .319-.039.726-.102 1.058-.446 2.23-1.3 2.765-2.676 2.765h-2.282zm1.593-1.21h.752c.701 0 1.02-.396 1.262-1.555.051-.243.089-.561.089-.803 0-.51-.191-.765-.765-.765h-.713l-.625 3.122zm3.543 1.21l1.81-9.074h1.351l-1.81 9.074h-1.351zm2.525 0l1.809-9.074h3.619l-.242 1.211h-2.268l-.535 2.69h1.949l-.242 1.197h-1.949l-.548 2.765h2.268l-.242 1.211h-3.619zm6.243 0l.23-1.21c.752 0 1.083-.205 1.389-.93l.357-.817-.65-6.116h1.376l.242 4.281 1.95-4.282h1.44l-3.67 7.328c-.701 1.402-.994 1.746-2.664 1.746zm5.12-1.873c0-.548.14-1.428.383-2.664.56-2.752.828-3.44 1.401-4.001.434-.433.943-.637 1.683-.637.662 0 1.185.204 1.503.599.242.305.383.802.383 1.274 0 .191 0 .357-.039.586h-1.35c.038-.191.038-.344.038-.51 0-.407-.14-.739-.637-.739-.281 0-.485.09-.65.268-.357.37-.523.917-.982 3.16-.229 1.16-.382 2.103-.382 2.651 0 .497.191.777.65.777a.848.848 0 00.701-.331c.204-.242.331-.535.42-.93h1.364c-.191.917-.471 1.49-.994 1.95-.395.344-.854.522-1.618.522-.791 0-1.275-.268-1.568-.726-.229-.37-.306-.701-.306-1.25zm4.044 1.873l.242-1.21h.127c.74 0 1.224-.46 1.695-2.83l1.02-5.034h4.103l-1.809 9.074h-1.364l1.568-7.863h-1.441l-.777 3.874c-.688 3.467-1.389 3.989-2.956 3.989h-.408zm6.312 0l.23-1.21c.752 0 1.083-.205 1.389-.93l.357-.817-.65-6.116h1.376l.242 4.281 1.95-4.282h1.44l-3.67 7.328c-.701 1.402-.994 1.746-2.664 1.746zm5.039 0l1.809-9.074h3.556l-.242 1.211h-2.205l-1.567 7.863h-1.351zm4.287 0l1.81-9.074h1.351l-1.096 5.455 3.084-5.454h1.147l-1.81 9.073h-1.351l1.084-5.442-3.033 5.442h-1.186z" fill="#fff"/></svg>