<svg width="18" height="18" fill="none" xmlns="http://www.w3.org/2000/svg"><path d="M6.63 7.814a9.5 9.5 0 003.556 3.557l.796-1.115a.9.9 0 011.164-.266 10.28 10.28 0 004.125 1.228.9.9 0 01.829.897v4.016a.9.9 0 01-.808.895c-.477.05-.958.074-1.442.074C7.146 17.1.9 10.854.9 3.15c0-.484.024-.965.074-1.442A.9.9 0 011.869.9h4.016a.9.9 0 01.897.829A10.28 10.28 0 008.01 5.854a.9.9 0 01-.266 1.164l-1.115.796zm-2.27-.591L6.07 6a12.07 12.07 0 01-.988-3.3H2.71c-.006.15-.008.3-.008.45C2.7 9.86 8.139 15.3 14.85 15.3c.15 0 .3-.003.45-.009v-2.373a12.068 12.068 0 01-3.301-.988l-1.222 1.71c-.491-.19-.969-.416-1.429-.675l-.052-.03a11.3 11.3 0 01-4.232-4.231l-.03-.052c-.258-.46-.483-.938-.675-1.43z" fill="#fff"/></svg>