<svg width="28" height="28" fill="none" xmlns="http://www.w3.org/2000/svg"><path d="M10.049 12.023a15.834 15.834 0 005.928 5.928l1.326-1.857a1.5 1.5 0 011.941-.444 17.132 17.132 0 006.875 2.046 1.5 1.5 0 011.381 1.495v6.694a1.5 1.5 0 01-1.347 1.492c-.795.082-1.596.123-2.403.123C10.91 27.5.5 17.09.5 4.25c0-.807.04-1.608.123-2.403A1.5 1.5 0 012.115.5H8.81a1.5 1.5 0 011.495 1.381 17.15 17.15 0 002.046 6.875 1.5 1.5 0 01-.444 1.941l-1.857 1.326zm-3.783-.986l2.85-2.035A20.115 20.115 0 017.471 3.5H3.515c-.009.249-.014.5-.014.75C3.5 15.434 12.566 24.5 23.75 24.5c.25 0 .501-.005.75-.015v-3.956a20.115 20.115 0 01-5.502-1.645l-2.036 2.85a18.665 18.665 0 01-2.381-1.125l-.088-.05a18.834 18.834 0 01-7.053-7.053l-.049-.087a18.662 18.662 0 01-1.125-2.382z" fill="#000"/></svg>