<svg width="24" height="24" fill="none" xmlns="http://www.w3.org/2000/svg"><path d="M5.175 3.25c.075 1.112.263 2.2.563 3.237l-1.5 1.5a18.532 18.532 0 01-.95-4.737h1.887zM17.5 18.275c1.063.3 2.15.488 3.25.563V20.7a19.283 19.283 0 01-4.75-.938l1.5-1.487zM6.375.75H2C1.312.75.75 1.313.75 2c0 11.738 9.512 21.25 21.25 21.25.688 0 1.25-.563 1.25-1.25v-4.363c0-.687-.563-1.25-1.25-1.25-1.55 0-3.063-.25-4.462-.712a1.05 1.05 0 00-.388-.063 1.28 1.28 0 00-.887.363l-2.75 2.75a18.936 18.936 0 01-8.238-8.238l2.75-2.75c.35-.35.45-.837.313-1.274A14.2 14.2 0 017.625 2c0-.688-.563-1.25-1.25-1.25z" fill="#fff"/></svg>